<?xml version="1.0" encoding="UTF-8"?><svg id="Layer_1" xmlns="http://www.w3.org/2000/svg" xmlns:xlink="http://www.w3.org/1999/xlink" viewBox="0 0 784.42 657.58"><defs><clipPath id="clippath"><rect x="-1068.49" y="-211.21" width="1920" height="1080" style="fill:none;"/></clipPath></defs><g style="clip-path:url(#clippath);"><path d="M538.5,95.28c0,38.46,31.18,69.64,69.64,69.64v-69.64h-69.64Z" style="fill:#f7192e;"/><path d="M538.5,95.28c-38.46,0-69.64,31.18-69.64,69.64h69.64v-69.64Z" style="fill:#f7192e;"/><path d="M538.5,95.28c0-38.46-31.18-69.64-69.64-69.64v69.64h69.64Z" style="fill:#f7192e;"/><path d="M538.5,95.28c38.46,0,69.64-31.18,69.64-69.64h-69.64v69.64Z" style="fill:#f7192e;"/><polygon points="302.21 25.64 232.57 95.28 302.21 164.92 302.21 25.64" style="fill:#0094a2;"/><polygon points="232.57 95.28 232.57 25.64 162.93 95.28 232.57 164.92 232.57 95.28" style="fill:#0094a2;"/><polygon points="162.93 95.28 162.93 25.64 93.28 95.28 162.93 164.92 162.93 95.28" style="fill:#0094a2;"/><polygon points="23.64 95.28 93.28 164.92 93.28 95.28 93.28 25.64 23.64 95.28" style="fill:#0094a2;"/><path d="M361.79,107.12c-6.31,4.28-12.6,9.47-18.59,15.46-13.69,13.69-23.16,28.93-27.3,42.34,13.41-4.14,28.65-13.61,42.34-27.3,5.99-5.99,11.18-12.29,15.46-18.59,1.99,17.78,6.16,33.6,11.84,45.89,5.67-12.3,9.85-28.11,11.84-45.89,4.28,6.31,9.47,12.6,15.46,18.59,13.69,13.69,28.93,23.16,42.34,27.3-4.14-13.41-13.61-28.65-27.3-42.34-5.99-5.99-12.29-11.18-18.59-15.46,17.78-1.99,33.6-6.16,45.89-11.84-12.3-5.67-28.11-9.85-45.89-11.84,6.31-4.28,12.6-9.47,18.59-15.46,13.69-13.69,23.16-28.93,27.3-42.34-13.41,4.14-28.65,13.61-42.34,27.3-5.99,5.99-11.18,12.29-15.46,18.59-1.99-17.78-6.16-33.6-11.84-45.89-5.67,12.3-9.85,28.11-11.84,45.89-4.28-6.31-9.47-12.6-15.46-18.59-13.69-13.69-28.93-23.16-42.34-27.3,4.14,13.41,13.61,28.65,27.3,42.34,5.99,5.99,12.29,11.18,18.59,15.46-17.78,1.99-33.6,6.16-45.89,11.84,12.3,5.67,28.11,9.85,45.89,11.84" style="fill:#f7192e;"/><polygon points="176.65 339.68 176.65 409.33 246.29 409.33 176.65 339.68" style="fill:#f7192e;"/><polygon points="246.29 339.68 246.29 409.33 315.93 409.33 246.29 339.68" style="fill:#f7192e;"/><polygon points="176.65 409.33 176.65 478.97 246.29 478.97 176.65 409.33" style="fill:#f7192e;"/><polygon points="246.29 409.33 246.29 478.97 315.93 478.97 246.29 409.33" style="fill:#f7192e;"/><polygon points="482.58 478.97 552.22 478.97 517.4 339.69 482.58 478.97" style="fill:#ffae00;"/><polygon points="552.22 478.97 621.87 478.97 587.05 339.69 552.22 478.97" style="fill:#ffae00;"/><polygon points="621.87 478.97 691.51 478.97 656.69 339.69 621.87 478.97" style="fill:#ffae00;"/><polygon points="726.33 339.69 691.51 478.97 761.15 478.97 726.33 339.69" style="fill:#ffae00;"/><path d="M251.75,256.4s0-.03,0-.04,0-.03,0-.04c15.08-.42,31.21-7.25,44.05-20.09,14.36-14.36,21.23-32.86,19.98-49.37-16.51-1.24-35.01,5.62-49.37,19.98-12.84,12.84-19.67,28.98-20.09,44.05-.01,0-.03,0-.04,0s-.03,0-.04,0c-.42-15.08-7.25-31.21-20.09-44.05-14.36-14.36-32.86-21.23-49.37-19.98-1.24,16.51,5.62,35.01,19.98,49.37,12.84,12.84,28.98,19.67,44.05,20.09,0,.01,0,.03,0,.04,0,.01,0,.03,0,.04-15.08.42-31.21,7.25-44.05,20.09-14.36,14.36-21.23,32.86-19.98,49.37,16.51,1.24,35.01-5.62,49.37-19.98,12.84-12.84,19.67-28.98,20.09-44.05.01,0,.03,0,.04,0s.03,0,.04,0c.42,15.08,7.25,31.21,20.09,44.05,14.36,14.36,32.86,21.23,49.37,19.98,1.24-16.51-5.62-35.01-19.98-49.37-12.84-12.84-28.98-19.67-44.05-20.09" style="fill:#ffae00;"/><path d="M760.13,253.86l-18.05-18.44-.28-25.8c-.02-1.95-1.59-3.52-3.54-3.54l-25.8-.28-18.44-18.05c-1.39-1.36-3.62-1.36-5.01,0l-18.44,18.05-25.8.28c-1.95.02-3.52,1.59-3.54,3.54l-.28,25.8-18.05,18.44c-1.36,1.39-1.36,3.62,0,5.01l18.05,18.44.28,25.8c.02,1.95,1.59,3.52,3.54,3.54l25.8.28,18.44,18.05c1.39,1.36,3.62,1.36,5.01,0l18.44-18.05,25.8-.28c1.95-.02,3.52-1.59,3.54-3.54l.28-25.8,18.05-18.44c1.36-1.39,1.36-3.62,0-5.01" style="fill:#f7192e;"/><polygon points="128.1 326 162.93 186.72 93.28 186.72 128.1 326" style="fill:#ffae00;"/><polygon points="58.46 326 93.28 186.72 23.64 186.72 58.46 326" style="fill:#ffae00;"/><path d="M622.89,564.8l18.05,18.44.28,25.8c.02,1.95,1.59,3.52,3.54,3.54l25.8.28,18.44,18.05c1.39,1.36,3.62,1.36,5.01,0l18.44-18.05,25.8-.28c1.95-.02,3.52-1.59,3.54-3.54l.28-25.8,18.05-18.44c1.36-1.39,1.36-3.62,0-5.01l-18.05-18.44-.28-25.8c-.02-1.95-1.59-3.52-3.54-3.54l-25.8-.28-18.44-18.05c-1.39-1.36-3.62-1.36-5.01,0l-18.44,18.05-25.8.28c-1.95.02-3.52,1.59-3.54,3.54l-.28,25.8-18.05,18.44c-1.36,1.39-1.36,3.62,0,5.01" style="fill:#0094a2;"/><path d="M117.03,397.49c6.31-4.28,12.6-9.47,18.59-15.46,13.69-13.69,23.16-28.93,27.3-42.34-13.41,4.14-28.65,13.61-42.34,27.3-5.99,5.99-11.18,12.29-15.46,18.59-1.99-17.78-6.16-33.6-11.84-45.89-5.67,12.3-9.85,28.11-11.84,45.89-4.28-6.31-9.47-12.6-15.46-18.59-13.69-13.69-28.93-23.16-42.34-27.3,4.14,13.41,13.61,28.65,27.3,42.34,5.99,5.99,12.29,11.18,18.59,15.46-17.78,1.99-33.6,6.16-45.89,11.84,12.3,5.67,28.11,9.85,45.89,11.84-6.31,4.28-12.6,9.47-18.59,15.46-13.69,13.69-23.16,28.93-27.3,42.34,13.41-4.14,28.65-13.61,42.34-27.3,5.99-6,11.18-12.29,15.46-18.59,1.99,17.78,6.16,33.6,11.84,45.89,5.67-12.3,9.85-28.11,11.84-45.89,4.28,6.31,9.47,12.6,15.46,18.59,13.69,13.69,28.93,23.16,42.34,27.3-4.14-13.41-13.61-28.65-27.3-42.34-5.99-5.99-12.29-11.18-18.59-15.46,17.78-1.99,33.6-6.16,45.89-11.84-12.3-5.67-28.11-9.85-45.89-11.84" style="fill:#f7192e;"/><path d="M757.11,95.28l3.61-12.6c1.14-3.96,0-8.23-2.97-11.09l-9.43-9.11-3.17-12.72c-1-4-4.12-7.12-8.12-8.12l-12.72-3.17-9.11-9.43c-2.86-2.96-7.13-4.11-11.09-2.97l-12.6,3.61-12.6-3.61c-3.96-1.14-8.23,0-11.09,2.97l-9.11,9.43-12.72,3.17c-4,1-7.12,4.12-8.12,8.12l-3.17,12.72-9.43,9.11c-2.96,2.86-4.11,7.13-2.97,11.09l3.61,12.6-3.61,12.6c-1.14,3.96,0,8.23,2.97,11.09l9.43,9.11,3.17,12.72c1,4,4.12,7.12,8.12,8.12l12.72,3.17,9.11,9.43c2.86,2.97,7.13,4.11,11.09,2.97l12.6-3.61,12.6,3.61c3.96,1.14,8.23,0,11.09-2.97l9.11-9.43,12.72-3.17c4-1,7.12-4.12,8.12-8.12l3.17-12.72,9.43-9.11c2.96-2.86,4.11-7.13,2.97-11.09l-3.61-12.6ZM667.65,99.11l-5.57-2.4c-1.25-.54-1.25-2.32,0-2.86l5.57-2.4c.39-.17.84-.17,1.23,0l5.57,2.4c1.25.54,1.25,2.32,0,2.86l-5.57,2.4c-.39.17-.84.17-1.23,0M681.39,107.42l-2.24,5.64c-.16.4-.47.71-.87.87l-5.64,2.24c-1.27.51-2.52-.75-2.02-2.02l2.24-5.64c.16-.4.47-.71.87-.87l5.64-2.24c1.27-.51,2.52.75,2.02,2.02M679.37,85.16l-5.64-2.24c-.4-.16-.71-.47-.87-.87l-2.24-5.64c-.51-1.27.75-2.52,2.02-2.02l5.64,2.24c.4.16.71.47.87.87l2.24,5.64c.5,1.27-.75,2.52-2.02,2.02M695.34,119.14l-2.4,5.57c-.54,1.25-2.32,1.25-2.86,0l-2.4-5.57c-.17-.39-.17-.84,0-1.23l2.4-5.57c.54-1.25,2.32-1.25,2.86,0l2.4,5.57c.17.39.17.84,0,1.23M695.34,72.65l-2.4,5.57c-.54,1.25-2.32,1.25-2.86,0l-2.4-5.57c-.17-.39-.17-.84,0-1.23l2.4-5.57c.54-1.25,2.32-1.25,2.86,0l2.4,5.57c.17.39.17.84,0,1.23M701.63,83.14l2.24-5.64c.16-.4.47-.71.87-.87l5.64-2.24c1.27-.5,2.52.75,2.02,2.02l-2.24,5.64c-.16.4-.47.71-.87.87l-5.64,2.24c-1.27.5-2.52-.75-2.02-2.02M711.38,116.17l-5.64-2.24c-.4-.16-.71-.47-.87-.87l-2.24-5.64c-.5-1.27.75-2.53,2.02-2.02l5.64,2.24c.4.16.71.47.87.87l2.24,5.64c.51,1.27-.75,2.52-2.02,2.02M720.94,96.71l-5.57,2.4c-.39.17-.84.17-1.23,0l-5.57-2.4c-1.25-.54-1.25-2.32,0-2.86l5.57-2.4c.39-.17.84-.17,1.23,0l5.57,2.4c1.25.54,1.25,2.32,0,2.86" style="fill:#ffae00;"/><path d="M464.85,409.33l3.61-12.6c1.14-3.96,0-8.23-2.97-11.09l-9.43-9.11-3.17-12.72c-1-4-4.12-7.12-8.12-8.12l-12.72-3.17-9.11-9.43c-2.86-2.97-7.13-4.11-11.09-2.97l-12.6,3.61-12.6-3.61c-3.96-1.14-8.23,0-11.09,2.97l-9.11,9.43-12.72,3.17c-4,1-7.12,4.12-8.12,8.12l-3.17,12.72-9.43,9.11c-2.96,2.86-4.11,7.13-2.97,11.09l3.61,12.6-3.61,12.6c-1.14,3.96,0,8.23,2.97,11.09l9.43,9.11,3.17,12.72c1,4,4.12,7.12,8.12,8.12l12.72,3.17,9.11,9.43c2.86,2.96,7.13,4.11,11.09,2.97l12.6-3.61,12.6,3.61c3.96,1.14,8.23,0,11.09-2.97l9.11-9.43,12.72-3.17c4-1,7.12-4.12,8.12-8.12l3.17-12.72,9.43-9.11c2.96-2.86,4.11-7.13,2.97-11.09l-3.61-12.6ZM375.4,413.16l-5.57-2.4c-1.25-.54-1.25-2.32,0-2.86l5.57-2.4c.39-.17.84-.17,1.23,0l5.57,2.4c1.25.54,1.25,2.32,0,2.86l-5.57,2.4c-.39.17-.84.17-1.23,0M389.14,421.47l-2.24,5.64c-.16.4-.47.71-.87.87l-5.64,2.24c-1.27.51-2.52-.75-2.02-2.02l2.24-5.64c.16-.4.47-.71.87-.87l5.64-2.24c1.27-.51,2.52.75,2.02,2.02M387.12,399.21l-5.64-2.24c-.4-.16-.71-.47-.87-.87l-2.24-5.64c-.51-1.27.75-2.52,2.02-2.02l5.64,2.24c.4.16.71.47.87.87l2.24,5.64c.5,1.27-.75,2.52-2.02,2.02M403.09,433.19l-2.4,5.57c-.54,1.25-2.32,1.25-2.86,0l-2.4-5.57c-.17-.39-.17-.84,0-1.23l2.4-5.57c.54-1.25,2.32-1.25,2.86,0l2.4,5.57c.17.39.17.84,0,1.23M403.09,386.7l-2.4,5.57c-.54,1.25-2.32,1.25-2.86,0l-2.4-5.57c-.17-.39-.17-.84,0-1.23l2.4-5.57c.54-1.25,2.32-1.25,2.86,0l2.4,5.57c.17.39.17.84,0,1.23M409.38,397.19l2.24-5.64c.16-.4.47-.71.87-.87l5.64-2.24c1.27-.5,2.52.75,2.02,2.02l-2.24,5.64c-.16.4-.47.71-.87.87l-5.64,2.24c-1.27.5-2.52-.75-2.02-2.02M419.13,430.22l-5.64-2.24c-.4-.16-.71-.47-.87-.87l-2.24-5.64c-.5-1.27.75-2.53,2.02-2.02l5.64,2.24c.4.16.71.47.87.87l2.24,5.64c.51,1.27-.75,2.52-2.02,2.02M428.69,410.76l-5.57,2.4c-.39.17-.84.17-1.23,0l-5.57-2.4c-1.25-.54-1.25-2.32,0-2.86l5.57-2.4c.39-.17.84-.17,1.23,0l5.57,2.4c1.25.54,1.25,2.32,0,2.86" style="fill:#0094a2;"/><polygon points="501.56 218.97 501.56 293.98 539.06 256.47 501.56 218.97" style="fill:#0094a2;"/><polygon points="576.57 293.98 576.57 218.97 539.06 256.47 576.57 293.98" style="fill:#0094a2;"/><polygon points="576.57 218.97 608.82 186.72 608.41 186.72 469.72 186.72 469.31 186.72 501.56 218.97 576.57 218.97" style="fill:#0094a2;"/><polygon points="576.57 293.98 576.57 293.98 501.56 293.98 469.31 326.23 469.72 326.23 608.41 326.23 608.82 326.23 576.57 293.98" style="fill:#0094a2;"/><polygon points="437.06 218.97 362.05 218.97 399.55 256.47 437.06 218.97" style="fill:#0094a2;"/><polygon points="362.05 293.98 437.06 293.98 399.55 256.47 362.05 293.98" style="fill:#0094a2;"/><polygon points="437.06 293.98 469.31 326.23 469.31 325.82 469.31 187.13 469.31 186.72 437.06 218.97 437.06 293.98" style="fill:#0094a2;"/><polygon points="362.05 293.98 362.05 218.97 362.05 218.97 329.8 186.72 329.8 187.13 329.8 325.82 329.8 326.23 362.05 293.98" style="fill:#0094a2;"/><polygon points="573.32 631.94 608.14 492.65 538.5 492.65 573.32 631.94" style="fill:#f7192e;"/><polygon points="503.68 631.94 538.5 492.65 468.86 492.65 503.68 631.94" style="fill:#f7192e;"/><polygon points="302.21 631.94 68.18 608.72 269.36 585.51 68.18 562.29 269.36 539.08 68.18 515.87 302.21 492.65 23.64 492.65 23.64 631.94 302.21 631.94" style="fill:#0094a2;"/><polygon points="455.18 631.94 455.18 562.29 385.53 562.29 455.18 631.94" style="fill:#ffae00;"/><polygon points="315.89 631.94 385.53 631.94 385.53 562.29 315.89 631.94" style="fill:#ffae00;"/><polygon points="315.89 492.65 315.89 562.29 385.53 562.29 315.89 492.65" style="fill:#ffae00;"/><polygon points="455.18 492.65 385.53 492.65 385.53 562.29 455.18 492.65" style="fill:#ffae00;"/></g></svg>