<?xml version="1.0" encoding="UTF-8"?><svg id="Layer_1" xmlns="http://www.w3.org/2000/svg" viewBox="0 0 738.52 236.68"><path d="M98.4,0S0,36.65,0,165.37c.8.74,1.62,1.45,2.45,2.16.11.09.22.19.33.28.79.67,1.6,1.32,2.42,1.97.15.12.3.24.45.35.81.63,1.64,1.25,2.47,1.86.14.11.29.21.43.31.86.62,1.73,1.23,2.62,1.83.08.06.17.11.25.16.88.59,1.76,1.16,2.65,1.73.09.06.18.12.27.17.9.57,1.81,1.12,2.73,1.66.16.1.33.19.49.29.89.52,1.8,1.03,2.7,1.53.18.1.36.2.54.3.92.5,1.84.99,2.77,1.47.15.08.3.15.44.23.95.48,1.9.96,2.86,1.42.05.02.09.05.14.07.97.47,1.95.92,2.93,1.37.16.07.32.15.48.22.94.43,1.88.84,2.83,1.24.2.09.39.17.59.25.94.4,1.88.79,2.82,1.16.19.08.37.15.56.22.97.39,1.93.76,2.9,1.13.11.04.22.08.33.12.94.35,1.88.7,2.82,1.03.13.05.25.09.38.14.96.34,1.92.67,2.87,1,.19.06.38.13.57.19.93.31,1.86.62,2.79.91.19.06.39.12.58.18.94.3,1.87.58,2.79.86.15.04.3.09.44.13.94.28,1.88.55,2.81.82.05.01.09.03.14.04.96.27,1.91.53,2.86.79.14.04.29.08.43.12.91.24,1.81.47,2.71.7.16.04.32.08.49.12.89.22,1.77.44,2.65.65.14.03.27.06.41.1.91.21,1.8.42,2.69.62.04,0,.08.02.12.03.9.2,1.79.39,2.67.58.06.01.12.03.18.04.87.18,1.72.35,2.56.52.1.02.2.04.3.06.83.16,1.64.32,2.43.46.09.02.18.03.27.05.82.15,1.62.29,2.4.42.03,0,.05.01.08.01,1.65.28,3.21.53,4.69.74.01,0,.03,0,.04,0,.74.11,1.45.21,2.13.3.02,0,.04,0,.06,0,2.09.28,3.97.49,5.58.64v34.88c0,.37.47.66,1.04.66h9.95c.58,0,1.04-.3,1.04-.66v-34.88c1.08-.1,2.28-.23,3.58-.38,0,0,0,0,.01,0,.63-.08,1.29-.16,1.97-.25.04,0,.07-.01.11-.01.68-.09,1.37-.19,2.09-.29.03,0,.06,0,.09-.01,1.46-.21,3-.46,4.62-.73.04,0,.09-.01.13-.02.77-.13,1.55-.27,2.35-.41.11-.02.22-.04.32-.06.78-.14,1.58-.29,2.39-.45.12-.02.23-.05.35-.07.83-.16,1.66-.33,2.52-.51.08-.02.16-.03.24-.05.85-.18,1.71-.36,2.59-.56.06-.01.11-.02.17-.04.87-.2,1.76-.4,2.65-.61.15-.03.29-.07.44-.1.86-.2,1.73-.42,2.62-.64.18-.04.35-.09.53-.13.88-.22,1.77-.45,2.67-.69.16-.04.31-.08.47-.13.94-.25,1.88-.51,2.83-.78.06-.02.12-.03.18-.05.92-.26,1.84-.53,2.77-.81.15-.05.31-.09.46-.14.92-.28,1.85-.56,2.78-.86.2-.06.39-.12.59-.19.92-.3,1.85-.6,2.78-.91.19-.06.38-.13.57-.19.95-.32,1.91-.65,2.86-.99.13-.05.26-.1.39-.14.93-.33,1.87-.68,2.8-1.03.11-.04.22-.08.33-.12.97-.37,1.93-.74,2.89-1.13.19-.07.37-.15.56-.22.94-.38,1.88-.77,2.81-1.16.2-.08.4-.17.59-.25.94-.4,1.89-.82,2.83-1.24.16-.07.32-.15.49-.22.98-.45,1.96-.9,2.94-1.37.04-.02.08-.04.12-.06.96-.46,1.92-.94,2.87-1.43.15-.07.29-.15.44-.22.93-.48,1.85-.97,2.77-1.47.18-.1.36-.2.54-.3.91-.5,1.81-1.01,2.71-1.54.16-.1.33-.19.49-.29.92-.54,1.83-1.09,2.74-1.66.09-.06.18-.11.27-.17.9-.57,1.78-1.14,2.66-1.73.08-.05.16-.11.24-.16.89-.6,1.76-1.21,2.62-1.83.14-.1.29-.21.43-.31.84-.61,1.66-1.23,2.48-1.86.15-.12.3-.23.45-.35.82-.64,1.63-1.3,2.42-1.97.11-.09.22-.19.33-.28.83-.71,1.65-1.43,2.45-2.16C196.8,36.65,98.4,0,98.4,0M138.99,35.82l-13.62,22.78c-3.03-3.56-5.99-6.64-8.79-9.29l22.41-13.49ZM80.22,49.31c-2.8,2.65-5.77,5.73-8.79,9.29l-13.62-22.78,22.41,13.49ZM35.79,166.4l-27.8-7.96,28.46-6.1c-.35,4.52-.57,9.21-.67,14.06M38.1,137.56l-26.5-12.23,29.01-1.67c-.97,4.42-1.81,9.06-2.51,13.9M44.34,109.44l-23.51-16.6,28.13,3.53c-1.65,4.1-3.2,8.46-4.62,13.07M55.25,82.73l-18.98-20.27,25.74,8.77c-2.31,3.52-4.58,7.35-6.76,11.5M92.38,180h0v8.59c-2.35-.25-5.33-.63-8.79-1.19h0c-1.73-.28-3.57-.6-5.52-.97,0,0,0,0-.01,0-1.29-.25-2.63-.51-4.01-.8-.01,0-.02,0-.03,0-2.05-.43-4.18-.91-6.38-1.44-.04-.01-.09-.02-.13-.03-1.46-.35-2.96-.73-4.47-1.14,0,0,0,0,0,0-.46-.41-.91-.82-1.35-1.25,0-40.84,23.18-68.98,32.7-78.81-1.09,17.73-1.97,42.69-2,77.06M91.77,39.86l6.63-26.5,6.62,26.5c-4.07-2.82-6.62-4.05-6.62-4.05,0,0-2.55,1.23-6.63,4.05M133.76,183c-1.52.4-3.02.79-4.49,1.14-.03,0-.06.02-.1.02-2.21.54-4.35,1.02-6.41,1.45t0,0c-3.45.72-6.67,1.31-9.55,1.78h0c-3.46.56-6.44.95-8.79,1.19v-8.59h0c-.03-34.37-.92-59.33-2-77.06,9.52,9.84,32.7,37.98,32.7,78.81-.44.43-.89.84-1.35,1.25M141.54,82.73c-2.18-4.16-4.45-7.98-6.76-11.5l25.74-8.77-18.98,20.27ZM152.46,109.44c-1.42-4.61-2.96-8.97-4.62-13.07l28.13-3.53-23.51,16.6ZM158.69,137.56c-.7-4.84-1.54-9.48-2.51-13.9l29.01,1.67-26.5,12.23ZM161,166.4c-.09-4.85-.32-9.53-.67-14.06l28.46,6.1-27.8,7.96Z" style="fill:#0094a2;"/><path d="M359.5,67.33l5.68-11.27c6.12,3.93,12.58,6.11,18.61,6.11,6.9,0,11.18-2.53,11.18-7.34,0-3.93-2.62-6.46-11.18-7.51-15.38-1.75-22.54-7.42-22.54-17.64,0-11.53,9.61-19.04,23.59-19.04,7.95,0,14.24,1.4,21.75,5.42l-5.15,10.83c-5.68-3.06-11.18-4.45-16.08-4.45-6.29,0-10.13,2.53-10.13,6.64s3.41,5.59,11.27,6.64c15.46,2.1,22.63,8.56,22.63,19.04,0,11.97-10.05,19.83-25.16,19.83-9,0-17.21-2.27-24.46-7.25" style="fill:#0094a2;"/><path d="M344.24,39.3h-6.8l4.77-4.77-1.39-3.25h-6.73l4.72-4.72-1.41-3.3h-6.66l4.67-4.67-2.8-6.55h-15.03l-26.3,61.14h15.11l4.63-11.18h27.61l4.63,11.18h15.46l-14.48-33.89ZM315.47,50.04l5.59-14.94c1.92-5.33,3.06-8.21,3.67-10.13h.26c.52,1.74,1.57,4.72,3.49,9.78l5.59,15.28h-18.61Z" style="fill:#0094a2;"/><path d="M617.24,39.3h-6.8l4.77-4.77-1.39-3.25h-6.73l4.72-4.72-1.41-3.3h-6.66l4.67-4.67-2.8-6.55h-15.03l-26.3,61.14h15.11l4.63-11.18h27.61l4.63,11.18h15.46l-14.48-33.89ZM588.48,50.04l5.59-14.94c1.92-5.33,3.06-8.21,3.67-10.13h.26c.52,1.74,1.57,4.72,3.49,9.78l5.59,15.28h-18.61Z" style="fill:#0094a2;"/><path d="M538.94,41.92l25.95-29.87h-17.47l-12.84,15.02c-3.23,4.02-6.12,7.6-7.78,10.04l-.35-.09c.35-3.14.7-7.95.7-12.49v-12.49h-14.15v2.7l4.32,2.77-4.32,2.77v4.64l4.32,2.77-4.32,2.77v4.64l4.32,2.77-4.32,2.77v4.64l4.32,2.77-4.32,2.77v4.64l4.32,2.77-4.32,2.77v4.64l4.32,2.77-4.32,2.77v2.05h14.15v-13.19c0-4.54-.35-9.35-.7-12.4l.35-.18c1.57,2.53,4.28,6.03,7.43,9.7l14.5,16.07h18.61l-28.39-31.27Z" style="fill:#0094a2;"/><polygon points="414.94 12.04 414.94 45.26 419.26 48.03 414.94 50.79 414.94 55.43 419.26 58.2 414.94 60.96 414.94 65.6 419.26 68.37 414.94 71.14 414.94 73.18 429.27 73.18 429.27 12.04 414.94 12.04" style="fill:#0094a2;"/><polygon points="439.55 12.04 439.55 73.18 453.87 73.18 453.87 48.08 480.35 48.08 480.35 38.72 480.35 37.89 480.35 33.12 472.72 38.72 472.66 38.72 472.66 31.9 463.38 38.72 463.32 38.72 463.32 31.9 454.03 38.72 453.87 38.72 453.87 21.58 454.03 21.58 463.32 28.4 463.32 21.58 463.38 21.58 472.66 28.4 472.66 21.58 472.72 21.58 482 28.4 482 22.42 482 21.58 482 21.54 482 12.04 439.55 12.04" style="fill:#0094a2;"/><path d="M272.66,12.04h-26.91v2.7l4.32,2.77-4.32,2.77v4.64l4.32,2.77-4.32,2.77v4.64l4.32,2.77-4.32,2.77v4.64l4.32,2.77-4.32,2.77v4.64l4.32,2.77-4.32,2.77v4.64l4.32,2.77-4.32,2.77v2.05h14.33v-17.29h12.58c14.94,0,23.33-9.17,23.33-22.1s-8.39-21.75-23.33-21.75M272.92,43.3v-9.41l-9.41,9.41v-18.83l9.41,9.41v-9.41l9.41,9.41-9.41,9.41Z" style="fill:#0094a2;"/><polygon points="504.73 59.77 497.57 59.77 504.73 66.99 504.73 59.77" style="fill:#0094a2;"/><polygon points="504.73 73.69 504.73 67 497.57 67 504.21 73.69 504.73 73.69" style="fill:#0094a2;"/><polygon points="497.57 67 490.41 67 497.57 59.77 490.41 59.77 497.57 52.55 504.73 59.76 504.73 12.04 490.4 12.04 490.4 73.69 490.93 73.69 497.57 67" style="fill:#0094a2;"/><path d="M347.47,142.11l5.71-11.33c6.15,3.95,12.65,6.15,18.71,6.15,6.94,0,11.24-2.55,11.24-7.38,0-3.95-2.63-6.5-11.24-7.55-15.46-1.76-22.66-7.46-22.66-17.74,0-11.59,9.66-19.14,23.72-19.14,7.99,0,14.32,1.41,21.87,5.45l-5.18,10.89c-5.71-3.07-11.24-4.48-16.16-4.48-6.33,0-10.19,2.54-10.19,6.67s3.43,5.62,11.33,6.67c15.55,2.11,22.75,8.61,22.75,19.14,0,12.03-10.1,19.93-25.3,19.93-9.05,0-17.3-2.28-24.59-7.29" style="fill:#ff0d2a;"/><path d="M474.75,86.53h15.63l10.19,26.61c2.9,7.73,5.45,16.07,6.24,19.58h.35c.79-3.51,2.72-10.62,6.15-19.67l10.19-26.52h15.28l-24.77,61.47h-14.49l-24.77-61.47Z" style="fill:#ff0d2a;"/><path d="M644.81,142.11l5.71-11.33c6.15,3.95,12.65,6.15,18.71,6.15,6.94,0,11.24-2.55,11.24-7.38,0-3.95-2.63-6.5-11.24-7.55-15.46-1.76-22.66-7.46-22.66-17.74,0-11.59,9.66-19.14,23.72-19.14,7.99,0,14.32,1.41,21.87,5.45l-5.18,10.89c-5.71-3.07-11.24-4.48-16.16-4.48-6.33,0-10.19,2.54-10.19,6.67s3.43,5.62,11.33,6.67c15.55,2.11,22.75,8.61,22.75,19.14,0,12.03-10.1,19.93-25.3,19.93-9.05,0-17.3-2.28-24.59-7.29" style="fill:#ff0d2a;"/><path d="M577.8,114.11h-6.86l4.81-4.81-1.37-3.21h-6.79l4.76-4.76-1.39-3.26h-6.72l4.71-4.71-2.92-6.83h-15.11l-26.44,61.47h15.2l4.66-11.24h27.76l4.65,11.24h15.55l-14.48-33.89ZM548.8,124.72l5.62-15.01c1.93-5.36,3.07-8.26,3.69-10.19h.26c.53,1.76,1.58,4.74,3.51,9.83l5.62,15.37h-18.71Z" style="fill:#ff0d2a;"/><polygon points="311.02 135.88 311.02 122.62 339.56 122.62 339.56 111.03 311.02 111.03 311.02 96.62 341.23 96.62 341.23 86.53 297.05 86.53 297.05 89.06 301.38 91.83 297.05 94.6 297.05 99.24 301.38 102 297.05 104.77 297.05 109.41 301.38 112.17 297.05 114.94 297.05 119.58 301.38 122.35 297.05 125.11 297.05 129.75 301.38 132.52 297.05 135.28 297.05 139.92 301.38 142.69 297.05 145.46 297.05 147.99 342.2 147.99 342.2 135.88 311.02 135.88" style="fill:#ff0d2a;"/><polygon points="611.61 135.61 611.61 86.53 597.2 86.53 597.2 89.06 601.53 91.83 597.2 94.6 597.2 99.24 601.53 102 597.2 104.77 597.2 109.41 601.53 112.17 597.2 114.94 597.2 119.58 601.53 122.35 597.2 125.11 597.2 129.75 601.53 132.52 597.2 135.28 597.2 139.92 601.53 142.69 597.2 145.46 597.2 147.99 642.26 147.99 642.26 135.61 611.61 135.61" style="fill:#ff0d2a;"/><polygon points="398.24 86.53 398.24 98.64 416.78 98.64 416.78 116.31 420.96 118.99 416.78 121.67 416.78 126.48 420.96 129.16 416.78 131.84 416.78 136.65 420.96 139.33 416.78 142.01 416.78 147.99 431.1 147.99 431.1 98.64 449.8 98.64 449.8 86.53 398.24 86.53" style="fill:#ff0d2a;"/><polygon points="245.87 86.69 245.87 147.83 260.19 147.83 260.19 122.73 286.67 122.73 286.67 113.37 286.67 112.53 286.67 107.77 279.04 113.37 278.98 113.37 278.98 106.55 269.7 113.37 269.64 113.37 269.64 106.55 260.35 113.37 260.19 113.37 260.19 96.23 260.35 96.23 269.64 103.05 269.64 96.23 269.7 96.23 278.98 103.05 278.98 96.23 279.04 96.23 288.32 103.05 288.32 97.06 288.32 96.23 288.32 96.18 288.32 86.69 245.87 86.69" style="fill:#ff0d2a;"/><polygon points="470.06 134.15 462.9 134.15 470.06 141.31 470.06 134.15" style="fill:#f7192e;"/><polygon points="470.06 147.96 470.06 141.32 462.9 141.32 469.54 147.96 470.06 147.96" style="fill:#f7192e;"/><polygon points="462.9 141.32 455.74 141.32 462.9 134.15 455.74 134.15 462.9 126.99 470.06 134.14 470.06 86.82 455.73 86.82 455.73 147.96 456.27 147.96 462.9 141.32" style="fill:#f7192e;"/><path d="M296.59,190.58h-6.8l4.77-4.77-1.39-3.25h-6.73l4.72-4.72-1.41-3.3h-6.66l4.67-4.67-2.8-6.55h-15.03l-26.3,61.14h15.11l4.63-11.18h27.61l4.63,11.18h15.46l-14.48-33.89ZM267.82,201.32l5.59-14.94c1.92-5.33,3.06-8.21,3.67-10.13h.26c.52,1.74,1.57,4.72,3.49,9.78l5.59,15.28h-18.61Z" style="fill:#ffae00;"/><path d="M533.26,190.58h-6.8l4.77-4.77-1.39-3.25h-6.73l4.72-4.72-1.41-3.3h-6.66l4.67-4.67-2.8-6.55h-15.03l-26.3,61.14h15.11l4.63-11.18h27.61l4.63,11.18h15.46l-14.48-33.89ZM504.49,201.32l5.59-14.94c1.92-5.33,3.06-8.21,3.67-10.13h.26c.52,1.74,1.57,4.72,3.49,9.78l5.59,15.28h-18.61Z" style="fill:#ffae00;"/><path d="M724.04,190.58h-6.8l4.77-4.77-1.39-3.25h-6.73l4.72-4.72-1.41-3.3h-6.66l4.67-4.67-2.8-6.55h-15.03l-26.3,61.14h15.11l4.63-11.18h27.61l4.63,11.18h15.46l-14.48-33.89ZM695.28,201.32l5.59-14.94c1.92-5.33,3.06-8.21,3.67-10.13h.26c.52,1.74,1.57,4.72,3.49,9.78l5.59,15.28h-18.61Z" style="fill:#ffae00;"/><polygon points="445.27 212.51 445.27 199.25 473.81 199.25 473.81 187.66 445.27 187.66 445.27 173.25 475.48 173.25 475.48 163.16 431.3 163.16 431.3 165.7 435.62 168.47 431.3 171.23 431.3 175.87 435.62 178.64 431.3 181.41 431.3 186.05 435.62 188.81 431.3 191.58 431.3 196.22 435.62 198.98 431.3 201.75 431.3 206.39 435.62 209.16 431.3 211.92 431.3 216.56 435.62 219.33 431.3 222.09 431.3 224.63 476.45 224.63 476.45 212.51 445.27 212.51" style="fill:#ffae00;"/><polygon points="375.12 163.16 375.12 175.28 393.65 175.28 393.65 192.95 397.84 195.63 393.65 198.3 393.65 203.12 397.84 205.8 393.65 208.47 393.65 213.29 397.84 215.97 393.65 218.65 393.65 224.63 407.97 224.63 407.97 175.28 426.68 175.28 426.68 163.16 375.12 163.16" style="fill:#ffae00;"/><path d="M573.88,204.32h-8.18v20.23h-14.12v-61.3h29.37c13.18,0,21.7,8.41,21.7,20.75,0,9.37-4.91,16.29-13.69,19.09l17.05,21.46h-16.79l-15.33-20.23ZM579.31,175.51h-13.69v17.25h13.69c6.03,0,9.39-3.06,9.39-8.58s-3.36-8.67-9.39-8.67" style="fill:#ffae00;"/><polygon points="562.8 221.82 554.61 221.82 554.61 198.16 555.97 218.04 557.34 200.95 558.7 218.04 560.07 200.95 561.44 218.04 562.8 198.16 562.8 221.82" style="fill:#ffae00;"/><path d="M645.65,162.13l-5.58,5.57-5.59-5.59c-16.47,2.18-26.93,14.23-26.93,31.78s10.45,29.59,26.93,31.78l5.59-5.59,5.58,5.57c16.43-2.21,26.85-14.25,26.85-31.77s-10.42-29.56-26.85-31.77M640.03,213.25c-11.02,0-18.26-7.71-18.26-19.35s7.23-19.35,18.26-19.35,18.34,7.71,18.34,19.35-7.32,19.35-18.34,19.35" style="fill:#ffae00;"/><path d="M369.03,193.9l5.31-5.31c-2.14-16.41-14.34-26.83-32.13-26.83s-29.99,10.42-32.13,26.83l5.3,5.31-5.3,5.31c2.14,16.41,14.34,26.83,32.13,26.83s29.99-10.42,32.13-26.83l-5.31-5.31ZM342.2,213.25c-11.02,0-18.26-7.71-18.26-19.35s7.23-19.35,18.26-19.35,18.34,7.71,18.34,19.35-7.32,19.35-18.34,19.35" style="fill:#ffae00;"/><polygon points="351.76 203.42 351.76 193.9 342.24 193.9 351.76 203.42" style="fill:#ffae00;"/><polygon points="332.72 203.42 342.24 203.42 342.24 193.9 332.72 203.42" style="fill:#ffae00;"/><polygon points="332.72 184.38 332.72 193.9 342.24 193.9 332.72 184.38" style="fill:#ffae00;"/><polygon points="351.76 184.38 342.24 184.38 342.24 193.9 351.76 184.38" style="fill:#ffae00;"/><polygon points="649.55 203.42 649.55 193.9 640.03 193.9 649.55 203.42" style="fill:#ffae00;"/><polygon points="630.51 203.42 640.03 203.42 640.03 193.9 630.51 203.42" style="fill:#ffae00;"/><polygon points="630.51 184.38 630.51 193.9 640.03 193.9 630.51 184.38" style="fill:#ffae00;"/><polygon points="649.55 184.38 640.03 184.38 640.03 193.9 649.55 184.38" style="fill:#ffae00;"/></svg>