<?xml version="1.0" encoding="UTF-8"?><svg id="Layer_1" xmlns="http://www.w3.org/2000/svg" viewBox="0 0 1920 1080"><polygon points="27.55 405.11 123.98 429.21 123.98 381 27.55 405.11" style="fill:#f9f3ea;"/><polygon points="27.55 356.89 123.98 381 123.98 332.79 27.55 356.89" style="fill:#f9f3ea;"/><polygon points="27.55 217.42 43.62 55.41 59.69 194.68 75.77 55.41 91.84 194.68 107.91 55.41 123.98 217.42 123.98 24.58 27.55 24.58 27.55 217.42" style="fill:#f9f3ea;"/><polygon points="27.55 323.32 75.76 323.32 75.77 275.11 27.55 323.32" style="fill:#f9f3ea;"/><polygon points="27.55 226.89 27.55 275.1 75.76 275.11 27.55 226.89" style="fill:#f9f3ea;"/><polygon points="123.98 226.89 75.77 226.89 75.76 275.1 123.98 226.89" style="fill:#f9f3ea;"/><polygon points="123.98 323.32 123.98 275.11 75.77 275.1 123.98 323.32" style="fill:#f9f3ea;"/><path d="M399.07,381c-26.63,0-48.21,21.59-48.21,48.21h48.21v-48.21Z" style="fill:#f9f3ea;"/><path d="M399.07,381c0-26.63-21.58-48.21-48.21-48.21v48.21h48.21Z" style="fill:#f9f3ea;"/><path d="M399.07,381c26.63,0,48.21-21.59,48.21-48.21h-48.21v48.21Z" style="fill:#f9f3ea;"/><path d="M399.07,381c0,26.63,21.58,48.21,48.21,48.21v-48.21h-48.21Z" style="fill:#f9f3ea;"/><polygon points="447.28 217.42 399.07 169.21 350.85 217.42 447.28 217.42" style="fill:#f9f3ea;"/><polygon points="399.07 169.21 447.28 169.21 399.07 121 350.85 169.21 399.07 169.21" style="fill:#f9f3ea;"/><polygon points="399.07 121 447.28 121 399.07 72.79 350.86 121 399.07 121" style="fill:#f9f3ea;"/><polygon points="399.07 24.58 350.85 72.79 399.07 72.79 447.28 72.79 399.07 24.58" style="fill:#f9f3ea;"/><path d="M390.87,258.66c-2.96-4.36-6.55-8.72-10.7-12.87-9.48-9.48-20.03-16.03-29.31-18.9,2.87,9.28,9.42,19.84,18.9,29.31,4.15,4.15,8.51,7.74,12.87,10.7-12.31,1.38-23.26,4.27-31.77,8.19,8.51,3.93,19.46,6.82,31.77,8.2-4.36,2.96-8.72,6.55-12.87,10.71-9.48,9.48-16.03,20.03-18.9,29.31,9.28-2.87,19.83-9.42,29.31-18.9,4.15-4.15,7.74-8.51,10.7-12.87,1.38,12.31,4.27,23.26,8.19,31.77,3.93-8.51,6.82-19.46,8.2-31.77,2.96,4.36,6.55,8.72,10.7,12.87,9.48,9.48,20.03,16.03,29.31,18.9-2.87-9.28-9.42-19.83-18.9-29.31-4.15-4.15-8.51-7.74-12.87-10.71,12.31-1.38,23.26-4.27,31.77-8.2-8.51-3.93-19.46-6.82-31.77-8.19,4.36-2.96,8.72-6.55,12.87-10.7,9.48-9.48,16.03-20.03,18.9-29.31-9.28,2.87-19.83,9.42-29.31,18.9-4.15,4.15-7.74,8.51-10.7,12.87-1.38-12.31-4.27-23.26-8.19-31.77-3.93,8.51-6.82,19.46-8.2,31.77" style="fill:#f9f3ea;"/><polygon points="229.87 130.5 181.66 130.5 181.66 178.71 229.87 130.5" style="fill:#f9f3ea;"/><polygon points="229.87 178.71 181.66 178.71 181.66 226.92 229.87 178.71" style="fill:#f9f3ea;"/><polygon points="181.66 130.5 133.45 130.5 133.45 178.71 181.66 130.5" style="fill:#f9f3ea;"/><polygon points="181.66 178.71 133.45 178.71 133.45 226.92 181.66 178.71" style="fill:#f9f3ea;"/><polygon points="133.45 342.29 133.45 390.5 229.87 366.39 133.45 342.29" style="fill:#f9f3ea;"/><polygon points="133.45 390.5 133.45 438.71 229.87 414.61 133.45 390.5" style="fill:#f9f3ea;"/><polygon points="133.45 438.71 133.45 486.92 229.87 462.82 133.45 438.71" style="fill:#f9f3ea;"/><polygon points="229.87 511.03 133.45 486.92 133.45 535.13 229.87 511.03" style="fill:#f9f3ea;"/><path d="M181.66,330.02l8.72,2.5c2.74.79,5.7,0,7.68-2.06l6.3-6.53,8.81-2.2c2.77-.69,4.93-2.85,5.62-5.62l2.2-8.8,6.53-6.3c2.05-1.98,2.84-4.93,2.06-7.68l-2.5-8.72,2.5-8.72c.79-2.74,0-5.7-2.06-7.68l-6.53-6.3-2.2-8.81c-.69-2.77-2.85-4.93-5.62-5.62l-8.81-2.2-6.3-6.53c-1.98-2.05-4.93-2.84-7.68-2.06l-8.72,2.5-8.72-2.5c-2.74-.79-5.7,0-7.68,2.06l-6.3,6.53-8.81,2.2c-2.77.69-4.93,2.85-5.62,5.62l-2.2,8.81-6.53,6.3c-2.05,1.98-2.84,4.93-2.06,7.68l2.5,8.72-2.5,8.72c-.79,2.74,0,5.7,2.06,7.68l6.53,6.3,2.2,8.81c.69,2.77,2.85,4.93,5.62,5.62l8.81,2.2,6.3,6.53c1.98,2.05,4.93,2.84,7.68,2.06l8.72-2.5Z" style="fill:#f9f3ea;"/><path d="M287.53,182.49s.02,0,.03,0,.02,0,.03,0c.29,10.44,5.02,21.61,13.91,30.5,9.94,9.94,22.75,14.7,34.18,13.83.86-11.43-3.89-24.24-13.83-34.18-8.89-8.89-20.06-13.61-30.5-13.91,0,0,0-.02,0-.03,0,0,0-.02,0-.03,10.44-.29,21.61-5.02,30.5-13.9,9.94-9.94,14.7-22.75,13.83-34.18-11.43-.86-24.24,3.89-34.18,13.84-8.89,8.89-13.62,20.06-13.91,30.5,0,0-.02,0-.03,0s-.02,0-.03,0c-.29-10.44-5.02-21.61-13.91-30.5-9.94-9.94-22.75-14.7-34.18-13.84-.86,11.43,3.89,24.24,13.83,34.18,8.89,8.89,20.06,13.62,30.5,13.91,0,.01,0,.02,0,.03,0,.01,0,.02,0,.03-10.44.29-21.61,5.02-30.5,13.91-9.94,9.94-14.7,22.75-13.83,34.18,11.43.86,24.24-3.89,34.18-13.83,8.89-8.89,13.62-20.06,13.91-30.5" style="fill:#f9f3ea;"/><path d="M289.29,534.43l12.77-12.49,17.86-.19c1.35-.02,2.44-1.1,2.45-2.45l.19-17.86,12.49-12.77c.94-.96.94-2.5,0-3.47l-12.49-12.77-.19-17.86c-.01-1.35-1.1-2.44-2.45-2.45l-17.86-.19-12.77-12.5c-.96-.94-2.5-.94-3.47,0l-12.77,12.5-17.86.19c-1.35.01-2.44,1.1-2.45,2.45l-.19,17.86-12.5,12.77c-.94.96-.94,2.5,0,3.47l12.5,12.77.19,17.86c.01,1.35,1.1,2.44,2.45,2.45l17.86.19,12.77,12.49c.96.94,2.5.94,3.47,0" style="fill:#f9f3ea;"/><polygon points="239.34 96.89 335.77 121 335.77 72.79 239.34 96.89" style="fill:#f9f3ea;"/><polygon points="239.34 48.68 335.77 72.79 335.77 24.58 239.34 48.68" style="fill:#f9f3ea;"/><path d="M74.03,439.42l-12.77,12.49-17.86.19c-1.35.02-2.44,1.1-2.45,2.45l-.19,17.86-12.49,12.77c-.94.96-.94,2.5,0,3.47l12.49,12.77.19,17.86c.01,1.35,1.1,2.44,2.45,2.45l17.86.19,12.77,12.49c.96.94,2.5.94,3.47,0l12.77-12.49,17.86-.19c1.35-.02,2.44-1.1,2.45-2.45l.19-17.86,12.49-12.77c.94-.96.94-2.5,0-3.47l-12.49-12.77-.19-17.86c-.01-1.35-1.1-2.44-2.45-2.45l-17.86-.19-12.77-12.49c-.96-.94-2.5-.94-3.47,0" style="fill:#f9f3ea;"/><path d="M189.85,89.23c2.96,4.37,6.55,8.72,10.71,12.87,9.48,9.48,20.03,16.03,29.31,18.9-2.87-9.28-9.42-19.84-18.9-29.31-4.15-4.15-8.51-7.74-12.87-10.7,12.31-1.38,23.26-4.27,31.77-8.19-8.51-3.93-19.46-6.82-31.77-8.2,4.37-2.96,8.72-6.55,12.87-10.7,9.48-9.48,16.03-20.03,18.9-29.31-9.28,2.87-19.84,9.42-29.31,18.9-4.15,4.15-7.74,8.51-10.71,12.87-1.38-12.31-4.27-23.26-8.19-31.77-3.93,8.51-6.82,19.46-8.19,31.77-2.97-4.36-6.56-8.72-10.71-12.87-9.48-9.48-20.03-16.03-29.31-18.9,2.87,9.28,9.42,19.83,18.9,29.31,4.15,4.15,8.51,7.74,12.87,10.7-12.31,1.38-23.26,4.27-31.77,8.2,8.51,3.93,19.46,6.82,31.77,8.19-4.37,2.96-8.72,6.55-12.87,10.7-9.48,9.48-16.03,20.03-18.9,29.31,9.28-2.87,19.83-9.42,29.31-18.9,4.15-4.15,7.74-8.51,10.71-12.87,1.38,12.31,4.27,23.26,8.19,31.77,3.93-8.51,6.82-19.46,8.19-31.77" style="fill:#f9f3ea;"/><path d="M444.48,486.92l2.5-8.72c.79-2.74,0-5.7-2.06-7.68l-6.53-6.3-2.2-8.81c-.69-2.77-2.85-4.93-5.62-5.62l-8.8-2.2-6.3-6.53c-1.98-2.05-4.93-2.84-7.68-2.06l-8.72,2.5-8.72-2.5c-2.74-.79-5.7,0-7.68,2.06l-6.3,6.53-8.81,2.2c-2.77.69-4.93,2.85-5.62,5.62l-2.2,8.81-6.53,6.3c-2.05,1.98-2.84,4.93-2.06,7.68l2.5,8.72-2.5,8.72c-.79,2.74,0,5.7,2.06,7.68l6.53,6.3,2.2,8.8c.69,2.77,2.85,4.93,5.62,5.62l8.81,2.2,6.3,6.53c1.98,2.05,4.93,2.84,7.68,2.06l8.72-2.5,8.72,2.5c2.74.79,5.7,0,7.68-2.06l6.3-6.53,8.81-2.2c2.77-.69,4.93-2.85,5.62-5.62l2.2-8.8,6.53-6.3c2.05-1.98,2.84-4.93,2.06-7.68l-2.5-8.72ZM382.55,489.57l-3.86-1.66c-.87-.37-.87-1.6,0-1.98l3.86-1.66c.27-.12.58-.12.85,0l3.86,1.66c.87.37.87,1.6,0,1.98l-3.86,1.66c-.27.12-.58.12-.85,0M392.06,495.33l-1.55,3.9c-.11.27-.33.49-.6.6l-3.9,1.55c-.88.35-1.75-.52-1.4-1.4l1.55-3.9c.11-.27.33-.49.6-.6l3.9-1.55c.88-.35,1.75.52,1.4,1.4M390.66,479.92l-3.9-1.55c-.27-.11-.49-.33-.6-.6l-1.55-3.9c-.35-.88.52-1.75,1.4-1.4l3.9,1.55c.27.11.49.33.6.6l1.55,3.9c.35.88-.52,1.75-1.4,1.4M401.72,503.44l-1.66,3.86c-.37.87-1.6.87-1.98,0l-1.66-3.86c-.12-.27-.12-.58,0-.85l1.66-3.86c.37-.87,1.6-.87,1.98,0l1.66,3.86c.12.27.12.58,0,.85M401.72,471.26l-1.66,3.86c-.37.87-1.6.87-1.98,0l-1.66-3.86c-.12-.27-.12-.58,0-.85l1.66-3.86c.37-.87,1.6-.87,1.98,0l1.66,3.86c.12.27.12.58,0,.85M406.07,478.52l1.55-3.9c.11-.28.33-.49.6-.6l3.9-1.55c.88-.35,1.75.52,1.4,1.4l-1.55,3.9c-.11.28-.33.49-.6.6l-3.9,1.55c-.88.35-1.75-.52-1.4-1.4M412.82,501.39l-3.9-1.55c-.27-.11-.49-.33-.6-.6l-1.55-3.9c-.35-.88.52-1.75,1.4-1.4l3.9,1.55c.27.11.49.33.6.6l1.55,3.9c.35.88-.52,1.75-1.4,1.4M419.44,487.91l-3.86,1.66c-.27.12-.58.12-.85,0l-3.86-1.66c-.87-.37-.87-1.6,0-1.98l3.86-1.66c.27-.12.58-.12.85,0l3.86,1.66c.87.37.87,1.6,0,1.98" style="fill:#f9f3ea;"/><polygon points="261.63 310.53 313.48 310.53 287.56 284.6 261.63 310.53" style="fill:#f9f3ea;"/><polygon points="313.48 258.68 261.63 258.68 287.56 284.6 313.48 258.68" style="fill:#f9f3ea;"/><polygon points="261.63 258.68 239.34 236.39 239.34 236.68 239.34 332.53 239.34 332.82 261.63 310.53 261.63 258.68" style="fill:#f9f3ea;"/><polygon points="313.48 258.68 313.48 258.68 313.48 310.53 335.77 332.82 335.77 332.53 335.77 236.68 335.77 236.39 313.48 258.68" style="fill:#f9f3ea;"/><polygon points="261.63 355.11 261.63 406.95 287.56 381.03 261.63 355.11" style="fill:#f9f3ea;"/><polygon points="313.48 406.95 313.48 355.11 287.56 381.03 313.48 406.95" style="fill:#f9f3ea;"/><polygon points="313.48 355.11 335.77 332.82 335.48 332.82 239.63 332.82 239.34 332.82 261.63 355.11 313.48 355.11" style="fill:#f9f3ea;"/><polygon points="313.48 406.95 261.63 406.95 239.34 429.24 239.63 429.24 335.48 429.24 335.77 429.24 313.48 406.95" style="fill:#f9f3ea;"/><polygon points="27.55 925.4 123.98 949.5 123.98 901.29 27.55 925.4" style="fill:#f9f3ea;"/><polygon points="27.55 877.18 123.98 901.29 123.98 853.08 27.55 877.18" style="fill:#f9f3ea;"/><polygon points="27.55 737.71 43.62 575.7 59.69 714.97 75.77 575.7 91.84 714.97 107.91 575.7 123.98 737.71 123.98 544.87 27.55 544.87 27.55 737.71" style="fill:#f9f3ea;"/><polygon points="27.55 843.61 75.76 843.61 75.77 795.4 27.55 843.61" style="fill:#f9f3ea;"/><polygon points="27.55 747.18 27.55 795.39 75.76 795.4 27.55 747.18" style="fill:#f9f3ea;"/><polygon points="123.98 747.18 75.77 747.18 75.76 795.39 123.98 747.18" style="fill:#f9f3ea;"/><polygon points="123.98 843.61 123.98 795.4 75.77 795.39 123.98 843.61" style="fill:#f9f3ea;"/><path d="M399.07,901.29c-26.63,0-48.21,21.59-48.21,48.21h48.21v-48.21Z" style="fill:#f9f3ea;"/><path d="M399.07,901.29c0-26.63-21.58-48.21-48.21-48.21v48.21h48.21Z" style="fill:#f9f3ea;"/><path d="M399.07,901.29c26.63,0,48.21-21.59,48.21-48.21h-48.21v48.21Z" style="fill:#f9f3ea;"/><path d="M399.07,901.29c0,26.63,21.58,48.21,48.21,48.21v-48.21h-48.21Z" style="fill:#f9f3ea;"/><polygon points="447.28 737.71 399.07 689.5 350.85 737.71 447.28 737.71" style="fill:#f9f3ea;"/><polygon points="399.07 689.5 447.28 689.5 399.07 641.29 350.85 689.5 399.07 689.5" style="fill:#f9f3ea;"/><polygon points="399.07 641.29 447.28 641.29 399.07 593.08 350.86 641.29 399.07 641.29" style="fill:#f9f3ea;"/><polygon points="399.07 544.87 350.85 593.08 399.07 593.08 447.28 593.08 399.07 544.87" style="fill:#f9f3ea;"/><path d="M390.87,778.96c-2.96-4.37-6.55-8.72-10.7-12.87-9.48-9.48-20.03-16.03-29.31-18.9,2.87,9.28,9.42,19.83,18.9,29.31,4.15,4.15,8.51,7.74,12.87,10.71-12.31,1.38-23.26,4.27-31.77,8.19,8.51,3.93,19.46,6.82,31.77,8.2-4.36,2.96-8.72,6.55-12.87,10.7-9.48,9.48-16.03,20.03-18.9,29.31,9.28-2.87,19.83-9.42,29.31-18.9,4.15-4.15,7.74-8.51,10.7-12.87,1.38,12.31,4.27,23.26,8.19,31.77,3.93-8.51,6.82-19.46,8.2-31.77,2.96,4.36,6.55,8.72,10.7,12.87,9.48,9.48,20.03,16.03,29.31,18.9-2.87-9.28-9.42-19.83-18.9-29.31-4.15-4.15-8.51-7.74-12.87-10.7,12.31-1.38,23.26-4.27,31.77-8.2-8.51-3.93-19.46-6.82-31.77-8.19,4.36-2.96,8.72-6.55,12.87-10.71,9.48-9.48,16.03-20.03,18.9-29.31-9.28,2.87-19.83,9.42-29.31,18.9-4.15,4.15-7.74,8.51-10.7,12.87-1.38-12.31-4.27-23.26-8.19-31.77-3.93,8.51-6.82,19.46-8.2,31.77" style="fill:#f9f3ea;"/><polygon points="229.87 650.79 181.66 650.79 181.66 699 229.87 650.79" style="fill:#f9f3ea;"/><polygon points="229.87 699 181.66 699 181.66 747.21 229.87 699" style="fill:#f9f3ea;"/><polygon points="181.66 650.79 133.45 650.79 133.45 699 181.66 650.79" style="fill:#f9f3ea;"/><polygon points="181.66 699 133.45 699 133.45 747.21 181.66 699" style="fill:#f9f3ea;"/><polygon points="133.45 862.58 133.45 910.79 229.87 886.68 133.45 862.58" style="fill:#f9f3ea;"/><polygon points="133.45 910.79 133.45 959 229.87 934.9 133.45 910.79" style="fill:#f9f3ea;"/><polygon points="133.45 959 133.45 1007.21 229.87 983.11 133.45 959" style="fill:#f9f3ea;"/><polygon points="229.87 1031.32 133.45 1007.21 133.45 1055.42 229.87 1031.32" style="fill:#f9f3ea;"/><path d="M181.66,850.31l8.72,2.5c2.74.79,5.7,0,7.68-2.06l6.3-6.53,8.81-2.2c2.77-.69,4.93-2.85,5.62-5.62l2.2-8.81,6.53-6.31c2.05-1.98,2.84-4.93,2.06-7.68l-2.5-8.72,2.5-8.72c.79-2.74,0-5.7-2.06-7.68l-6.53-6.3-2.2-8.81c-.69-2.77-2.85-4.93-5.62-5.62l-8.81-2.2-6.3-6.53c-1.98-2.05-4.93-2.84-7.68-2.06l-8.72,2.5-8.72-2.5c-2.74-.79-5.7,0-7.68,2.06l-6.3,6.53-8.81,2.2c-2.77.69-4.93,2.85-5.62,5.62l-2.2,8.81-6.53,6.3c-2.05,1.98-2.84,4.94-2.06,7.68l2.5,8.72-2.5,8.72c-.79,2.74,0,5.7,2.06,7.68l6.53,6.31,2.2,8.81c.69,2.77,2.85,4.93,5.62,5.62l8.81,2.2,6.3,6.53c1.98,2.05,4.93,2.84,7.68,2.06l8.72-2.5Z" style="fill:#f9f3ea;"/><path d="M287.53,702.78s.02,0,.03,0,.02,0,.03,0c.29,10.44,5.02,21.61,13.91,30.5,9.94,9.94,22.75,14.7,34.18,13.83.86-11.43-3.89-24.24-13.83-34.18-8.89-8.89-20.06-13.61-30.5-13.91,0,0,0-.02,0-.03,0,0,0-.02,0-.03,10.44-.29,21.61-5.02,30.5-13.9,9.94-9.94,14.7-22.75,13.83-34.18-11.43-.86-24.24,3.89-34.18,13.83-8.89,8.89-13.62,20.06-13.91,30.5,0,0-.02,0-.03,0s-.02,0-.03,0c-.29-10.44-5.02-21.61-13.91-30.5-9.94-9.94-22.75-14.7-34.18-13.83-.86,11.43,3.89,24.24,13.83,34.18,8.89,8.89,20.06,13.62,30.5,13.91,0,0,0,.02,0,.03,0,.01,0,.02,0,.03-10.44.29-21.61,5.02-30.5,13.91-9.94,9.94-14.7,22.75-13.83,34.18,11.43.86,24.24-3.89,34.18-13.83,8.89-8.89,13.62-20.06,13.91-30.5" style="fill:#f9f3ea;"/><path d="M289.29,1054.72l12.77-12.5,17.86-.19c1.35-.02,2.44-1.1,2.45-2.45l.19-17.86,12.49-12.77c.94-.96.94-2.5,0-3.47l-12.49-12.77-.19-17.86c-.01-1.35-1.1-2.44-2.45-2.45l-17.86-.19-12.77-12.5c-.96-.94-2.5-.94-3.47,0l-12.77,12.5-17.86.19c-1.35.01-2.44,1.1-2.45,2.45l-.19,17.86-12.5,12.77c-.94.96-.94,2.5,0,3.47l12.5,12.77.19,17.86c.01,1.35,1.1,2.44,2.45,2.45l17.86.19,12.77,12.5c.96.94,2.5.94,3.47,0" style="fill:#f9f3ea;"/><polygon points="239.34 617.18 335.77 641.29 335.77 593.08 239.34 617.18" style="fill:#f9f3ea;"/><polygon points="239.34 568.97 335.77 593.08 335.77 544.87 239.34 568.97" style="fill:#f9f3ea;"/><path d="M74.03,959.71l-12.77,12.5-17.86.19c-1.35.01-2.44,1.1-2.45,2.45l-.19,17.86-12.49,12.77c-.94.96-.94,2.5,0,3.47l12.49,12.77.19,17.86c.01,1.35,1.1,2.44,2.45,2.45l17.86.19,12.77,12.5c.96.94,2.5.94,3.47,0l12.77-12.5,17.86-.19c1.35-.01,2.44-1.1,2.45-2.45l.19-17.86,12.49-12.77c.94-.96.94-2.5,0-3.47l-12.49-12.77-.19-17.86c-.01-1.35-1.1-2.44-2.45-2.45l-17.86-.19-12.77-12.5c-.96-.94-2.5-.94-3.47,0" style="fill:#f9f3ea;"/><path d="M189.85,609.52c2.96,4.37,6.55,8.72,10.71,12.87,9.48,9.48,20.03,16.03,29.31,18.9-2.87-9.28-9.42-19.83-18.9-29.31-4.15-4.15-8.51-7.74-12.87-10.71,12.31-1.38,23.26-4.27,31.77-8.19-8.51-3.93-19.46-6.82-31.77-8.2,4.37-2.96,8.72-6.55,12.87-10.7,9.48-9.48,16.03-20.03,18.9-29.31-9.28,2.87-19.84,9.42-29.31,18.9-4.15,4.15-7.74,8.51-10.71,12.87-1.38-12.31-4.27-23.26-8.19-31.77-3.93,8.51-6.82,19.46-8.19,31.77-2.97-4.36-6.56-8.72-10.71-12.87-9.48-9.48-20.03-16.03-29.31-18.9,2.87,9.28,9.42,19.84,18.9,29.31,4.15,4.15,8.51,7.74,12.87,10.7-12.31,1.38-23.26,4.27-31.77,8.2,8.51,3.93,19.46,6.82,31.77,8.19-4.37,2.96-8.72,6.55-12.87,10.71-9.48,9.48-16.03,20.03-18.9,29.31,9.28-2.87,19.83-9.42,29.31-18.9,4.15-4.15,7.74-8.51,10.71-12.87,1.38,12.31,4.27,23.26,8.19,31.77,3.93-8.51,6.82-19.46,8.19-31.77" style="fill:#f9f3ea;"/><path d="M444.48,1007.21l2.5-8.72c.79-2.74,0-5.7-2.06-7.68l-6.53-6.3-2.2-8.81c-.69-2.77-2.85-4.93-5.62-5.62l-8.8-2.2-6.3-6.53c-1.98-2.05-4.93-2.84-7.68-2.06l-8.72,2.5-8.72-2.5c-2.74-.79-5.7,0-7.68,2.06l-6.3,6.53-8.81,2.2c-2.77.69-4.93,2.85-5.62,5.62l-2.2,8.81-6.53,6.3c-2.05,1.98-2.84,4.93-2.06,7.68l2.5,8.72-2.5,8.72c-.79,2.74,0,5.69,2.06,7.68l6.53,6.31,2.2,8.81c.69,2.77,2.85,4.93,5.62,5.62l8.81,2.2,6.3,6.53c1.98,2.05,4.93,2.84,7.68,2.06l8.72-2.5,8.72,2.5c2.74.79,5.7,0,7.68-2.06l6.3-6.53,8.81-2.19c2.77-.69,4.93-2.85,5.62-5.62l2.2-8.81,6.53-6.31c2.05-1.98,2.84-4.93,2.06-7.68l-2.5-8.72ZM382.55,1009.86l-3.86-1.66c-.87-.37-.87-1.6,0-1.98l3.86-1.66c.27-.12.58-.12.85,0l3.86,1.66c.87.37.87,1.6,0,1.98l-3.86,1.66c-.27.12-.58.12-.85,0M392.06,1015.62l-1.55,3.9c-.11.28-.33.49-.6.6l-3.9,1.55c-.88.35-1.75-.52-1.4-1.4l1.55-3.9c.11-.28.33-.49.6-.6l3.9-1.55c.88-.35,1.75.52,1.4,1.4M390.66,1000.21l-3.9-1.55c-.27-.11-.49-.33-.6-.6l-1.55-3.9c-.35-.88.52-1.75,1.4-1.4l3.9,1.55c.27.11.49.33.6.6l1.55,3.9c.35.88-.52,1.75-1.4,1.4M401.72,1023.73l-1.66,3.86c-.37.87-1.6.87-1.98,0l-1.66-3.86c-.12-.27-.12-.58,0-.85l1.66-3.86c.37-.87,1.6-.87,1.98,0l1.66,3.86c.12.27.12.58,0,.85M401.72,991.55l-1.66,3.86c-.37.87-1.6.87-1.98,0l-1.66-3.86c-.12-.27-.12-.58,0-.85l1.66-3.86c.37-.87,1.6-.87,1.98,0l1.66,3.86c.12.27.12.58,0,.85M406.07,998.81l1.55-3.9c.11-.28.33-.49.6-.6l3.9-1.55c.88-.35,1.75.52,1.4,1.4l-1.55,3.9c-.11.28-.33.49-.6.6l-3.9,1.55c-.88.35-1.75-.52-1.4-1.4M412.82,1021.68l-3.9-1.55c-.27-.11-.49-.33-.6-.6l-1.55-3.9c-.35-.88.52-1.75,1.4-1.4l3.9,1.55c.27.11.49.33.6.6l1.55,3.9c.35.88-.52,1.75-1.4,1.4M419.44,1008.2l-3.86,1.66c-.27.12-.58.12-.85,0l-3.86-1.66c-.87-.37-.87-1.6,0-1.98l3.86-1.66c.27-.12.58-.12.85,0l3.86,1.66c.87.37.87,1.6,0,1.98" style="fill:#f9f3ea;"/><polygon points="261.63 830.82 313.48 830.82 287.56 804.9 261.63 830.82" style="fill:#f9f3ea;"/><polygon points="313.48 778.97 261.63 778.97 287.56 804.9 313.48 778.97" style="fill:#f9f3ea;"/><polygon points="261.63 778.97 239.34 756.68 239.34 756.97 239.34 852.82 239.34 853.11 261.63 830.82 261.63 778.97" style="fill:#f9f3ea;"/><polygon points="313.48 778.97 313.48 778.97 313.48 830.82 335.77 853.11 335.77 852.82 335.77 756.97 335.77 756.68 313.48 778.97" style="fill:#f9f3ea;"/><polygon points="261.63 875.4 261.63 927.24 287.56 901.32 261.63 875.4" style="fill:#f9f3ea;"/><polygon points="313.48 927.24 313.48 875.4 287.56 901.32 313.48 927.24" style="fill:#f9f3ea;"/><polygon points="313.48 875.4 335.77 853.11 335.48 853.11 239.63 853.11 239.34 853.11 261.63 875.4 313.48 875.4" style="fill:#f9f3ea;"/><polygon points="313.48 927.24 261.63 927.24 239.34 949.53 239.63 949.53 335.48 949.53 335.77 949.53 313.48 927.24" style="fill:#f9f3ea;"/></svg>