<svg width="1920" height="194" viewBox="0 0 1920 194" fill="none" xmlns="http://www.w3.org/2000/svg">
<g clip-path="url(#clip0_1460_7700)">
<path d="M333.05 44.7197C333.05 69.3097 352.98 89.2397 377.57 89.2397V44.7197H333.05Z" fill="#F0DFCC"/>
<path d="M333.05 44.7197C308.46 44.7197 288.53 64.6497 288.53 89.2397H333.05V44.7197Z" fill="#F0DFCC"/>
<path d="M333.05 44.7202C333.05 20.1302 313.12 0.200195 288.53 0.200195V44.7202H333.05Z" fill="#F0DFCC"/>
<path d="M333.05 44.7202C357.64 44.7202 377.57 24.7902 377.57 0.200195H333.05V44.7202Z" fill="#F0DFCC"/>
<path d="M182 0.200195L137.48 44.7202L182 89.2402V0.200195Z" fill="#F0DFCC"/>
<path d="M137.48 44.7202V0.200195L92.96 44.7202L137.48 89.2402V44.7202Z" fill="#F0DFCC"/>
<path d="M92.9599 44.7202V0.200195L48.4299 44.7202L92.9599 89.2402V44.7202Z" fill="#F0DFCC"/>
<path d="M3.90991 44.7202L48.4399 89.2402V44.7202V0.200195L3.90991 44.7202Z" fill="#F0DFCC"/>
<path d="M220.08 52.2902C216.05 55.0302 212.03 58.3402 208.19 62.1702C199.44 70.9202 193.38 80.6702 190.74 89.2402C199.31 86.5902 209.06 80.5402 217.81 71.7902C221.64 67.9602 224.96 63.9402 227.7 59.9002C228.97 71.2702 231.64 81.3802 235.27 89.2402C238.9 81.3802 241.56 71.2702 242.84 59.9002C245.58 63.9302 248.89 67.9502 252.73 71.7902C261.48 80.5402 271.23 86.6002 279.8 89.2402C277.15 80.6702 271.1 70.9202 262.35 62.1702C258.52 58.3402 254.49 55.0202 250.46 52.2802C261.83 51.0102 271.94 48.3402 279.8 44.7102C271.94 41.0802 261.83 38.4202 250.46 37.1402C254.49 34.4002 258.51 31.0902 262.35 27.2502C271.1 18.5002 277.15 8.76018 279.8 0.180176C271.23 2.83018 261.48 8.88019 252.73 17.6302C248.9 21.4602 245.58 25.4902 242.84 29.5202C241.57 18.1502 238.9 8.04018 235.27 0.180176C231.64 8.04018 228.98 18.1502 227.7 29.5202C224.96 25.4902 221.65 21.4702 217.81 17.6302C209.06 8.88019 199.31 2.82018 190.74 0.180176C193.39 8.75018 199.44 18.5002 208.19 27.2502C212.02 31.0802 216.04 34.4002 220.08 37.1402C208.71 38.4102 198.6 41.0802 190.74 44.7102C198.6 48.3402 208.71 51.0002 220.08 52.2802" fill="#F0DFCC"/>
<path d="M149.74 147.72C149.74 147.72 149.74 147.7 149.74 147.69C149.74 147.68 149.74 147.67 149.74 147.66C159.38 147.39 169.7 143.03 177.9 134.82C187.08 125.64 191.47 113.82 190.68 103.26C180.12 102.46 168.3 106.85 159.12 116.03C150.91 124.24 146.55 134.56 146.28 144.19C146.28 144.19 146.26 144.19 146.25 144.19C146.24 144.19 146.23 144.19 146.22 144.19C145.95 134.55 141.59 124.23 133.38 116.03C124.2 106.85 112.38 102.46 101.82 103.26C101.02 113.82 105.41 125.64 114.6 134.82C122.81 143.03 133.12 147.39 142.76 147.66C142.76 147.66 142.76 147.68 142.76 147.69C142.76 147.7 142.76 147.71 142.76 147.72C133.12 147.99 122.8 152.35 114.6 160.56C105.42 169.74 101.03 181.56 101.82 192.12C112.38 192.92 124.2 188.53 133.38 179.35C141.59 171.14 145.95 160.83 146.22 151.19C146.22 151.19 146.24 151.19 146.25 151.19C146.26 151.19 146.27 151.19 146.28 151.19C146.55 160.83 150.91 171.14 159.12 179.35C168.3 188.53 180.13 192.92 190.68 192.12C191.47 181.56 187.09 169.74 177.9 160.56C169.69 152.35 159.38 147.99 149.74 147.72Z" fill="#F0DFCC"/>
<path d="M244.04 147.7L267.98 171.64V123.76L244.04 147.7Z" fill="#F0DFCC"/>
<path d="M220.1 123.76V171.64L244.04 147.7L220.1 123.76Z" fill="#F0DFCC"/>
<path d="M288.3 103.18H199.52V192.22H288.56V103.18H288.3ZM267.98 171.64H220.1L199.78 191.96V103.44L220.1 123.76H267.98L288.3 103.44V191.96L267.98 171.64Z" fill="#F0DFCC"/>
<path d="M333.08 147.7L309.14 171.64H357.02L333.08 147.7Z" fill="#F0DFCC"/>
<path d="M357.02 123.76H309.14L333.08 147.7L357.02 123.76Z" fill="#F0DFCC"/>
<path d="M377.6 191.96V103.18H288.56V192.22H377.6V191.96ZM309.14 171.64V123.76L288.82 103.44H377.34L357.02 123.76V171.64L377.34 191.96H288.82L309.14 171.64Z" fill="#F0DFCC"/>
<path d="M474.74 146.1L463.2 134.31L463.02 117.81C463.01 116.57 462 115.56 460.76 115.55L444.26 115.37L432.47 103.83C431.58 102.96 430.16 102.96 429.27 103.83L417.48 115.37L400.98 115.55C399.74 115.56 398.73 116.57 398.72 117.81L398.54 134.31L387 146.1C386.13 146.99 386.13 148.41 387 149.3L398.54 161.09L398.72 177.59C398.73 178.84 399.74 179.84 400.98 179.85L417.48 180.03L429.27 191.57C430.16 192.44 431.58 192.44 432.47 191.57L444.26 180.03L460.76 179.85C462 179.84 463.01 178.83 463.02 177.59L463.2 161.09L474.74 149.3C475.61 148.41 475.61 146.99 474.74 146.1Z" fill="#F0DFCC"/>
<path d="M70.6999 192.22L92.9599 103.18H48.4399L70.6999 192.22Z" fill="#F0DFCC"/>
<path d="M26.1699 192.22L48.4399 103.18H3.90991L26.1699 192.22Z" fill="#F0DFCC"/>
<path d="M388.93 44.7199L386.62 52.7799C385.89 55.3099 386.62 58.0399 388.52 59.8699L394.55 65.6899L396.58 73.8199C397.22 76.3799 399.21 78.3699 401.77 79.0099L409.9 81.0399L415.72 87.0699C417.55 88.9699 420.28 89.6999 422.81 88.9699L430.87 86.6599L438.93 88.9699C441.46 89.6999 444.19 88.9699 446.02 87.0699L451.84 81.0399L459.97 79.0099C462.53 78.3699 464.52 76.3799 465.16 73.8199L467.19 65.6899L473.22 59.8699C475.12 58.0399 475.85 55.3099 475.12 52.7799L472.81 44.7199L475.12 36.6599C475.85 34.1299 475.12 31.3999 473.22 29.5699L467.19 23.7499L465.16 15.6199C464.52 13.0599 462.53 11.0699 459.97 10.4299L451.84 8.39991L446.02 2.36989C444.19 0.479886 441.46 -0.260139 438.93 0.469861L430.87 2.77992L422.81 0.469861C420.28 -0.260139 417.55 0.469886 415.72 2.36989L409.9 8.39991L401.77 10.4299C399.21 11.0699 397.22 13.0599 396.58 15.6199L394.55 23.7499L388.52 29.5699C386.62 31.3999 385.89 34.1299 386.62 36.6599L388.93 44.7199Z" fill="#F0DFCC"/>
<path d="M813.28 44.7197C813.28 69.3097 833.21 89.2397 857.8 89.2397V44.7197H813.28Z" fill="#F0DFCC"/>
<path d="M813.28 44.7197C788.69 44.7197 768.76 64.6497 768.76 89.2397H813.28V44.7197Z" fill="#F0DFCC"/>
<path d="M813.28 44.7202C813.28 20.1302 793.35 0.200195 768.76 0.200195V44.7202H813.28Z" fill="#F0DFCC"/>
<path d="M813.28 44.7202C837.87 44.7202 857.8 24.7902 857.8 0.200195H813.28V44.7202Z" fill="#F0DFCC"/>
<path d="M662.22 0.200195L617.7 44.7202L662.22 89.2402V0.200195Z" fill="#F0DFCC"/>
<path d="M617.7 44.7202V0.200195L573.18 44.7202L617.7 89.2402V44.7202Z" fill="#F0DFCC"/>
<path d="M573.18 44.7202V0.200195L528.66 44.7202L573.18 89.2402V44.7202Z" fill="#F0DFCC"/>
<path d="M484.14 44.7202L528.66 89.2402V44.7202V0.200195L484.14 44.7202Z" fill="#F0DFCC"/>
<path d="M700.31 52.2899C696.28 55.0299 692.26 58.3399 688.42 62.1799C679.67 70.9299 673.61 80.6799 670.97 89.2499C679.54 86.5999 689.29 80.5499 698.04 71.7999C701.87 67.9699 705.19 63.9499 707.93 59.9099C709.2 71.2799 711.87 81.3899 715.5 89.2499C719.13 81.3899 721.79 71.2799 723.07 59.9099C725.81 63.9399 729.12 67.9599 732.96 71.7999C741.71 80.5499 751.46 86.6099 760.03 89.2499C757.38 80.6799 751.33 70.9299 742.58 62.1799C738.75 58.3499 734.73 55.0299 730.69 52.2899C742.06 51.0199 752.17 48.3499 760.03 44.7199C752.17 41.0899 742.06 38.43 730.69 37.15C734.72 34.41 738.74 31.0999 742.58 27.2599C751.33 18.5099 757.39 8.75994 760.03 0.189941C751.46 2.83994 741.71 8.88995 732.96 17.64C729.13 21.47 725.81 25.49 723.07 29.53C721.8 18.16 719.13 8.04994 715.5 0.189941C711.87 8.04994 709.21 18.16 707.93 29.53C705.19 25.5 701.88 21.48 698.04 17.64C689.29 8.88995 679.55 2.82994 670.97 0.189941C673.62 8.75994 679.67 18.5099 688.42 27.2599C692.25 31.0899 696.28 34.41 700.31 37.15C688.94 38.42 678.83 41.0899 670.97 44.7199C678.83 48.3499 688.94 51.0099 700.31 52.2899Z" fill="#F0DFCC"/>
<path d="M629.96 147.72C629.96 147.72 629.96 147.7 629.96 147.69C629.96 147.68 629.96 147.67 629.96 147.66C639.6 147.39 649.92 143.03 658.12 134.82C667.3 125.64 671.69 113.81 670.9 103.26C660.34 102.47 648.52 106.85 639.34 116.04C631.13 124.25 626.77 134.56 626.5 144.2C626.5 144.2 626.48 144.2 626.47 144.2C626.46 144.2 626.45 144.2 626.44 144.2C626.17 134.56 621.81 124.25 613.6 116.04C604.42 106.86 592.6 102.47 582.04 103.26C581.24 113.82 585.63 125.64 594.81 134.82C603.02 143.03 613.33 147.39 622.97 147.66C622.97 147.66 622.97 147.68 622.97 147.69C622.97 147.7 622.97 147.71 622.97 147.72C613.33 147.99 603.01 152.35 594.81 160.56C585.63 169.74 581.24 181.56 582.03 192.12C592.59 192.91 604.41 188.53 613.59 179.34C621.8 171.13 626.16 160.81 626.43 151.18C626.43 151.18 626.45 151.18 626.46 151.18C626.47 151.18 626.48 151.18 626.49 151.18C626.76 160.82 631.12 171.13 639.33 179.34C648.51 188.52 660.34 192.91 670.89 192.12C671.68 181.56 667.3 169.74 658.11 160.56C649.9 152.35 639.59 147.99 629.95 147.72" fill="#F0DFCC"/>
<path d="M724.26 147.7L748.2 171.64V123.76L724.26 147.7Z" fill="#F0DFCC"/>
<path d="M700.32 123.76V171.64L724.26 147.7L700.32 123.76Z" fill="#F0DFCC"/>
<path d="M768.52 103.18H679.74V192.22H768.78V103.18H768.52ZM748.2 171.64H700.32L680 191.96V103.44L700.32 123.76H748.2L768.52 103.44V191.96L748.2 171.64Z" fill="#F0DFCC"/>
<path d="M813.3 147.7L789.37 171.64H837.24L813.3 147.7Z" fill="#F0DFCC"/>
<path d="M837.24 123.76H789.37L813.3 147.7L837.24 123.76Z" fill="#F0DFCC"/>
<path d="M857.82 191.96V103.18H768.78V192.22H857.82V191.96ZM789.37 171.64V123.76L769.05 103.44H857.57L837.25 123.76V171.64L857.57 191.96H769.05L789.37 171.64Z" fill="#F0DFCC"/>
<path d="M954.96 146.1L943.42 134.31L943.24 117.81C943.23 116.57 942.22 115.56 940.98 115.55L924.48 115.37L912.69 103.83C911.8 102.96 910.38 102.96 909.49 103.83L897.7 115.37L881.21 115.55C879.96 115.56 878.96 116.57 878.95 117.81L878.77 134.31L867.23 146.1C866.36 146.99 866.36 148.41 867.23 149.3L878.77 161.09L878.95 177.59C878.96 178.83 879.97 179.84 881.21 179.85L897.71 180.03L909.5 191.57C910.39 192.44 911.81 192.44 912.7 191.57L924.49 180.03L940.99 179.85C942.23 179.84 943.24 178.83 943.25 177.59L943.43 161.09L954.97 149.3C955.84 148.41 955.84 146.99 954.97 146.1" fill="#F0DFCC"/>
<path d="M550.92 192.22L573.18 103.18H528.66L550.92 192.22Z" fill="#F0DFCC"/>
<path d="M506.4 192.22L528.66 103.18H484.14L506.4 192.22Z" fill="#F0DFCC"/>
<path d="M869.16 44.7199L866.85 52.7799C866.12 55.3099 866.85 58.0399 868.75 59.8699L874.78 65.6899L876.81 73.8199C877.45 76.3799 879.44 78.3699 882 79.0099L890.13 81.0399L895.95 87.0699C897.78 88.9599 900.51 89.6999 903.04 88.9699L911.1 86.6599L919.15 88.9699C921.68 89.6999 924.41 88.9699 926.24 87.0699L932.06 81.0399L940.19 79.0099C942.75 78.3699 944.74 76.3799 945.38 73.8199L947.41 65.6899L953.44 59.8699C955.33 58.0399 956.07 55.3099 955.34 52.7799L953.03 44.7199L955.34 36.6599C956.07 34.1299 955.34 31.3999 953.44 29.5699L947.41 23.7499L945.38 15.6199C944.74 13.0599 942.75 11.0699 940.19 10.4299L932.06 8.39991L926.24 2.36989C924.41 0.469886 921.68 -0.260139 919.15 0.469861L911.09 2.77992L903.03 0.469861C900.5 -0.260139 897.77 0.469886 895.94 2.36989L890.12 8.39991L881.99 10.4299C879.43 11.0699 877.44 13.0599 876.8 15.6199L874.77 23.7499L868.74 29.5699C866.84 31.3999 866.11 34.1299 866.84 36.6599L869.15 44.7199H869.16Z" fill="#F0DFCC"/>
<path d="M1564.69 0.200195L1542.42 89.2502H1586.94L1564.69 0.200195Z" fill="#F0DFCC"/>
<path d="M1609.21 0.200195L1586.94 89.2502H1631.47L1609.21 0.200195Z" fill="#F0DFCC"/>
<path d="M1738 0.200195L1887.61 15.0402L1759 29.8802L1887.61 44.7202L1759 59.5602L1887.61 74.4102L1738 89.2502H1916.09V0.200195H1738Z" fill="#F0DFCC"/>
<path d="M1640.21 0.200195V44.7202H1684.73L1640.21 0.200195Z" fill="#F0DFCC"/>
<path d="M1729.26 0.200195H1684.73V44.7202L1729.26 0.200195Z" fill="#F0DFCC"/>
<path d="M1729.26 89.2498V44.7197H1684.73L1729.26 89.2498Z" fill="#F0DFCC"/>
<path d="M1640.21 89.2498H1684.73V44.7197L1640.21 89.2498Z" fill="#F0DFCC"/>
<path d="M1818.27 187.03V142.51H1773.75L1818.27 187.03Z" fill="#F0DFCC"/>
<path d="M1773.75 187.03V142.51H1729.23L1773.75 187.03Z" fill="#F0DFCC"/>
<path d="M1818.27 142.51V97.9902H1773.75L1818.27 142.51Z" fill="#F0DFCC"/>
<path d="M1773.75 142.51V97.9902H1729.23L1773.75 142.51Z" fill="#F0DFCC"/>
<path d="M1622.69 97.9902H1578.17L1600.43 187.03L1622.69 97.9902Z" fill="#F0DFCC"/>
<path d="M1578.17 97.9902H1533.65L1555.91 187.03L1578.17 97.9902Z" fill="#F0DFCC"/>
<path d="M1533.65 97.9902H1489.13L1511.39 187.03L1533.65 97.9902Z" fill="#F0DFCC"/>
<path d="M1466.87 187.03L1489.13 97.9902H1444.61L1466.87 187.03Z" fill="#F0DFCC"/>
<path d="M1634.03 142.51L1631.72 150.57C1630.99 153.1 1631.72 155.83 1633.62 157.66L1639.65 163.48L1641.68 171.61C1642.32 174.17 1644.31 176.16 1646.87 176.8L1655 178.83L1660.82 184.86C1662.65 186.75 1665.38 187.49 1667.91 186.76L1675.97 184.45L1684.03 186.76C1686.56 187.49 1689.29 186.76 1691.12 184.86L1696.94 178.83L1705.07 176.8C1707.63 176.16 1709.62 174.17 1710.26 171.61L1712.29 163.48L1718.32 157.66C1720.22 155.83 1720.95 153.1 1720.22 150.57L1717.91 142.51L1720.22 134.45C1720.95 131.92 1720.22 129.19 1718.32 127.36L1712.29 121.54L1710.26 113.41C1709.62 110.85 1707.63 108.86 1705.07 108.22L1696.94 106.19L1691.12 100.16C1689.29 98.2599 1686.56 97.5299 1684.03 98.2599L1675.97 100.57L1667.91 98.2599C1665.38 97.5299 1662.65 98.2599 1660.82 100.16L1655 106.19L1646.87 108.22C1644.31 108.86 1642.32 110.85 1641.68 113.41L1639.65 121.54L1633.62 127.36C1631.72 129.19 1630.99 131.92 1631.72 134.45L1634.03 142.51Z" fill="#F0DFCC"/>
<path d="M1533 43.1198L1521.46 31.3298L1521.28 14.8298C1521.27 13.5898 1520.26 12.5798 1519.02 12.5698L1502.52 12.3898L1490.73 0.849766C1489.84 -0.0202343 1488.42 -0.0202343 1487.53 0.849766L1475.74 12.3898L1459.25 12.5698C1458.01 12.5798 1457 13.5898 1456.99 14.8298L1456.81 31.3298L1445.27 43.1198C1444.4 44.0098 1444.4 45.4298 1445.27 46.3198L1456.81 58.1098L1456.99 74.6098C1457 75.8598 1458.01 76.8598 1459.25 76.8698L1475.75 77.0498L1487.54 88.5898C1488.43 89.4598 1489.85 89.4598 1490.74 88.5898L1502.53 77.0498L1519.03 76.8698C1520.27 76.8598 1521.28 75.8498 1521.29 74.6098L1521.47 58.1098L1533.01 46.3198C1533.88 45.4298 1533.88 44.0098 1533.01 43.1198" fill="#F0DFCC"/>
<path d="M1856.38 150.08C1852.35 152.82 1848.33 156.13 1844.49 159.96C1835.74 168.71 1829.68 178.46 1827.04 187.03C1835.61 184.38 1845.36 178.33 1854.11 169.58C1857.94 165.75 1861.26 161.73 1864 157.69C1865.27 169.06 1867.94 179.17 1871.57 187.03C1875.2 179.17 1877.86 169.06 1879.14 157.69C1881.88 161.72 1885.19 165.74 1889.03 169.58C1897.78 178.33 1907.52 184.38 1916.1 187.03C1913.45 178.46 1907.4 168.71 1898.65 159.96C1894.82 156.13 1890.8 152.81 1886.76 150.07C1898.13 148.8 1908.24 146.13 1916.1 142.5C1908.24 138.87 1898.13 136.21 1886.76 134.93C1890.79 132.19 1894.81 128.88 1898.65 125.04C1907.4 116.29 1913.45 106.55 1916.1 97.9697C1907.53 100.62 1897.78 106.67 1889.03 115.42C1885.2 119.25 1881.88 123.28 1879.14 127.31C1877.87 115.94 1875.2 105.83 1871.57 97.9697C1867.94 105.83 1865.28 115.94 1864 127.31C1861.26 123.28 1857.95 119.26 1854.11 115.42C1845.36 106.67 1835.62 100.61 1827.04 97.9697C1829.69 106.54 1835.74 116.29 1844.49 125.04C1848.32 128.87 1852.34 132.19 1856.38 134.93C1845.01 136.2 1834.9 138.87 1827.04 142.5C1834.9 146.13 1845.01 148.79 1856.38 150.07" fill="#F0DFCC"/>
<path d="M1084.46 0.200195L1062.2 89.2402H1106.72L1084.46 0.200195Z" fill="#F0DFCC"/>
<path d="M1128.98 0.200195L1106.72 89.2402H1151.24L1128.98 0.200195Z" fill="#F0DFCC"/>
<path d="M1257.78 0.200195L1407.39 15.0402L1278.78 29.8802L1407.39 44.7202L1278.78 59.5602L1407.39 74.4102L1257.78 89.2502H1435.86V0.200195H1257.78Z" fill="#F0DFCC"/>
<path d="M1159.99 0.200195V44.7202H1204.51L1159.99 0.200195Z" fill="#F0DFCC"/>
<path d="M1249.03 0.200195H1204.51V44.7202L1249.03 0.200195Z" fill="#F0DFCC"/>
<path d="M1249.03 89.2498V44.7197H1204.51L1249.03 89.2498Z" fill="#F0DFCC"/>
<path d="M1159.99 89.2397H1204.51V44.7197L1159.99 89.2397Z" fill="#F0DFCC"/>
<path d="M1338.05 187.03V142.51H1293.53L1338.05 187.03Z" fill="#F0DFCC"/>
<path d="M1293.53 187.03V142.51H1249.01L1293.53 187.03Z" fill="#F0DFCC"/>
<path d="M1338.05 142.51V97.9902H1293.53L1338.05 142.51Z" fill="#F0DFCC"/>
<path d="M1293.53 142.51V97.9902H1249.01L1293.53 142.51Z" fill="#F0DFCC"/>
<path d="M1142.47 97.9902H1097.95L1120.21 187.03L1142.47 97.9902Z" fill="#F0DFCC"/>
<path d="M1097.95 97.9902H1053.43L1075.69 187.03L1097.95 97.9902Z" fill="#F0DFCC"/>
<path d="M1053.43 97.9902H1008.91L1031.17 187.03L1053.43 97.9902Z" fill="#F0DFCC"/>
<path d="M986.65 187.03L1008.91 97.9902H964.39L986.65 187.03Z" fill="#F0DFCC"/>
<path d="M1153.8 142.51L1151.49 150.57C1150.76 153.1 1151.49 155.83 1153.39 157.66L1159.42 163.48L1161.45 171.61C1162.09 174.17 1164.08 176.16 1166.64 176.8L1174.77 178.83L1180.59 184.86C1182.42 186.75 1185.15 187.49 1187.68 186.76L1195.74 184.45L1203.8 186.76C1206.33 187.49 1209.06 186.76 1210.89 184.86L1216.71 178.83L1224.84 176.8C1227.4 176.16 1229.39 174.17 1230.03 171.61L1232.06 163.48L1238.09 157.66C1239.99 155.83 1240.72 153.1 1239.99 150.57L1237.68 142.51L1239.99 134.45C1240.72 131.92 1239.99 129.19 1238.09 127.36L1232.06 121.54L1230.03 113.41C1229.39 110.85 1227.4 108.86 1224.84 108.22L1216.71 106.19L1210.89 100.16C1209.06 98.2699 1206.33 97.5299 1203.8 98.2599L1195.74 100.57L1187.68 98.2599C1185.15 97.5299 1182.42 98.2599 1180.59 100.16L1174.77 106.19L1166.64 108.22C1164.08 108.86 1162.09 110.85 1161.45 113.41L1159.42 121.54L1153.39 127.36C1151.49 129.19 1150.76 131.92 1151.49 134.45L1153.8 142.51Z" fill="#F0DFCC"/>
<path d="M1052.78 43.1198L1041.24 31.3298L1041.06 14.8298C1041.05 13.5898 1040.04 12.5798 1038.8 12.5698L1022.3 12.3898L1010.51 0.849766C1009.62 -0.0202343 1008.2 -0.0202343 1007.31 0.849766L995.52 12.3898L979.03 12.5698C977.79 12.5798 976.78 13.5898 976.77 14.8298L976.59 31.3298L965.05 43.1198C964.18 44.0098 964.18 45.4298 965.05 46.3198L976.59 58.1098L976.77 74.6098C976.78 75.8598 977.79 76.8598 979.03 76.8698L995.53 77.0498L1007.32 88.5898C1008.21 89.4598 1009.63 89.4598 1010.52 88.5898L1022.31 77.0498L1038.81 76.8698C1040.05 76.8598 1041.06 75.8498 1041.07 74.6098L1041.25 58.1098L1052.79 46.3198C1053.66 45.4298 1053.66 44.0098 1052.79 43.1198" fill="#F0DFCC"/>
<path d="M1376.16 150.08C1372.13 152.82 1368.11 156.13 1364.27 159.96C1355.52 168.71 1349.46 178.46 1346.82 187.03C1355.39 184.38 1365.14 178.33 1373.89 169.58C1377.72 165.75 1381.04 161.73 1383.78 157.69C1385.05 169.06 1387.72 179.17 1391.35 187.03C1394.98 179.17 1397.64 169.06 1398.92 157.69C1401.66 161.72 1404.97 165.74 1408.81 169.58C1417.56 178.33 1427.3 184.39 1435.88 187.03C1433.23 178.46 1427.18 168.71 1418.43 159.96C1414.6 156.13 1410.58 152.81 1406.54 150.07C1417.91 148.8 1428.02 146.13 1435.88 142.5C1428.02 138.87 1417.91 136.21 1406.54 134.93C1410.57 132.19 1414.59 128.88 1418.43 125.04C1427.18 116.29 1433.23 106.54 1435.88 97.9697C1427.31 100.62 1417.56 106.67 1408.81 115.42C1404.98 119.25 1401.66 123.27 1398.92 127.31C1397.65 115.94 1394.98 105.83 1391.35 97.9697C1387.72 105.83 1385.06 115.94 1383.78 127.31C1381.04 123.28 1377.73 119.26 1373.89 115.42C1365.14 106.67 1355.4 100.61 1346.82 97.9697C1349.47 106.54 1355.52 116.29 1364.27 125.04C1368.1 128.87 1372.12 132.19 1376.16 134.93C1364.79 136.2 1354.68 138.87 1346.82 142.5C1354.68 146.13 1364.79 148.79 1376.16 150.07" fill="#F0DFCC"/>
</g>
<defs>
<clipPath id="clip0_1460_7700">
<rect width="1920" height="194" fill="white"/>
</clipPath>
</defs>
</svg>
