<?xml version="1.0" encoding="UTF-8"?><svg id="Layer_1" xmlns="http://www.w3.org/2000/svg" xmlns:xlink="http://www.w3.org/1999/xlink" viewBox="0 0 1920 1080"><defs><clipPath id="clippath"><rect width="1920" height="1080" style="fill:none;"/></clipPath><clipPath id="clippath-1"><rect width="1920" height="1080" style="fill:none;"/></clipPath></defs><g style="clip-path:url(#clippath);"><g style="clip-path:url(#clippath-1);"><path d="M338.18,921.94c0,24.4,19.78,44.18,44.18,44.18v-44.18h-44.18Z" style="fill:#f9f3ea;"/><path d="M338.18,921.94c-24.4,0-44.18,19.78-44.18,44.18h44.18v-44.18Z" style="fill:#f9f3ea;"/><path d="M338.18,921.94c0-24.4-19.78-44.18-44.18-44.18v44.18h44.18Z" style="fill:#f9f3ea;"/><path d="M338.18,921.94c24.4,0,44.18-19.78,44.18-44.18h-44.18v44.18Z" style="fill:#f9f3ea;"/><polygon points="188.27 877.76 144.09 921.94 188.27 966.12 188.27 877.76" style="fill:#f9f3ea;"/><polygon points="144.09 921.94 144.09 877.76 99.91 921.94 144.09 966.12 144.09 921.94" style="fill:#f9f3ea;"/><polygon points="99.91 921.94 99.91 877.76 55.73 921.94 99.91 966.12 99.91 921.94" style="fill:#f9f3ea;"/><polygon points="11.55 921.94 55.73 966.12 55.73 921.94 55.73 877.76 11.55 921.94" style="fill:#f9f3ea;"/><path d="M226.07,929.45c-4,2.72-7.99,6.01-11.8,9.81-8.68,8.68-14.69,18.35-17.32,26.86,8.51-2.63,18.18-8.63,26.86-17.32,3.8-3.8,7.09-7.79,9.81-11.79,1.26,11.28,3.91,21.31,7.51,29.11,3.6-7.8,6.25-17.83,7.51-29.11,2.72,4,6.01,7.99,9.81,11.79,8.68,8.68,18.35,14.69,26.86,17.32-2.63-8.51-8.64-18.18-17.32-26.86-3.8-3.8-7.79-7.09-11.8-9.81,11.28-1.26,21.31-3.91,29.12-7.51-7.8-3.6-17.83-6.25-29.12-7.51,4-2.72,7.99-6.01,11.8-9.81,8.68-8.69,14.69-18.35,17.32-26.86-8.51,2.63-18.18,8.64-26.86,17.32-3.8,3.8-7.09,7.79-9.81,11.79-1.26-11.28-3.91-21.31-7.51-29.12-3.6,7.8-6.25,17.84-7.51,29.12-2.72-4-6.01-7.99-9.81-11.8-8.68-8.68-18.35-14.69-26.86-17.32,2.63,8.51,8.64,18.18,17.32,26.86,3.8,3.8,7.79,7.09,11.8,9.81-11.28,1.26-21.31,3.91-29.12,7.51,7.8,3.6,17.83,6.25,29.12,7.51" style="fill:#f9f3ea;"/><path d="M156.26,1024.15s0-.02,0-.03c0,0,0-.02,0-.02,9.57-.27,19.8-4.6,27.95-12.74,9.11-9.11,13.47-20.85,12.68-31.32-10.48-.79-22.21,3.57-31.32,12.68-8.15,8.14-12.48,18.38-12.74,27.95,0,0-.02,0-.03,0,0,0-.02,0-.03,0-.27-9.56-4.6-19.8-12.74-27.95-9.11-9.11-20.85-13.47-31.32-12.68-.79,10.48,3.57,22.21,12.68,31.32,8.15,8.15,18.38,12.48,27.95,12.74,0,0,0,.02,0,.02,0,0,0,.02,0,.03-9.57.27-19.8,4.6-27.95,12.74-9.11,9.11-13.47,20.85-12.68,31.32,10.48.79,22.21-3.57,31.32-12.68,8.14-8.14,12.48-18.38,12.74-27.95,0,0,.02,0,.03,0,0,0,.02,0,.03,0,.27,9.57,4.6,19.8,12.74,27.95,9.11,9.11,20.85,13.47,31.32,12.68.79-10.48-3.57-22.21-12.68-31.32-8.15-8.15-18.38-12.48-27.95-12.74" style="fill:#f9f3ea;"/><path d="M478.78,1022.54l-11.45-11.7-.18-16.37c-.01-1.24-1.01-2.23-2.25-2.25l-16.37-.18-11.7-11.45c-.88-.86-2.29-.86-3.18,0l-11.7,11.45-16.37.18c-1.24.01-2.23,1.01-2.25,2.25l-.18,16.37-11.45,11.7c-.86.88-.86,2.29,0,3.18l11.45,11.7.18,16.37c.01,1.24,1.01,2.23,2.25,2.25l16.37.18,11.7,11.45c.88.86,2.29.86,3.18,0l11.7-11.45,16.37-.18c1.23-.01,2.23-1.01,2.25-2.25l.18-16.37,11.45-11.7c.86-.88.86-2.29,0-3.18" style="fill:#f9f3ea;"/><polygon points="77.82 1068.31 99.91 979.95 55.73 979.95 77.82 1068.31" style="fill:#f9f3ea;"/><polygon points="33.64 1068.31 55.73 979.95 11.55 979.95 33.64 1068.31" style="fill:#f9f3ea;"/><path d="M435.25,880.32l-7.99-2.29c-2.51-.72-5.22,0-7.04,1.89l-5.78,5.98-8.07,2.01c-2.54.63-4.52,2.61-5.15,5.15l-2.01,8.07-5.98,5.78c-1.88,1.82-2.61,4.52-1.89,7.04l2.29,7.99-2.29,7.99c-.72,2.51,0,5.22,1.89,7.04l5.98,5.78,2.01,8.07c.63,2.54,2.61,4.52,5.15,5.15l8.07,2.01,5.78,5.98c1.82,1.88,4.52,2.61,7.04,1.88l7.99-2.29,7.99,2.29c2.51.72,5.22,0,7.04-1.88l5.78-5.98,8.07-2.01c2.54-.63,4.52-2.61,5.15-5.15l2.01-8.07,5.98-5.78c1.88-1.82,2.61-4.52,1.89-7.03l-2.29-8,2.29-7.99c.72-2.51,0-5.22-1.89-7.04l-5.98-5.78-2.01-8.07c-.63-2.54-2.61-4.52-5.15-5.15l-8.07-2.01-5.78-5.98c-1.82-1.88-4.52-2.61-7.04-1.89l-7.99,2.29ZM437.68,937.07l-1.52,3.54c-.34.79-1.47.79-1.81,0l-1.52-3.54c-.11-.25-.11-.53,0-.78l1.52-3.54c.34-.79,1.47-.79,1.81,0l1.52,3.54c.11.25.11.53,0,.78M442.95,928.36l3.58,1.42c.25.1.45.3.55.55l1.42,3.58c.32.8-.48,1.6-1.28,1.28l-3.58-1.42c-.25-.1-.45-.3-.55-.55l-1.42-3.58c-.32-.8.48-1.6,1.28-1.28M428.83,929.64l-1.42,3.58c-.1.25-.3.45-.55.55l-3.58,1.42c-.8.32-1.6-.48-1.28-1.28l1.42-3.58c.1-.25.3-.45.55-.55l3.58-1.42c.8-.32,1.6.48,1.28,1.28M450.38,919.51l3.54,1.52c.8.34.8,1.47,0,1.81l-3.54,1.52c-.25.11-.53.11-.78,0l-3.54-1.52c-.8-.34-.8-1.47,0-1.81l3.54-1.52c.25-.11.53-.11.78,0M420.89,919.51l3.54,1.52c.8.34.8,1.47,0,1.81l-3.54,1.52c-.25.11-.53.11-.78,0l-3.54-1.52c-.79-.34-.79-1.47,0-1.81l3.54-1.52c.25-.11.53-.11.78,0M427.55,915.52l-3.58-1.42c-.25-.1-.45-.3-.55-.55l-1.42-3.58c-.32-.8.48-1.6,1.28-1.28l3.58,1.42c.25.1.45.3.55.55l1.42,3.58c.32.8-.48,1.6-1.28,1.28M448.5,909.33l-1.42,3.58c-.1.25-.3.45-.55.55l-3.58,1.42c-.8.32-1.6-.48-1.28-1.28l1.42-3.58c.1-.25.3-.45.55-.55l3.58-1.42c.8-.32,1.6.48,1.28,1.28M436.15,903.27l1.52,3.54c.11.25.11.53,0,.78l-1.52,3.54c-.34.79-1.47.79-1.81,0l-1.52-3.54c-.11-.25-.11-.53,0-.78l1.52-3.54c.34-.79,1.47-.79,1.81,0" style="fill:#f9f3ea;"/><polygon points="273.6 1047.88 273.6 1000.37 249.84 1024.13 273.6 1047.88" style="fill:#f9f3ea;"/><polygon points="226.09 1000.37 226.09 1047.88 249.84 1024.13 226.09 1000.37" style="fill:#f9f3ea;"/><polygon points="226.09 1047.88 205.66 1068.31 205.92 1068.31 293.76 1068.31 294.02 1068.31 273.6 1047.88 226.09 1047.88" style="fill:#f9f3ea;"/><polygon points="226.09 1000.37 226.09 1000.37 273.6 1000.37 294.02 979.95 293.76 979.95 205.92 979.95 205.66 979.95 226.09 1000.37" style="fill:#f9f3ea;"/><polygon points="314.45 1047.88 361.96 1047.88 338.2 1024.13 314.45 1047.88" style="fill:#f9f3ea;"/><polygon points="361.96 1000.37 314.45 1000.37 338.2 1024.13 361.96 1000.37" style="fill:#f9f3ea;"/><polygon points="314.45 1000.37 294.02 979.95 294.02 980.21 294.02 1068.05 294.02 1068.31 314.45 1047.88 314.45 1000.37" style="fill:#f9f3ea;"/><polygon points="361.96 1000.37 361.96 1047.88 382.39 1068.31 382.39 1068.05 382.39 980.21 382.39 979.95 361.96 1000.37" style="fill:#f9f3ea;"/><path d="M814.98,921.94c0,24.4,19.78,44.18,44.18,44.18v-44.18h-44.18Z" style="fill:#f9f3ea;"/><path d="M814.98,921.94c-24.4,0-44.18,19.78-44.18,44.18h44.18v-44.18Z" style="fill:#f9f3ea;"/><path d="M814.98,921.94c0-24.4-19.78-44.18-44.18-44.18v44.18h44.18Z" style="fill:#f9f3ea;"/><path d="M814.98,921.94c24.4,0,44.18-19.78,44.18-44.18h-44.18v44.18Z" style="fill:#f9f3ea;"/><polygon points="665.07 877.76 620.89 921.94 665.07 966.12 665.07 877.76" style="fill:#f9f3ea;"/><polygon points="620.89 921.94 620.89 877.76 576.71 921.94 620.89 966.12 620.89 921.94" style="fill:#f9f3ea;"/><polygon points="576.71 921.94 576.71 877.76 532.53 921.94 576.71 966.12 576.71 921.94" style="fill:#f9f3ea;"/><polygon points="488.35 921.94 532.53 966.12 532.53 921.94 532.53 877.76 488.35 921.94" style="fill:#f9f3ea;"/><path d="M702.87,929.45c-4,2.72-7.99,6.01-11.8,9.81-8.68,8.68-14.69,18.35-17.32,26.86,8.51-2.63,18.18-8.63,26.86-17.32,3.8-3.8,7.09-7.79,9.81-11.79,1.26,11.28,3.91,21.31,7.51,29.11,3.6-7.8,6.25-17.83,7.51-29.11,2.72,4,6.01,7.99,9.81,11.79,8.68,8.68,18.35,14.69,26.86,17.32-2.63-8.51-8.64-18.18-17.32-26.86-3.8-3.8-7.79-7.09-11.8-9.81,11.28-1.26,21.31-3.91,29.12-7.51-7.8-3.6-17.83-6.25-29.12-7.51,4-2.72,7.99-6.01,11.8-9.81,8.68-8.69,14.69-18.35,17.32-26.86-8.51,2.63-18.18,8.64-26.86,17.32-3.8,3.8-7.09,7.79-9.81,11.79-1.26-11.28-3.91-21.31-7.51-29.12-3.6,7.8-6.25,17.84-7.51,29.12-2.72-4-6.01-7.99-9.81-11.8-8.68-8.68-18.35-14.69-26.86-17.32,2.63,8.51,8.64,18.18,17.32,26.86,3.8,3.8,7.8,7.09,11.8,9.81-11.28,1.26-21.31,3.91-29.11,7.51,7.8,3.6,17.83,6.25,29.11,7.51" style="fill:#f9f3ea;"/><path d="M633.06,1024.15s0-.02,0-.03c0,0,0-.02,0-.02,9.57-.27,19.8-4.6,27.95-12.74,9.11-9.11,13.47-20.85,12.68-31.32-10.48-.79-22.21,3.57-31.32,12.68-8.15,8.14-12.48,18.38-12.74,27.95,0,0-.02,0-.03,0,0,0-.02,0-.02,0-.27-9.56-4.6-19.8-12.74-27.95-9.11-9.11-20.84-13.47-31.32-12.68-.79,10.48,3.57,22.21,12.68,31.32,8.15,8.15,18.38,12.48,27.95,12.74,0,0,0,.02,0,.02,0,0,0,.02,0,.03-9.57.27-19.8,4.6-27.95,12.74-9.11,9.11-13.47,20.85-12.68,31.32,10.48.79,22.21-3.57,31.32-12.68,8.15-8.14,12.48-18.38,12.74-27.95,0,0,.02,0,.02,0,0,0,.02,0,.03,0,.27,9.57,4.6,19.8,12.74,27.95,9.11,9.11,20.84,13.47,31.32,12.68.79-10.48-3.57-22.21-12.68-31.32-8.15-8.15-18.38-12.48-27.95-12.74" style="fill:#f9f3ea;"/><path d="M955.58,1022.54l-11.45-11.7-.18-16.37c-.01-1.24-1.01-2.23-2.25-2.25l-16.37-.18-11.7-11.45c-.88-.86-2.29-.86-3.18,0l-11.7,11.45-16.37.18c-1.24.01-2.23,1.01-2.25,2.25l-.18,16.37-11.45,11.7c-.86.88-.86,2.29,0,3.18l11.45,11.7.18,16.37c.01,1.24,1.01,2.23,2.25,2.25l16.37.18,11.7,11.45c.88.86,2.29.86,3.18,0l11.7-11.45,16.37-.18c1.24-.01,2.23-1.01,2.25-2.25l.18-16.37,11.45-11.7c.86-.88.86-2.29,0-3.18" style="fill:#f9f3ea;"/><polygon points="554.62 1068.31 576.71 979.95 532.53 979.95 554.62 1068.31" style="fill:#f9f3ea;"/><polygon points="510.44 1068.31 532.53 979.95 488.35 979.95 510.44 1068.31" style="fill:#f9f3ea;"/><path d="M912.05,880.32l-7.99-2.29c-2.51-.72-5.22,0-7.03,1.89l-5.78,5.98-8.07,2.01c-2.54.63-4.52,2.61-5.15,5.15l-2.01,8.07-5.98,5.78c-1.88,1.82-2.61,4.52-1.89,7.04l2.29,7.99-2.29,7.99c-.72,2.51,0,5.22,1.89,7.04l5.98,5.78,2.01,8.07c.63,2.54,2.61,4.52,5.15,5.15l8.07,2.01,5.78,5.98c1.82,1.88,4.52,2.61,7.03,1.88l7.99-2.29,7.99,2.29c2.51.72,5.22,0,7.04-1.88l5.78-5.98,8.07-2.01c2.54-.63,4.52-2.61,5.15-5.15l2.01-8.07,5.98-5.78c1.88-1.82,2.61-4.52,1.88-7.03l-2.29-8,2.29-7.99c.72-2.51,0-5.22-1.88-7.04l-5.98-5.78-2.01-8.07c-.63-2.54-2.61-4.52-5.15-5.15l-8.07-2.01-5.78-5.98c-1.82-1.88-4.52-2.61-7.04-1.89l-7.99,2.29ZM914.48,937.07l-1.52,3.54c-.34.79-1.47.79-1.81,0l-1.52-3.54c-.11-.25-.11-.53,0-.78l1.52-3.54c.34-.79,1.47-.79,1.81,0l1.52,3.54c.11.25.11.53,0,.78M919.75,928.36l3.58,1.42c.25.1.45.3.55.55l1.42,3.58c.32.8-.48,1.6-1.28,1.28l-3.58-1.42c-.25-.1-.45-.3-.55-.55l-1.42-3.58c-.32-.8.48-1.6,1.28-1.28M905.63,929.64l-1.42,3.58c-.1.25-.3.45-.55.55l-3.58,1.42c-.8.32-1.6-.48-1.28-1.28l1.42-3.58c.1-.25.3-.45.55-.55l3.58-1.42c.8-.32,1.6.48,1.28,1.28M927.18,919.51l3.54,1.52c.79.34.79,1.47,0,1.81l-3.54,1.52c-.25.11-.53.11-.78,0l-3.53-1.52c-.79-.34-.79-1.47,0-1.81l3.53-1.52c.25-.11.53-.11.78,0M897.69,919.51l3.54,1.52c.8.34.8,1.47,0,1.81l-3.54,1.52c-.25.11-.53.11-.78,0l-3.54-1.52c-.79-.34-.79-1.47,0-1.81l3.54-1.52c.25-.11.53-.11.78,0M904.35,915.52l-3.58-1.42c-.25-.1-.45-.3-.55-.55l-1.42-3.58c-.32-.8.48-1.6,1.28-1.28l3.58,1.42c.25.1.45.3.55.55l1.42,3.58c.32.8-.48,1.6-1.28,1.28M925.3,909.33l-1.42,3.58c-.1.25-.3.45-.55.55l-3.58,1.42c-.8.32-1.6-.48-1.28-1.28l1.42-3.58c.1-.25.3-.45.55-.55l3.58-1.42c.8-.32,1.6.48,1.28,1.28M912.95,903.27l1.52,3.54c.11.25.11.53,0,.78l-1.52,3.54c-.34.79-1.47.79-1.81,0l-1.52-3.54c-.11-.25-.11-.53,0-.78l1.52-3.54c.34-.79,1.47-.79,1.81,0" style="fill:#f9f3ea;"/><polygon points="750.4 1047.88 750.4 1000.37 726.64 1024.13 750.4 1047.88" style="fill:#f9f3ea;"/><polygon points="702.89 1000.37 702.89 1047.88 726.64 1024.13 702.89 1000.37" style="fill:#f9f3ea;"/><polygon points="702.89 1047.88 682.46 1068.31 682.72 1068.31 770.56 1068.31 770.82 1068.31 750.4 1047.88 702.89 1047.88" style="fill:#f9f3ea;"/><polygon points="702.89 1000.37 702.89 1000.37 750.4 1000.37 770.82 979.95 770.56 979.95 682.72 979.95 682.46 979.95 702.89 1000.37" style="fill:#f9f3ea;"/><polygon points="791.25 1047.88 838.76 1047.88 815 1024.13 791.25 1047.88" style="fill:#f9f3ea;"/><polygon points="838.76 1000.37 791.25 1000.37 815 1024.13 838.76 1000.37" style="fill:#f9f3ea;"/><polygon points="791.25 1000.37 770.82 979.95 770.82 980.21 770.82 1068.05 770.82 1068.31 791.25 1047.88 791.25 1000.37" style="fill:#f9f3ea;"/><polygon points="838.76 1000.37 838.76 1047.88 859.19 1068.31 859.19 1068.05 859.19 980.21 859.19 979.95 838.76 1000.37" style="fill:#f9f3ea;"/><polygon points="1312.49 1065.74 1334.58 977.37 1290.4 977.37 1312.49 1065.74" style="fill:#f9f3ea;"/><polygon points="1268.31 1065.74 1290.4 977.37 1246.22 977.37 1268.31 1065.74" style="fill:#f9f3ea;"/><polygon points="1140.5 1065.74 992.03 1051.01 1119.66 1036.28 992.03 1021.55 1119.66 1006.83 992.03 992.1 1140.5 977.37 963.77 977.37 963.77 1065.74 1140.5 1065.74" style="fill:#f9f3ea;"/><polygon points="1237.54 1065.74 1237.54 1021.55 1193.36 1021.55 1237.54 1065.74" style="fill:#f9f3ea;"/><polygon points="1149.18 1065.74 1193.36 1065.74 1193.36 1021.55 1149.18 1065.74" style="fill:#f9f3ea;"/><polygon points="1149.18 977.37 1149.18 1021.56 1193.36 1021.56 1149.18 977.37" style="fill:#f9f3ea;"/><polygon points="1237.54 977.37 1193.36 977.37 1193.36 1021.56 1237.54 977.37" style="fill:#f9f3ea;"/><polygon points="1060.84 880.33 1060.84 924.51 1105.02 924.51 1060.84 880.33" style="fill:#f9f3ea;"/><polygon points="1105.02 880.33 1105.02 924.51 1149.2 924.51 1105.02 880.33" style="fill:#f9f3ea;"/><polygon points="1060.84 924.51 1060.84 968.69 1105.02 968.69 1060.84 924.51" style="fill:#f9f3ea;"/><polygon points="1105.02 924.51 1105.02 968.69 1149.2 968.69 1105.02 924.51" style="fill:#f9f3ea;"/><polygon points="1254.93 968.69 1299.11 968.69 1277.02 880.33 1254.93 968.69" style="fill:#f9f3ea;"/><polygon points="1299.11 968.69 1343.29 968.69 1321.2 880.33 1299.11 968.69" style="fill:#f9f3ea;"/><polygon points="1343.29 968.69 1387.47 968.69 1365.38 880.33 1343.29 968.69" style="fill:#f9f3ea;"/><polygon points="1409.56 880.33 1387.47 968.69 1431.65 968.69 1409.56 880.33" style="fill:#f9f3ea;"/><path d="M1243.68,924.51l2.29-7.99c.72-2.51,0-5.22-1.89-7.04l-5.98-5.78-2.01-8.07c-.63-2.54-2.61-4.52-5.15-5.15l-8.07-2.01-5.78-5.98c-1.82-1.88-4.52-2.61-7.04-1.88l-7.99,2.29-7.99-2.29c-2.51-.72-5.22,0-7.04,1.88l-5.78,5.98-8.07,2.01c-2.54.63-4.52,2.61-5.15,5.15l-2.01,8.07-5.98,5.78c-1.88,1.82-2.61,4.52-1.89,7.04l2.29,7.99-2.29,7.99c-.72,2.51,0,5.22,1.89,7.04l5.98,5.78,2.01,8.07c.63,2.54,2.61,4.52,5.15,5.15l8.07,2.01,5.78,5.98c1.82,1.88,4.52,2.61,7.04,1.88l7.99-2.29,7.99,2.29c2.51.72,5.22,0,7.04-1.89l5.78-5.98,8.07-2.01c2.54-.63,4.52-2.61,5.15-5.15l2.01-8.07,5.98-5.78c1.88-1.82,2.61-4.52,1.89-7.04l-2.29-7.99Z" style="fill:#f9f3ea;"/><path d="M1343.94,1023.14l11.45,11.7.18,16.37c.01,1.24,1.01,2.23,2.25,2.25l16.37.18,11.7,11.45c.88.86,2.29.86,3.18,0l11.7-11.45,16.37-.18c1.24-.01,2.23-1.01,2.25-2.25l.18-16.37,11.45-11.7c.86-.88.86-2.29,0-3.18l-11.45-11.7-.18-16.37c-.01-1.24-1.01-2.23-2.25-2.25l-16.37-.18-11.7-11.45c-.88-.86-2.29-.86-3.18,0l-11.7,11.45-16.37.18c-1.23.01-2.23,1.01-2.25,2.25l-.18,16.37-11.45,11.7c-.86.88-.86,2.29,0,3.18" style="fill:#f9f3ea;"/><path d="M1023.02,917c4-2.72,7.99-6.01,11.8-9.81,8.68-8.68,14.69-18.35,17.32-26.86-8.51,2.63-18.18,8.63-26.86,17.32-3.8,3.8-7.09,7.79-9.81,11.79-1.26-11.28-3.91-21.31-7.51-29.11-3.6,7.8-6.25,17.83-7.51,29.11-2.72-4-6.01-7.99-9.81-11.79-8.68-8.68-18.35-14.69-26.86-17.32,2.63,8.51,8.64,18.18,17.32,26.86,3.8,3.8,7.79,7.09,11.8,9.81-11.28,1.26-21.31,3.91-29.12,7.51,7.8,3.6,17.83,6.25,29.12,7.51-4,2.72-7.99,6.01-11.8,9.81-8.68,8.68-14.69,18.35-17.32,26.86,8.51-2.63,18.18-8.64,26.86-17.32,3.8-3.8,7.09-7.79,9.81-11.79,1.26,11.28,3.91,21.31,7.51,29.11,3.6-7.8,6.25-17.83,7.51-29.11,2.72,4,6.01,7.99,9.81,11.8,8.69,8.68,18.35,14.69,26.86,17.32-2.63-8.51-8.64-18.18-17.32-26.86-3.8-3.8-7.79-7.09-11.8-9.81,11.28-1.26,21.31-3.91,29.12-7.51-7.8-3.6-17.83-6.25-29.12-7.51" style="fill:#f9f3ea;"/><polygon points="1789.29 1065.74 1811.38 977.37 1767.2 977.37 1789.29 1065.74" style="fill:#f9f3ea;"/><polygon points="1745.11 1065.74 1767.2 977.37 1723.02 977.37 1745.11 1065.74" style="fill:#f9f3ea;"/><polygon points="1617.3 1065.74 1468.83 1051.01 1596.46 1036.28 1468.83 1021.55 1596.46 1006.83 1468.83 992.1 1617.3 977.37 1440.57 977.37 1440.57 1065.74 1617.3 1065.74" style="fill:#f9f3ea;"/><polygon points="1714.34 1065.74 1714.34 1021.55 1670.16 1021.55 1714.34 1065.74" style="fill:#f9f3ea;"/><polygon points="1625.98 1065.74 1670.16 1065.74 1670.16 1021.55 1625.98 1065.74" style="fill:#f9f3ea;"/><polygon points="1625.98 977.37 1625.98 1021.56 1670.16 1021.56 1625.98 977.37" style="fill:#f9f3ea;"/><polygon points="1714.34 977.37 1670.16 977.37 1670.16 1021.56 1714.34 977.37" style="fill:#f9f3ea;"/><polygon points="1537.64 880.33 1537.64 924.51 1581.82 924.51 1537.64 880.33" style="fill:#f9f3ea;"/><polygon points="1581.82 880.33 1581.82 924.51 1626 924.51 1581.82 880.33" style="fill:#f9f3ea;"/><polygon points="1537.64 924.51 1537.64 968.69 1581.82 968.69 1537.64 924.51" style="fill:#f9f3ea;"/><polygon points="1581.82 924.51 1581.82 968.69 1626 968.69 1581.82 924.51" style="fill:#f9f3ea;"/><polygon points="1731.73 968.69 1775.91 968.69 1753.82 880.33 1731.73 968.69" style="fill:#f9f3ea;"/><polygon points="1775.91 968.69 1820.09 968.69 1798 880.33 1775.91 968.69" style="fill:#f9f3ea;"/><polygon points="1820.09 968.69 1864.27 968.69 1842.18 880.33 1820.09 968.69" style="fill:#f9f3ea;"/><polygon points="1886.36 880.33 1864.27 968.69 1908.45 968.69 1886.36 880.33" style="fill:#f9f3ea;"/><path d="M1720.48,924.51l2.29-7.99c.72-2.51,0-5.22-1.89-7.04l-5.98-5.78-2.01-8.07c-.63-2.54-2.61-4.52-5.15-5.15l-8.07-2.01-5.78-5.98c-1.82-1.88-4.52-2.61-7.04-1.88l-7.99,2.29-7.99-2.29c-2.51-.72-5.22,0-7.04,1.88l-5.78,5.98-8.07,2.01c-2.54.63-4.52,2.61-5.15,5.15l-2.01,8.07-5.98,5.78c-1.88,1.82-2.61,4.52-1.89,7.04l2.29,7.99-2.29,7.99c-.72,2.51,0,5.22,1.89,7.04l5.98,5.78,2.01,8.07c.63,2.54,2.61,4.52,5.15,5.15l8.07,2.01,5.78,5.98c1.82,1.88,4.52,2.61,7.04,1.88l7.99-2.29,7.99,2.29c2.51.72,5.22,0,7.04-1.89l5.78-5.98,8.07-2.01c2.54-.63,4.52-2.61,5.15-5.15l2.01-8.07,5.98-5.78c1.88-1.82,2.61-4.52,1.89-7.04l-2.29-7.99Z" style="fill:#f9f3ea;"/><path d="M1820.74,1023.14l11.45,11.7.18,16.37c.01,1.24,1.01,2.23,2.25,2.25l16.37.18,11.7,11.45c.88.86,2.29.86,3.18,0l11.7-11.45,16.37-.18c1.23-.01,2.23-1.01,2.25-2.25l.18-16.37,11.45-11.7c.86-.88.86-2.29,0-3.18l-11.45-11.7-.18-16.37c-.01-1.24-1.01-2.23-2.25-2.25l-16.37-.18-11.7-11.45c-.88-.86-2.29-.86-3.18,0l-11.7,11.45-16.37.18c-1.23.01-2.23,1.01-2.25,2.25l-.18,16.37-11.45,11.7c-.86.88-.86,2.29,0,3.18" style="fill:#f9f3ea;"/><path d="M1499.82,917c4-2.72,7.99-6.01,11.8-9.81,8.68-8.68,14.69-18.35,17.32-26.86-8.51,2.63-18.18,8.63-26.86,17.32-3.8,3.8-7.09,7.79-9.81,11.79-1.26-11.28-3.91-21.31-7.51-29.11-3.6,7.8-6.25,17.83-7.51,29.11-2.72-4-6.01-7.99-9.81-11.79-8.68-8.68-18.35-14.69-26.86-17.32,2.63,8.51,8.64,18.18,17.32,26.86,3.8,3.8,7.79,7.09,11.8,9.81-11.28,1.26-21.31,3.91-29.12,7.51,7.8,3.6,17.84,6.25,29.12,7.51-4,2.72-7.99,6.01-11.8,9.81-8.69,8.68-14.69,18.35-17.32,26.86,8.51-2.63,18.18-8.64,26.86-17.32,3.8-3.8,7.09-7.79,9.81-11.79,1.26,11.28,3.91,21.31,7.51,29.11,3.6-7.8,6.25-17.83,7.51-29.11,2.72,4,6.01,7.99,9.81,11.8,8.68,8.68,18.35,14.69,26.86,17.32-2.63-8.51-8.64-18.18-17.32-26.86-3.8-3.8-7.8-7.09-11.8-9.81,11.28-1.26,21.31-3.91,29.11-7.51-7.8-3.6-17.83-6.25-29.11-7.51" style="fill:#f9f3ea;"/></g></g></svg>