<svg width="1000" height="800" viewBox="0 0 1000 800" fill="none" xmlns="http://www.w3.org/2000/svg">
<rect x="363.826" y="113.765" width="470.073" height="634.598" rx="21.6481" transform="rotate(0.517209 363.826 113.765)" fill="#F7E8D7"/>
<rect x="363.826" y="113.765" width="470.073" height="634.598" rx="21.6481" transform="rotate(0.517209 363.826 113.765)" stroke="#FFAE00" stroke-width="6.18517"/>
<path d="M443.86 668.023L444.141 636.851L467.075 637.058L467.018 643.292L450.764 643.145L450.698 650.493L463.39 650.608L463.333 656.842L450.642 656.728L450.539 668.083L443.86 668.023ZM477.459 668.771C473.006 668.731 469.476 665.137 469.526 659.57L469.645 646.433L475.657 646.488L475.546 658.734C475.522 661.406 477.066 662.978 479.516 663C482.187 663.025 484.209 661.039 484.236 658.144L484.34 646.566L490.352 646.62L490.155 668.441L484.143 668.386L484.171 665.269L483.949 665.267C483.949 665.267 481.69 668.81 477.459 668.771ZM495.932 668.493L496.129 646.672L502.141 646.727L502.112 649.844L502.335 649.846C502.335 649.846 504.594 646.304 508.824 646.342C513.277 646.382 516.808 649.977 516.757 655.543L516.639 668.68L510.627 668.625L510.738 656.379C510.762 653.707 509.217 652.135 506.768 652.113C504.096 652.089 502.074 654.074 502.048 656.969L501.944 668.547L495.932 668.493ZM530.873 669.254C525.752 669.207 521.118 664.489 521.178 657.81C521.239 651.13 525.957 646.496 531.078 646.543C535.754 646.585 537.948 650.167 537.948 650.167L538.171 650.169L538.283 637.701L544.295 637.755L544.014 668.927L538.002 668.873L538.03 665.755L537.807 665.753C537.807 665.753 535.549 669.296 530.873 669.254ZM532.704 663.703C535.821 663.731 538.293 661.304 538.323 657.964C538.353 654.625 535.926 652.153 532.809 652.125C529.692 652.097 527.22 654.524 527.19 657.864C527.16 661.204 529.587 663.675 532.704 663.703ZM550.03 668.981L550.227 647.161L556.239 647.215L556.042 669.035L550.03 668.981ZM553.237 644.293C551.367 644.276 549.822 642.704 549.838 640.922C549.854 639.141 551.427 637.597 553.342 637.614C555.212 637.631 556.757 639.203 556.741 640.985C556.725 642.766 555.152 644.31 553.237 644.293ZM561.816 669.088L562.013 647.267L568.024 647.321L567.996 650.439L568.219 650.441C568.219 650.441 570.478 646.898 574.708 646.936C579.161 646.977 582.692 650.571 582.641 656.138L582.523 669.274L576.511 669.22L576.622 656.974C576.646 654.302 575.101 652.73 572.652 652.707C569.98 652.683 567.958 654.669 567.932 657.564L567.827 669.142L561.816 669.088ZM597.344 678.761C590.887 678.702 587.81 674.221 587.81 674.221L591.629 670.47C591.629 670.47 593.832 673.162 597.394 673.194C600.734 673.224 603.206 670.797 603.238 667.235L603.254 665.453L603.031 665.451C603.031 665.451 600.995 668.996 596.319 668.954C591.421 668.909 587.008 664.416 587.066 657.959C587.124 651.502 591.618 647.089 596.516 647.133C601.192 647.176 603.164 650.756 603.164 650.756L603.386 650.758L603.415 647.641L609.426 647.695L609.249 667.289C609.189 673.969 604.247 678.823 597.344 678.761ZM598.151 663.403C601.045 663.429 603.292 661.223 603.32 658.106C603.348 654.989 601.142 652.742 598.247 652.716C595.353 652.69 593.106 654.896 593.078 658.013C593.05 661.131 595.256 663.377 598.151 663.403ZM640.376 670.465C630.802 670.378 623.521 662.964 623.601 654.058C623.681 645.152 631.095 637.87 640.67 637.957C649.353 638.035 653.75 644.31 653.75 644.31L649.257 648.723C649.257 648.723 646.18 644.242 640.613 644.191C635.047 644.141 630.554 648.554 630.503 654.12C630.453 659.687 634.866 664.18 640.432 664.23C644.886 664.271 647.357 661.843 647.357 661.843L647.391 658.058L641.602 658.006L641.65 652.662L654.119 652.775L654.013 664.576C654.013 664.576 649.282 670.545 640.376 670.465ZM667.762 670.489C663.308 670.449 659.778 666.854 659.828 661.288L659.947 648.151L665.959 648.206L665.848 660.452C665.824 663.124 667.368 664.696 669.818 664.718C672.49 664.742 674.512 662.757 674.538 659.862L674.642 648.284L680.654 648.338L680.457 670.159L674.445 670.104L674.473 666.987L674.251 666.985C674.251 666.985 671.992 670.528 667.762 670.489ZM686.234 670.211L686.431 648.39L692.443 648.445L692.246 670.265L686.234 670.211ZM689.441 645.523C687.57 645.506 686.026 643.933 686.042 642.152C686.058 640.371 687.631 638.826 689.545 638.843C691.416 638.86 692.96 640.433 692.944 642.214C692.928 643.995 691.355 645.54 689.441 645.523ZM706.476 670.839C701.355 670.793 696.721 666.075 696.782 659.395C696.842 652.715 701.56 648.082 706.681 648.128C711.357 648.17 713.551 651.753 713.551 651.753L713.774 651.755L713.886 639.286L719.898 639.34L719.617 670.512L713.605 670.458L713.633 667.341L713.41 667.339C713.41 667.339 711.152 670.881 706.476 670.839ZM708.307 665.288C711.425 665.317 713.896 662.889 713.926 659.55C713.956 656.21 711.529 653.738 708.412 653.71C705.295 653.682 702.823 656.109 702.793 659.449C702.763 662.789 705.19 665.26 708.307 665.288ZM735.872 671.104C729.415 671.046 724.34 665.879 724.396 659.644C724.453 653.41 729.62 648.335 735.854 648.391C741.866 648.445 746.72 653.388 746.666 659.4C746.652 660.958 746.419 662.07 746.419 662.07L730.611 661.927C731.26 663.937 733.026 665.734 736.365 665.764C740.151 665.799 742.177 663.367 742.177 663.367L745.256 667.626C745.256 667.626 741.884 671.158 735.872 671.104ZM730.651 657.474L740.448 657.562C739.798 655.552 738.033 653.755 735.583 653.733C733.134 653.711 731.337 655.476 730.651 657.474Z" fill="#9A5027"/>
<rect x="253.348" y="139.684" width="470.073" height="634.598" rx="21.6481" transform="rotate(-8.57063 253.348 139.684)" fill="#F7E8D7"/>
<rect x="253.348" y="139.684" width="470.073" height="634.598" rx="21.6481" transform="rotate(-8.57063 253.348 139.684)" stroke="#FFAE00" stroke-width="6.18517"/>
<path d="M419.922 674.344L415.276 643.519L437.954 640.101L438.884 646.266L422.81 648.689L423.906 655.955L436.456 654.063L437.385 660.228L424.835 662.12L426.527 673.349L419.922 674.344ZM453.218 669.777C448.814 670.44 444.761 667.448 443.931 661.944L441.973 648.953L447.918 648.057L449.743 660.167C450.141 662.809 451.915 664.118 454.337 663.753C456.979 663.355 458.662 661.075 458.23 658.212L456.505 646.763L462.45 645.867L465.702 667.445L459.757 668.341L459.292 665.258L459.072 665.291C459.072 665.291 457.401 669.146 453.218 669.777ZM471.414 666.584L468.162 645.006L474.107 644.11L474.572 647.193L474.792 647.16C474.792 647.16 476.463 643.305 480.646 642.674C485.05 642.011 489.104 645.003 489.933 650.507L491.891 663.498L485.946 664.394L484.121 652.284C483.723 649.642 481.949 648.333 479.527 648.698C476.885 649.096 475.202 651.376 475.634 654.238L477.359 665.688L471.414 666.584ZM506.037 661.816C500.973 662.579 495.652 658.652 494.657 652.047C493.661 645.442 497.588 640.121 502.652 639.358C507.276 638.661 510.009 641.852 510.009 641.852L510.229 641.819L508.371 629.489L514.315 628.593L518.961 659.418L513.016 660.314L512.552 657.231L512.332 657.265C512.332 657.265 510.661 661.119 506.037 661.816ZM506.969 656.046C510.051 655.582 512.108 652.795 511.61 649.492C511.113 646.189 508.326 644.132 505.243 644.597C502.161 645.061 500.104 647.848 500.601 651.151C501.099 654.454 503.886 656.511 506.969 656.046ZM524.911 658.521L521.659 636.944L527.604 636.048L530.856 657.625L524.911 658.521ZM524.178 633.637C522.329 633.915 520.555 632.606 520.29 630.845C520.024 629.084 521.333 627.31 523.227 627.025C525.076 626.746 526.85 628.055 527.115 629.816C527.381 631.578 526.072 633.351 524.178 633.637ZM536.565 656.765L533.313 635.187L539.258 634.291L539.723 637.374L539.943 637.341C539.943 637.341 541.614 633.486 545.797 632.855C550.201 632.192 554.254 635.184 555.084 640.688L557.042 653.679L551.097 654.575L549.272 642.465C548.874 639.823 547.1 638.514 544.678 638.879C542.036 639.277 540.353 641.557 540.784 644.42L542.51 655.869L536.565 656.765ZM573.176 660.705C566.79 661.667 563.044 657.728 563.044 657.728L566.223 653.421C566.223 653.421 568.823 655.731 572.346 655.2C575.649 654.703 577.706 651.916 577.175 648.393L576.909 646.631L576.689 646.664C576.689 646.664 575.238 650.486 570.615 651.183C565.771 651.913 560.703 648.173 559.741 641.788C558.779 635.403 562.519 630.335 567.363 629.605C571.986 628.908 574.499 632.133 574.499 632.133L574.719 632.099L574.254 629.017L580.199 628.121L583.119 647.497C584.115 654.102 580.001 659.676 573.176 660.705ZM571.546 645.413C574.409 644.981 576.279 642.448 575.814 639.365C575.35 636.283 572.816 634.413 569.954 634.844C567.091 635.276 565.221 637.809 565.686 640.892C566.15 643.974 568.684 645.844 571.546 645.413ZM614.357 645.716C604.889 647.143 596.528 640.972 595.201 632.165C593.874 623.358 600.045 614.997 609.512 613.57C618.099 612.276 623.432 617.777 623.432 617.777L619.692 622.844C619.692 622.844 615.946 618.905 610.441 619.735C604.937 620.565 601.197 625.632 602.027 631.136C602.856 636.641 607.923 640.381 613.428 639.551C617.832 638.888 619.888 636.101 619.888 636.101L619.324 632.357L613.6 633.22L612.803 627.936L625.133 626.078L626.892 637.747C626.892 637.747 623.164 644.389 614.357 645.716ZM641.403 641.415C636.999 642.079 632.945 639.087 632.116 633.582L630.158 620.592L636.103 619.696L637.928 631.806C638.326 634.448 640.099 635.757 642.521 635.392C645.164 634.993 646.846 632.713 646.415 629.851L644.69 618.402L650.634 617.506L653.886 639.083L647.942 639.979L647.477 636.897L647.257 636.93C647.257 636.93 645.586 640.784 641.403 641.415ZM659.599 638.222L656.347 616.645L662.292 615.749L665.544 637.326L659.599 638.222ZM658.866 613.338C657.017 613.616 655.243 612.307 654.978 610.546C654.712 608.784 656.021 607.011 657.915 606.726C659.764 606.447 661.538 607.756 661.803 609.517C662.069 611.279 660.76 613.052 658.866 613.338ZM679.686 635.645C674.622 636.408 669.301 632.481 668.306 625.876C667.31 619.271 671.237 613.95 676.302 613.187C680.925 612.49 683.658 615.681 683.658 615.681L683.878 615.648L682.02 603.318L687.965 602.422L692.61 633.247L686.666 634.143L686.201 631.06L685.981 631.094C685.981 631.094 684.31 634.948 679.686 635.645ZM680.618 629.875C683.701 629.411 685.758 626.624 685.26 623.321C684.762 620.018 681.975 617.961 678.893 618.426C675.81 618.89 673.753 621.677 674.251 624.98C674.749 628.283 677.536 630.34 680.618 629.875ZM708.755 631.264C702.37 632.226 696.543 627.926 695.613 621.761C694.684 615.596 698.985 609.768 705.15 608.839C711.095 607.943 716.669 612.057 717.565 618.002C717.797 619.543 717.743 620.677 717.743 620.677L702.11 623.033C703.069 624.915 705.096 626.411 708.399 625.913C712.142 625.349 713.759 622.629 713.759 622.629L717.472 626.348C717.472 626.348 714.7 630.368 708.755 631.264ZM701.447 618.63L711.134 617.17C710.175 615.287 708.148 613.791 705.726 614.157C703.304 614.522 701.808 616.548 701.447 618.63Z" fill="#9A5027"/>
<g clip-path="url(#clip0_1460_7520)">
<rect x="162" y="152.265" width="476.258" height="640.783" rx="24.7407" transform="rotate(-15 162 152.265)" fill="#F7E8D7"/>
<g clip-path="url(#clip1_1460_7520)">
<mask id="mask0_1460_7520" style="mask-type:luminance" maskUnits="userSpaceOnUse" x="-124" y="114" width="822" height="593">
<path d="M589.86 114.46L-123.053 305.485L-15.4771 706.965L697.436 515.941L589.86 114.46Z" fill="white"/>
</mask>
<g mask="url(#mask0_1460_7520)">
<mask id="mask1_1460_7520" style="mask-type:luminance" maskUnits="userSpaceOnUse" x="-124" y="114" width="822" height="593">
<path d="M589.86 114.46L-123.053 305.485L-15.4771 706.965L697.436 515.941L589.86 114.46Z" fill="white"/>
</mask>
<g mask="url(#mask1_1460_7520)">
<path d="M589.864 114.459L232.564 210.197L340.14 611.678L697.44 515.94L589.864 114.459Z" fill="#F7E8D7"/>
<path d="M415.674 486.293C427.463 530.289 472.643 556.408 516.587 544.633L495.242 464.973L415.674 486.293Z" fill="#FFAE00"/>
<path d="M415.674 486.293C371.73 498.068 345.663 543.278 357.451 587.273L437.019 565.953L415.674 486.293Z" fill="#FFAE00"/>
<path d="M415.674 486.292C403.886 442.297 358.706 416.177 314.761 427.952L336.106 507.613L415.674 486.292Z" fill="#FFAE00"/>
<path d="M415.674 486.293C459.619 474.518 485.686 429.308 473.897 385.312L394.329 406.632L415.674 486.293Z" fill="#FFAE00"/>
<path d="M525.428 542.264L563.004 532.195L522.871 457.569L525.428 542.264Z" fill="#9A5027"/>
<path d="M563.005 532.195L600.577 522.128L560.444 447.501L563.005 532.195Z" fill="#9A5027"/>
<path d="M600.577 522.128L638.15 512.06L598.021 437.433L600.577 522.128Z" fill="#9A5027"/>
<path d="M635.593 427.365L638.154 512.059L675.727 501.991L635.593 427.365Z" fill="#9A5027"/>
<path d="M530.367 408.147C530.367 408.147 530.363 408.133 530.362 408.129C530.361 408.125 530.358 408.114 530.356 408.106C537.956 405.843 545.22 400.175 549.991 391.9C555.327 382.645 556.295 372.31 553.413 364.081C544.86 365.696 536.401 371.704 531.065 380.959C526.294 389.234 525.024 398.367 526.866 406.089C526.859 406.091 526.852 406.093 526.844 406.095C526.837 406.097 526.829 406.099 526.822 406.101C524.556 398.492 518.89 391.217 510.621 386.437C501.372 381.09 491.042 380.116 482.828 382.995C484.445 391.558 490.452 400.029 499.701 405.376C507.97 410.156 517.095 411.433 524.809 409.593C524.811 409.6 524.813 409.608 524.815 409.615C524.817 409.623 524.819 409.63 524.82 409.634C517.22 411.897 509.955 417.565 505.184 425.84C499.848 435.095 498.881 445.431 501.762 453.659C510.316 452.044 518.774 446.037 524.111 436.782C528.882 428.507 530.151 419.373 528.309 411.651C528.316 411.649 528.324 411.647 528.331 411.645C528.339 411.643 528.346 411.641 528.354 411.639C530.619 419.248 536.286 426.523 544.555 431.304C553.804 436.651 564.129 437.625 572.348 434.746C570.73 426.183 564.723 417.712 555.474 412.365C547.205 407.584 538.08 406.308 530.367 408.147Z" fill="#5F2300"/>
<path d="M609.938 386.827C609.938 386.827 609.934 386.812 609.933 386.808C609.932 386.804 609.929 386.793 609.927 386.786C617.527 384.522 624.791 378.854 629.563 370.58C634.899 361.325 635.866 350.989 632.985 342.761C624.431 344.375 615.973 350.383 610.636 359.638C605.865 367.913 604.596 377.046 606.438 384.768C606.43 384.77 606.423 384.772 606.416 384.774C606.408 384.776 606.401 384.778 606.397 384.779C604.131 377.171 598.465 369.896 590.196 365.115C580.947 359.768 570.618 358.794 562.403 361.673C564.021 370.236 570.027 378.707 579.276 384.054C587.545 388.834 596.671 390.111 604.384 388.271C604.386 388.279 604.388 388.286 604.39 388.293C604.392 388.301 604.394 388.308 604.395 388.312C596.795 390.575 589.531 396.243 584.76 404.518C579.423 413.773 578.456 424.109 581.337 432.337C589.891 430.723 598.35 424.715 603.686 415.46C608.457 407.185 609.726 398.051 607.884 390.329C607.892 390.327 607.899 390.325 607.903 390.324C607.906 390.323 607.918 390.32 607.925 390.318C610.191 397.927 615.857 405.202 624.126 409.983C633.375 415.33 643.701 416.304 651.919 413.425C650.301 404.862 644.295 396.391 635.046 391.044C626.777 386.263 617.652 384.987 609.938 386.827Z" fill="#9A5027"/>
<path d="M353.137 363.786C355.753 360.75 358.244 357.257 360.472 353.393C365.558 344.572 368.29 335.533 368.569 328.151C362.323 332.08 355.871 338.968 350.785 347.793C348.557 351.657 346.782 355.56 345.465 359.351C342.033 350.581 337.758 343.108 333.202 337.631C331.996 344.656 332.035 353.264 333.442 362.572C330.408 359.951 326.918 357.456 323.056 355.223C314.241 350.127 305.209 347.387 297.834 347.104C301.763 353.359 308.647 359.817 317.466 364.913C321.328 367.145 325.227 368.925 329.015 370.245C320.256 373.676 312.793 377.95 307.325 382.508C314.343 383.719 322.943 383.69 332.241 382.282C329.624 385.318 327.133 388.81 324.905 392.674C319.819 401.496 317.087 410.535 316.809 417.917C323.055 413.988 329.503 407.101 334.592 398.275C336.82 394.41 338.596 390.508 339.912 386.717C343.344 395.487 347.619 402.96 352.175 408.437C353.381 401.412 353.346 392.803 351.935 383.495C354.969 386.117 358.459 388.612 362.321 390.845C371.137 395.941 380.168 398.681 387.543 398.964C383.614 392.709 376.73 386.251 367.91 381.151C364.048 378.919 360.149 377.139 356.361 375.819C365.12 372.388 372.583 368.114 378.052 363.556C371.033 362.345 362.434 362.378 353.136 363.782" fill="#5F2300"/>
<path d="M467.107 377.645L457.62 342.24L422.257 351.716L467.107 377.645Z" fill="#9A5027"/>
<path d="M396.38 396.596L431.743 387.12L422.257 351.715L396.38 396.596Z" fill="#9A5027"/>
<path d="M377.406 325.783L386.893 361.191L422.257 351.715L377.406 325.783Z" fill="#9A5027"/>
<path d="M448.133 306.832L412.769 316.308L422.257 351.716L448.133 306.832Z" fill="#9A5027"/>
<path d="M461.392 303.279L470.879 338.687L506.247 329.211L461.392 303.279Z" fill="#FF312E"/>
<path d="M496.759 293.802L506.247 329.211L541.61 319.735L496.759 293.802Z" fill="#FF312E"/>
<path d="M470.88 338.687L480.366 374.092L515.733 364.615L470.88 338.687Z" fill="#FF312E"/>
<path d="M506.247 329.211L515.733 364.616L551.097 355.14L506.247 329.211Z" fill="#FF312E"/>
<path d="M609.32 254.159L396.936 290.114L569.771 222.853L386.461 251.022L559.296 183.761L375.986 211.929L577.895 136.879L331.323 202.947L362.747 320.224L609.32 254.159Z" fill="#FF312E"/>
<path d="M285.242 263.616L316.732 255.178L296.761 243.632L285.242 263.616Z" fill="#FFAE00"/>
<path d="M308.284 223.647L276.793 232.085L296.761 243.632L308.284 223.647Z" fill="#FFAE00"/>
<path d="M276.793 232.085L259.62 222.16L259.665 222.331L275.286 280.628L275.332 280.799L285.242 263.616L276.793 232.085Z" fill="#FFAE00"/>
<path d="M308.284 223.647L316.733 255.179L333.906 265.104L333.86 264.933L318.24 206.636L318.194 206.465L308.284 223.647Z" fill="#FFAE00"/>
<path d="M292.506 290.727L300.954 322.255L312.473 302.271L292.506 290.727Z" fill="#FFAE00"/>
<path d="M332.444 313.817L323.997 282.289L312.473 302.271L332.444 313.817Z" fill="#FFAE00"/>
<path d="M323.997 282.29L333.906 265.104L333.731 265.15L275.503 280.753L275.332 280.799L292.506 290.728L323.997 282.29Z" fill="#FFAE00"/>
<path d="M332.444 313.817L300.954 322.255L291.045 339.441L291.216 339.395L349.444 323.793L349.615 323.747L332.444 313.817Z" fill="#FFAE00"/>
<path d="M618.81 298.771L618.929 291.922C618.965 289.768 617.813 287.77 615.933 286.728L609.95 283.407L606.633 277.414C605.591 275.53 603.594 274.376 601.443 274.414L594.602 274.534L588.738 271.005C586.892 269.894 584.588 269.894 582.748 271.005L576.884 274.532L570.042 274.409C567.891 274.372 565.895 275.521 564.855 277.405L561.541 283.393L555.557 286.709C553.675 287.752 552.523 289.75 552.563 291.902L552.683 298.751L549.161 304.619C548.056 306.465 548.053 308.773 549.165 310.619L552.692 316.491L552.573 323.34C552.537 325.493 553.686 327.492 555.57 328.537L561.554 331.858L564.874 337.85C565.916 339.734 567.913 340.888 570.064 340.85L576.906 340.734L582.77 344.262C584.615 345.37 586.92 345.374 588.76 344.263L594.625 340.739L601.466 340.859C603.617 340.896 605.613 339.747 606.652 337.863L609.967 331.875L615.951 328.558C617.833 327.516 618.985 325.518 618.945 323.365L618.825 316.517L622.347 310.648C623.452 308.802 623.455 306.495 622.344 304.653L618.817 298.781L618.81 298.771ZM574.236 312.786L571.101 312.327C570.397 312.225 570.157 311.329 570.714 310.885L573.2 308.92C573.374 308.782 573.601 308.721 573.82 308.754L576.952 309.213C577.656 309.316 577.897 310.215 577.339 310.656L574.856 312.62C574.683 312.758 574.456 312.819 574.236 312.786ZM582.285 315.124L581.914 318.271C581.89 318.493 581.773 318.695 581.594 318.827L579.057 320.722C578.486 321.146 577.682 320.684 577.767 319.976L578.137 316.829C578.161 316.607 578.278 316.404 578.458 316.273L580.999 314.38C581.57 313.956 582.374 314.418 582.29 315.126M578.257 304.162L575.109 303.79C574.888 303.766 574.685 303.649 574.554 303.469L572.658 300.925C572.234 300.353 572.695 299.549 573.403 299.634L576.546 300.003C576.767 300.027 576.97 300.144 577.102 300.324L578.996 302.865C579.42 303.436 578.959 304.241 578.252 304.156M590.902 319.154L590.446 322.292C590.344 322.997 589.445 323.237 589.005 322.678L587.041 320.188C586.902 320.014 586.842 319.787 586.874 319.568L587.331 316.429C587.432 315.725 588.331 315.484 588.771 316.043L590.736 318.533C590.874 318.707 590.935 318.934 590.902 319.154ZM584.616 295.693L584.159 298.831C584.058 299.536 583.159 299.777 582.719 299.217L580.754 296.728C580.616 296.554 580.555 296.327 580.588 296.107L581.044 292.969C581.146 292.264 582.045 292.023 582.485 292.583L584.45 295.072C584.588 295.246 584.649 295.473 584.616 295.693ZM589.205 300.137L589.576 296.99C589.6 296.768 589.717 296.565 589.896 296.434L592.434 294.542C593.005 294.119 593.809 294.58 593.724 295.288L593.355 298.439C593.331 298.661 593.214 298.864 593.034 298.995L590.494 300.891C589.923 301.315 589.119 300.853 589.204 300.145M598.588 315.489L595.44 315.117C595.218 315.093 595.016 314.975 594.884 314.796L592.993 312.254C592.566 311.684 593.03 310.878 593.738 310.963L596.881 311.332C597.104 311.36 597.305 311.473 597.437 311.653L599.331 314.194C599.755 314.765 599.294 315.57 598.587 315.485M600.772 304.377L598.286 306.342C598.112 306.48 597.886 306.541 597.666 306.508L594.53 306.049C593.826 305.947 593.586 305.051 594.144 304.607L596.63 302.642C596.804 302.504 597.03 302.443 597.25 302.476L600.386 302.934C601.09 303.037 601.331 303.936 600.772 304.377Z" fill="#5F2300"/>
</g>
</g>
</g>
<path d="M673.376 591.943C667.139 593.614 660.867 589.993 659.253 583.971C657.639 577.949 661.261 571.676 667.283 570.063C673.09 568.507 679.09 571.971 680.646 577.778C681.049 579.283 681.122 580.416 681.122 580.416L665.852 584.508C667.016 586.271 669.197 587.531 672.423 586.666C676.08 585.686 677.382 582.802 677.382 582.802L681.488 586.081C681.488 586.081 679.183 590.387 673.376 591.943ZM664.699 580.207L674.162 577.671C672.999 575.908 670.817 574.648 668.451 575.282C666.085 575.916 664.826 578.098 664.699 580.207Z" fill="#9A5027"/>
<path d="M644.981 599.552C640.034 600.877 634.307 597.571 632.578 591.119C630.849 584.666 634.156 578.939 639.103 577.614C643.619 576.404 646.692 579.269 646.692 579.269L646.907 579.211L643.68 567.166L649.487 565.61L657.555 595.722L651.748 597.278L650.941 594.266L650.726 594.324C650.726 594.324 649.498 598.342 644.981 599.552ZM645.261 593.714C648.272 592.907 650.004 589.907 649.139 586.681C648.275 583.455 645.275 581.723 642.264 582.53C639.253 583.337 637.521 586.336 638.385 589.563C639.25 592.789 642.25 594.521 645.261 593.714Z" fill="#9A5027"/>
<path d="M625.308 604.362L619.661 583.284L625.468 581.728L631.116 602.806L625.308 604.362ZM621.794 579.716C619.987 580.2 618.078 579.098 617.617 577.378C617.156 575.657 618.258 573.748 620.108 573.252C621.914 572.768 623.823 573.87 624.284 575.591C624.745 577.312 623.643 579.221 621.794 579.716Z" fill="#9A5027"/>
<path d="M607.584 609.572C603.282 610.725 598.919 608.206 597.478 602.829L594.078 590.139L599.885 588.583L603.055 600.412C603.746 602.993 605.655 604.096 608.021 603.462C610.602 602.77 612.019 600.316 611.27 597.52L608.273 586.336L614.08 584.78L619.728 605.857L613.921 607.413L613.114 604.402L612.899 604.46C612.899 604.46 611.67 608.477 607.584 609.572Z" fill="#9A5027"/>
<path d="M581.19 616.875C571.942 619.353 562.943 614.157 560.637 605.554C558.332 596.951 563.528 587.952 572.776 585.474C581.164 583.226 587.08 588.096 587.08 588.096L583.931 593.55C583.931 593.55 579.767 590.055 574.39 591.496C569.013 592.937 565.864 598.391 567.305 603.768C568.746 609.145 574.2 612.294 579.577 610.853C583.878 609.7 585.61 606.701 585.61 606.701L584.631 603.044L579.039 604.543L577.655 599.381L589.7 596.153L592.754 607.553C592.754 607.553 589.794 614.57 581.19 616.875Z" fill="#9A5027"/>
<path d="M541.946 636.381C535.709 638.052 531.545 634.557 531.545 634.557L534.222 629.921C534.222 629.921 537.064 631.926 540.505 631.004C543.732 630.139 545.464 627.14 544.542 623.698L544.08 621.978L543.865 622.035C543.865 622.035 542.852 625.995 538.335 627.206C533.603 628.473 528.149 625.324 526.478 619.087C524.807 612.85 527.956 607.396 532.687 606.128C537.204 604.918 540.062 607.84 540.062 607.84L540.277 607.783L539.47 604.771L545.277 603.215L550.349 622.142C552.078 628.595 548.614 634.594 541.946 636.381ZM538.615 621.368C541.411 620.618 542.986 617.891 542.179 614.88C541.372 611.869 538.645 610.295 535.849 611.044C533.053 611.793 531.478 614.52 532.285 617.531C533.092 620.542 535.819 622.117 538.615 621.368Z" fill="#9A5027"/>
<path d="M505.125 636.565L499.477 615.487L505.284 613.931L506.091 616.942L506.306 616.885C506.306 616.885 507.535 612.867 511.621 611.772C515.923 610.62 520.286 613.139 521.727 618.516L525.127 631.205L519.32 632.761L516.15 620.932C515.459 618.351 513.55 617.249 511.184 617.883C508.603 618.574 507.186 621.029 507.935 623.825L510.932 635.009L505.125 636.565Z" fill="#9A5027"/>
<path d="M493.741 639.616L488.093 618.538L493.9 616.982L499.548 638.06L493.741 639.616ZM490.226 614.97C488.419 615.454 486.51 614.352 486.049 612.631C485.588 610.91 486.69 609.001 488.54 608.506C490.347 608.022 492.256 609.124 492.717 610.844C493.178 612.565 492.076 614.474 490.226 614.97Z" fill="#9A5027"/>
<path d="M475.354 645.003C470.407 646.329 464.681 643.022 462.952 636.57C461.223 630.117 464.529 624.39 469.476 623.065C473.993 621.855 477.065 624.72 477.065 624.72L477.281 624.662L474.053 612.618L479.86 611.062L487.929 641.173L482.121 642.729L481.315 639.718L481.1 639.775C481.1 639.775 479.871 643.793 475.354 645.003ZM475.634 639.165C478.645 638.358 480.377 635.358 479.513 632.132C478.648 628.906 475.648 627.174 472.637 627.981C469.626 628.788 467.894 631.788 468.759 635.014C469.623 638.24 472.623 639.972 475.634 639.165Z" fill="#9A5027"/>
<path d="M441.483 653.618L435.836 632.54L441.643 630.984L442.45 633.995L442.665 633.937C442.665 633.937 443.893 629.92 447.98 628.825C452.282 627.672 456.645 630.192 458.086 635.568L461.486 648.258L455.679 649.814L452.509 637.985C451.817 635.404 449.908 634.302 447.543 634.936C444.962 635.627 443.545 638.082 444.294 640.878L447.291 652.062L441.483 653.618Z" fill="#9A5027"/>
<path d="M423.759 658.828C419.457 659.981 415.094 657.462 413.653 652.085L410.253 639.395L416.06 637.839L419.23 649.668C419.921 652.249 421.83 653.351 424.196 652.717C426.777 652.026 428.194 649.572 427.445 646.776L424.448 635.591L430.255 634.035L435.903 655.113L430.096 656.669L429.289 653.658L429.074 653.716C429.074 653.716 427.845 657.733 423.759 658.828Z" fill="#9A5027"/>
<path d="M391.183 667.096L383.115 636.985L405.268 631.049L406.882 637.071L391.181 641.278L393.083 648.376L405.343 645.091L406.956 651.113L394.697 654.398L397.636 665.367L391.183 667.096Z" fill="#9A5027"/>
</g>
<rect x="165.788" y="154.451" width="470.073" height="634.598" rx="21.6481" transform="rotate(-15 165.788 154.451)" stroke="#FFAE00" stroke-width="6.18517"/>
<defs>
<clipPath id="clip0_1460_7520">
<rect x="162" y="152.265" width="476.258" height="640.783" rx="24.7407" transform="rotate(-15 162 152.265)" fill="white"/>
</clipPath>
<clipPath id="clip1_1460_7520">
<rect width="369.873" height="415.643" fill="white" transform="translate(232.59 210.191) rotate(-15)"/>
</clipPath>
</defs>
</svg>
