<?xml version="1.0" encoding="UTF-8"?><svg id="Layer_1" xmlns="http://www.w3.org/2000/svg" xmlns:xlink="http://www.w3.org/1999/xlink" viewBox="0 0 918.26 1080"><defs><clipPath id="clippath"><rect x="-1001.74" width="1920" height="1080" style="fill:none;"/></clipPath></defs><rect x=".02" width="918.24" height="1080" style="fill:#f7192e;"/><g style="clip-path:url(#clippath);"><path d="M647.35,238.56c41.12,0,74.45-32.67,74.45-72.97h-74.45v72.97Z" style="fill:#fff9f5;"/><path d="M647.35,238.56c0,40.3,33.33,72.97,74.45,72.97v-72.97h-74.45Z" style="fill:#fff9f5;"/><path d="M647.35,238.56c-41.12,0-74.45,32.67-74.45,72.97h74.45v-72.97Z" style="fill:#fff9f5;"/><path d="M647.35,238.56c0-40.3-33.33-72.97-74.45-72.97v72.97h74.45Z" style="fill:#fff9f5;"/><polygon points="356.56 680.11 356.56 634.41 333.24 657.26 356.56 680.11" style="fill:#fff9f5;"/><polygon points="309.92 634.41 309.92 680.11 333.24 657.26 309.92 634.41" style="fill:#fff9f5;"/><polygon points="309.92 680.11 289.87 699.76 290.13 699.76 376.35 699.76 376.61 699.76 356.56 680.11 309.92 680.11" style="fill:#fff9f5;"/><polygon points="309.92 634.41 309.92 634.41 356.56 634.41 376.61 614.76 376.35 614.76 290.13 614.76 289.87 614.76 309.92 634.41" style="fill:#fff9f5;"/><polygon points="396.66 680.11 443.29 680.11 419.97 657.26 396.66 680.11" style="fill:#fff9f5;"/><polygon points="443.29 634.41 396.66 634.41 419.97 657.26 443.29 634.41" style="fill:#fff9f5;"/><polygon points="396.66 634.41 376.61 614.76 376.61 615.01 376.61 699.51 376.61 699.76 396.66 680.11 396.66 634.41" style="fill:#fff9f5;"/><polygon points="443.29 634.41 443.29 680.11 463.34 699.76 463.34 699.51 463.34 615.01 463.34 614.76 443.29 634.41" style="fill:#fff9f5;"/><path d="M277.17,205.83l2.13-7.58c.67-2.38,0-4.95-1.75-6.67l-5.56-5.48-1.87-7.65c-.59-2.41-2.43-4.28-4.79-4.88l-7.5-1.91-5.37-5.67c-1.69-1.78-4.2-2.47-6.54-1.79l-7.43,2.17-7.43-2.17c-2.33-.68-4.85,0-6.54,1.79l-5.37,5.67-7.5,1.91c-2.36.6-4.2,2.48-4.79,4.88l-1.87,7.65-5.56,5.48c-1.75,1.72-2.42,4.29-1.75,6.67l2.13,7.58-2.13,7.58c-.67,2.38,0,4.95,1.75,6.67l5.56,5.48,1.87,7.65c.59,2.41,2.43,4.28,4.79,4.88l7.5,1.91,5.37,5.67c1.69,1.78,4.2,2.47,6.54,1.79l7.43-2.17,7.43,2.17c2.34.68,4.85,0,6.54-1.79l5.37-5.67,7.5-1.91c2.36-.6,4.2-2.48,4.79-4.88l1.87-7.65,5.56-5.48c1.75-1.72,2.42-4.29,1.75-6.67l-2.13-7.58ZM224.43,208.14l-3.29-1.44c-.74-.33-.74-1.39,0-1.72l3.29-1.44c.23-.1.49-.1.72,0l3.29,1.44c.74.32.74,1.39,0,1.72l-3.29,1.44c-.23.1-.49.1-.72,0M232.53,213.14l-1.32,3.39c-.09.24-.28.43-.51.52l-3.32,1.35c-.75.3-1.49-.45-1.19-1.21l1.32-3.39c.09-.24.28-.43.51-.52l3.32-1.35c.75-.3,1.49.45,1.19,1.21M231.34,199.75l-3.32-1.35c-.23-.1-.42-.28-.51-.52l-1.32-3.39c-.3-.76.44-1.52,1.19-1.22l3.32,1.35c.23.1.42.28.51.52l1.32,3.39c.3.76-.44,1.52-1.19,1.21M240.75,220.19l-1.42,3.35c-.32.75-1.36.75-1.68,0l-1.42-3.35c-.1-.24-.1-.5,0-.74l1.42-3.35c.32-.75,1.37-.75,1.68,0l1.42,3.35c.1.24.1.5,0,.74M240.75,192.22l-1.42,3.35c-.32.75-1.37.75-1.68,0l-1.42-3.35c-.1-.24-.1-.5,0-.74l1.42-3.35c.32-.75,1.37-.75,1.68,0l1.42,3.35c.1.24.1.5,0,.74M244.46,198.53l1.32-3.39c.09-.24.28-.43.51-.52l3.32-1.35c.75-.3,1.49.45,1.19,1.22l-1.32,3.39c-.09.24-.28.43-.51.52l-3.32,1.35c-.75.3-1.49-.45-1.19-1.21M250.21,218.4l-3.32-1.35c-.23-.1-.42-.28-.51-.52l-1.32-3.39c-.3-.76.44-1.52,1.19-1.21l3.32,1.35c.23.1.42.28.51.52l1.32,3.39c.3.76-.44,1.52-1.19,1.21M255.85,206.69l-3.29,1.44c-.23.1-.49.1-.72,0l-3.29-1.44c-.74-.33-.74-1.39,0-1.72l3.29-1.44c.23-.1.49-.1.72,0l3.29,1.44c.74.32.74,1.39,0,1.72" style="fill:#fff9f5;"/><polygon points="308.25 246.07 297.29 216.23 297.29 246.07 285.93 246.07 285.93 165.59 297.29 165.59 297.29 195.24 306.21 165.59 317.57 165.59 305.05 205.83 319.61 246.07 308.25 246.07" style="fill:#fff9f5;"/><rect x="320.22" y="165.59" width="11.36" height="80.48" style="fill:#fff9f5;"/><path d="M357.04,246.07c-.34-.97-.48-2.62-.61-4.57-2.52,3.69-6.4,5.83-9.59,5.83-5.65,0-10.89-5.64-10.89-17.4v-18.86c0-15.55,10.48-13.32,20.35-15.45v-12.44c0-3.4-1.63-5.83-4.49-5.83s-4.49,2.53-4.49,5.93v9.04h-11.36v-11.76c0-10.4,6.19-16.62,15.85-16.62s15.85,6.22,15.85,16.62v57.25c0,3.5.2,6.71.61,8.26h-11.23ZM356.29,209.04c-4.69,1.07-8.98,1.17-8.98,7.19v12.15c0,3.4,1.7,5.93,4.49,5.93s4.29-2.04,4.49-5.05v-20.22Z" style="fill:#fff9f5;"/><path d="M382.48,180.56c0-10.4,6.12-16.62,15.79-16.62s15.92,6.22,15.92,16.62v51.61c0,10.4-6.12,15.55-15.85,15.55s-15.86-5.15-15.86-15.55v-51.61ZM402.83,183.28c0-3.4-1.7-5.93-4.56-5.93s-4.42,2.43-4.42,5.83v45.2c0,3.4,1.7,5.93,4.49,5.93s4.49-2.43,4.49-5.83v-45.2Z" style="fill:#fff9f5;"/><path d="M440.05,246.07c-.75-2.53-.75-9.52-.75-14.68v-13.02c0-4.47-.89-7.1-3.74-7.1h-5.24v34.8h-11.36v-80.48h22.12c9.39,0,9.59,9.53,9.59,17.89v2.33c0,7.97-.2,17.79-9.53,19.05,9.32,1.07,9.53,9.91,9.53,17.79v12.05c0,4.47.07,9.33.61,11.37h-11.23ZM439.3,186.01c0-4.47-.89-7-3.74-7h-5.24v18.86h5.24c2.86,0,3.74-2.53,3.74-7v-4.86Z" style="fill:#fff9f5;"/><path d="M475.23,246.07c-.34-.97-.48-2.62-.61-4.57-2.52,3.69-6.4,5.83-9.59,5.83-5.65,0-10.89-5.64-10.89-17.4v-18.86c0-15.55,10.48-13.32,20.35-15.45v-12.44c0-3.4-1.63-5.83-4.49-5.83s-4.49,2.53-4.49,5.93v9.04h-11.36v-11.76c0-10.4,6.19-16.62,15.85-16.62s15.85,6.22,15.85,16.62v57.25c0,3.5.2,6.71.61,8.26h-11.23ZM474.48,209.04c-4.69,1.07-8.98,1.17-8.98,7.19v12.15c0,3.4,1.7,5.93,4.49,5.93s4.29-2.04,4.49-5.05v-20.22Z" style="fill:#fff9f5;"/><path d="M501.43,165.59l.68,4.76c2.52-3.98,6.12-6.03,9.46-6.03,5.65,0,10.89,5.64,10.89,17.4v64.35h-11.36v-62.79c0-3.4-1.7-5.93-4.49-5.93s-4.35,2.23-4.49,5.34v63.37h-11.36v-80.48h10.68Z" style="fill:#fff9f5;"/><path d="M547.77,246.07c-.34-.97-.48-2.62-.61-4.57-2.52,3.69-6.4,5.83-9.59,5.83-5.65,0-10.89-5.64-10.89-17.4v-18.86c0-15.55,10.48-13.32,20.35-15.45v-12.44c0-3.4-1.63-5.83-4.49-5.83s-4.49,2.53-4.49,5.93v9.04h-11.36v-11.76c0-10.4,6.19-16.62,15.85-16.62s15.86,6.22,15.86,16.62v57.25c0,3.5.2,6.71.61,8.26h-11.23ZM547.02,209.04c-4.69,1.07-8.98,1.17-8.98,7.19v12.15c0,3.4,1.7,5.93,4.49,5.93s4.29-2.04,4.49-5.05v-20.22Z" style="fill:#fff9f5;"/><polygon points="218.59 772.51 207.93 747.75 207.93 772.51 196.87 772.51 196.87 705.72 207.93 705.72 207.93 730.32 216.61 705.72 227.67 705.72 215.48 739.12 229.65 772.51 218.59 772.51" style="fill:#fff9f5;"/><path d="M229.2,718.15c0-8.63,5.96-13.79,15.37-13.79s15.5,5.16,15.5,13.79v42.83c0,8.63-5.96,12.91-15.43,12.91s-15.43-4.27-15.43-12.91v-42.83ZM249,720.4c0-2.82-1.66-4.92-4.44-4.92s-4.3,2.02-4.3,4.84v37.51c0,2.82,1.65,4.92,4.37,4.92s4.37-2.02,4.37-4.84v-37.51Z" style="fill:#fff9f5;"/><path d="M282.45,705.72l.66,3.95c2.45-3.31,5.96-5,9.21-5,5.5,0,10.6,4.68,10.6,14.44v53.4h-11.06v-52.11c0-2.82-1.66-4.92-4.37-4.92s-4.24,1.85-4.37,4.44v52.59h-11.06v-66.79h10.4Z" style="fill:#fff9f5;"/><path d="M328.22,772.51c-.33-.81-.46-2.18-.59-3.79-2.45,3.07-6.23,4.84-9.34,4.84-5.5,0-10.6-4.68-10.6-14.44v-15.65c0-12.91,10.2-11.05,19.8-12.83v-10.32c0-2.82-1.59-4.84-4.37-4.84s-4.37,2.1-4.37,4.92v7.5h-11.06v-9.76c0-8.63,6.03-13.79,15.43-13.79s15.43,5.16,15.43,13.79v47.51c0,2.9.2,5.57.59,6.86h-10.93ZM327.49,741.78c-4.57.89-8.74.97-8.74,5.97v10.08c0,2.82,1.66,4.92,4.37,4.92s4.17-1.69,4.37-4.19v-16.78Z" style="fill:#fff9f5;"/><polygon points="384.78 772.51 384.78 720.16 379.75 772.51 365.64 772.51 360.61 720.16 360.61 772.51 350.67 772.51 350.67 705.72 368.03 705.72 372.66 755.25 377.36 705.72 394.65 705.72 394.65 772.51 384.78 772.51" style="fill:#fff9f5;"/><path d="M420.09,772.51c-.33-.81-.46-2.18-.6-3.79-2.45,3.07-6.23,4.84-9.34,4.84-5.5,0-10.6-4.68-10.6-14.44v-15.65c0-12.91,10.2-11.05,19.81-12.83v-10.32c0-2.82-1.59-4.84-4.37-4.84s-4.37,2.1-4.37,4.92v7.5h-11.06v-9.76c0-8.63,6.03-13.79,15.43-13.79s15.43,5.16,15.43,13.79v47.51c0,2.9.2,5.57.6,6.86h-10.93ZM419.37,741.78c-4.57.89-8.74.97-8.74,5.97v10.08c0,2.82,1.66,4.92,4.37,4.92s4.17-1.69,4.37-4.19v-16.78Z" style="fill:#fff9f5;"/><path d="M456.2,772.51l-.66-3.95c-2.45,3.31-5.96,5-9.21,5-5.5,0-10.6-4.68-10.6-14.44v-53.4h11.06v52.11c0,2.82,1.66,4.92,4.37,4.92s4.24-1.85,4.37-4.44v-52.59h11.06v66.79h-10.4Z" style="fill:#fff9f5;"/><path d="M492.83,772.51c-.73-2.1-.73-7.9-.73-12.18v-10.81c0-3.71-.86-5.89-3.64-5.89h-5.1v28.88h-11.06v-66.79h21.53c9.14,0,9.34,7.91,9.34,14.84v1.94c0,6.62-.2,14.76-9.27,15.81,9.07.89,9.27,8.23,9.27,14.76v10c0,3.71.07,7.74.6,9.44h-10.93ZM492.1,722.66c0-3.71-.86-5.81-3.64-5.81h-5.1v15.65h5.1c2.78,0,3.64-2.1,3.64-5.81v-4.03Z" style="fill:#fff9f5;"/><rect x="508" y="705.72" width="11.06" height="66.79" style="fill:#fff9f5;"/><path d="M346.58,349.14v-88.14h34.06c14.69,0,15.01,10.43,15.01,19.58v2.56c0,8.73-.32,19.48-14.37,20.86,14.59,1.17,14.9,10.86,14.9,19.48v6.07c0,9.16-.32,19.59-15.01,19.59h-34.59ZM377.88,283.35c0-4.9-1.39-7.67-5.86-7.67h-7.66v20.65h7.66c4.47,0,5.86-2.77,5.86-7.66v-5.32ZM378.41,318.8c0-4.9-1.39-7.77-5.86-7.77h-8.2v23.42h8.2c4.47,0,5.86-2.77,5.86-7.66v-7.98Z" style="fill:#fff9f5;"/><path d="M438.54,349.14l-1.06-5.22c-3.94,4.36-9.58,6.6-14.8,6.6-8.83,0-17.03-6.17-17.03-19.05v-70.46h17.78v68.76c0,3.73,2.66,6.49,7.03,6.49s6.81-2.45,7.03-5.86v-69.4h17.78v88.14h-16.71Z" style="fill:#fff9f5;"/><polygon points="466.53 349.14 466.53 261 484.3 261 484.3 334.45 503.46 334.45 503.46 349.14 466.53 349.14" style="fill:#fff9f5;"/><path d="M541.78,349.14c-.53-1.07-.75-2.88-.96-5-3.94,4.04-10.01,6.39-15.01,6.39-8.84,0-17.03-6.17-17.03-19.05v-20.65c0-17.03,16.39-14.58,31.83-16.92v-13.62c0-3.72-2.56-6.39-7.03-6.39s-7.03,2.77-7.03,6.49v9.9h-17.78v-12.88c0-11.39,9.69-18.2,24.8-18.2s24.8,6.81,24.8,18.2v62.7c0,3.83.32,7.35.96,9.05h-17.56ZM540.61,308.58c-7.34,1.17-14.05,1.28-14.05,7.88v13.31c0,3.73,2.66,6.49,7.03,6.49s6.71-2.23,7.03-5.54v-22.14Z" style="fill:#fff9f5;"/><polygon points="199.24 606.63 199.24 545.56 221.46 545.56 221.46 555.74 210.32 555.74 210.32 570.05 221.06 570.05 221.06 580.23 210.32 580.23 210.32 606.63 199.24 606.63" style="fill:#fff9f5;"/><path d="M245.47,606.63c-.33-.74-.46-1.99-.6-3.47-2.45,2.8-6.23,4.43-9.35,4.43-5.5,0-10.61-4.28-10.61-13.2v-14.31c0-11.8,10.21-10.11,19.83-11.73v-9.44c0-2.58-1.59-4.43-4.38-4.43s-4.38,1.92-4.38,4.5v6.86h-11.07v-8.93c0-7.89,6.03-12.61,15.45-12.61s15.45,4.72,15.45,12.61v43.44c0,2.65.2,5.09.6,6.27h-10.94ZM244.74,578.53c-4.57.81-8.75.88-8.75,5.46v9.22c0,2.58,1.66,4.5,4.38,4.5s4.18-1.55,4.38-3.83v-15.34Z" style="fill:#fff9f5;"/><path d="M281.94,606.63c-.6-1.92-.73-7.23-.73-11.14v-10.77c0-2.51-1.72-4.5-4.44-4.5h-4.44v26.4h-11.07v-61.07h11.07v24.64h4.51c2.72,0,4.38-1.92,4.38-4.43v-20.21h11.01v19.18c0,5.09-2.52,8.56-6.76,10.33,4.24,1.77,6.76,5.16,6.76,10.25v12.69c0,3.39.06,7.08.6,8.63h-10.88Z" style="fill:#fff9f5;"/><path d="M317.15,606.63c-.33-.74-.46-1.99-.6-3.47-2.45,2.8-6.23,4.43-9.35,4.43-5.5,0-10.61-4.28-10.61-13.2v-14.31c0-11.8,10.21-10.11,19.83-11.73v-9.44c0-2.58-1.59-4.43-4.38-4.43s-4.38,1.92-4.38,4.5v6.86h-11.07v-8.92c0-7.89,6.03-12.61,15.45-12.61s15.45,4.72,15.45,12.61v43.44c0,2.65.2,5.09.6,6.27h-10.94ZM316.42,578.53c-4.57.81-8.75.88-8.75,5.46v9.22c0,2.58,1.66,4.5,4.38,4.5s4.18-1.55,4.38-3.83v-15.34Z" style="fill:#fff9f5;"/><path d="M352.7,606.63c-.33-.74-.46-1.99-.6-3.47-2.45,2.8-6.23,4.43-9.35,4.43-5.5,0-10.61-4.28-10.61-13.2v-14.31c0-11.8,10.21-10.11,19.83-11.73v-9.44c0-2.58-1.59-4.43-4.38-4.43s-4.38,1.92-4.38,4.5v6.86h-11.07v-8.92c0-7.89,6.03-12.61,15.45-12.61s15.45,4.72,15.45,12.61v43.44c0,2.65.2,5.09.6,6.27h-10.94ZM351.97,578.53c-4.57.81-8.75.88-8.75,5.46v9.22c0,2.58,1.66,4.5,4.38,4.5s4.18-1.55,4.38-3.83v-15.34Z" style="fill:#fff9f5;"/><polygon points="368.49 606.63 368.49 545.56 379.56 545.56 379.56 596.45 391.5 596.45 391.5 606.63 368.49 606.63" style="fill:#fff9f5;"/><path d="M393.89,556.92c0-7.89,5.97-12.61,15.38-12.61s15.52,4.72,15.52,12.61v39.17c0,7.89-5.97,11.8-15.45,11.8s-15.45-3.91-15.45-11.8v-39.17ZM413.71,558.98c0-2.58-1.66-4.5-4.44-4.5s-4.31,1.84-4.31,4.43v34.3c0,2.58,1.66,4.5,4.38,4.5s4.38-1.84,4.38-4.42v-34.3Z" style="fill:#fff9f5;"/><polygon points="430.1 606.63 430.1 545.56 452.31 545.56 452.31 555.74 441.17 555.74 441.17 570.05 451.91 570.05 451.91 580.23 441.17 580.23 441.17 606.63 430.1 606.63" style="fill:#fff9f5;"/><path d="M476.32,606.63c-.33-.74-.46-1.99-.6-3.47-2.45,2.8-6.23,4.43-9.35,4.43-5.5,0-10.61-4.28-10.61-13.2v-14.31c0-11.8,10.21-10.11,19.83-11.73v-9.44c0-2.58-1.59-4.43-4.38-4.43s-4.38,1.92-4.38,4.5v6.86h-11.07v-8.92c0-7.89,6.03-12.61,15.45-12.61s15.45,4.72,15.45,12.61v43.44c0,2.65.2,5.09.6,6.27h-10.94ZM475.59,578.53c-4.57.81-8.75.88-8.75,5.46v9.22c0,2.58,1.66,4.5,4.38,4.5s4.18-1.55,4.38-3.83v-15.34Z" style="fill:#fff9f5;"/><polygon points="502.84 606.63 502.84 545.56 513.92 545.56 513.92 596.45 525.85 596.45 525.85 606.63 502.84 606.63" style="fill:#fff9f5;"/><path d="M548.4,606.63c-.33-.74-.46-1.99-.6-3.47-2.45,2.8-6.23,4.43-9.35,4.43-5.5,0-10.61-4.28-10.61-13.2v-14.31c0-11.8,10.21-10.11,19.83-11.73v-9.44c0-2.58-1.59-4.43-4.38-4.43s-4.38,1.92-4.38,4.5v6.86h-11.07v-8.92c0-7.89,6.03-12.61,15.45-12.61s15.45,4.72,15.45,12.61v43.44c0,2.65.2,5.09.6,6.27h-10.94ZM547.67,578.53c-4.57.81-8.75.88-8.75,5.46v9.22c0,2.58,1.66,4.5,4.38,4.5s4.18-1.55,4.38-3.83v-15.34Z" style="fill:#fff9f5;"/><polygon points="584.02 606.63 584.02 580.23 575.26 580.23 575.26 606.63 564.19 606.63 564.19 545.56 575.26 545.56 575.26 570.05 584.02 570.05 584.02 545.56 595.09 545.56 595.09 606.63 584.02 606.63" style="fill:#fff9f5;"/><rect x="600.8" y="545.56" width="11.07" height="61.07" style="fill:#fff9f5;"/><path d="M648.08,606.63c-.33-.74-.46-1.99-.6-3.47-2.45,2.8-6.23,4.43-9.35,4.43-5.5,0-10.61-4.28-10.61-13.2v-14.31c0-11.8,10.21-10.11,19.83-11.73v-9.44c0-2.58-1.59-4.43-4.38-4.43s-4.38,1.92-4.38,4.5v6.86h-11.07v-8.92c0-7.89,6.03-12.61,15.45-12.61s15.45,4.72,15.45,12.61v43.44c0,2.65.2,5.09.6,6.27h-10.94ZM647.35,578.53c-4.57.81-8.75.88-8.75,5.46v9.22c0,2.58,1.66,4.5,4.38,4.5s4.18-1.55,4.38-3.83v-15.34Z" style="fill:#fff9f5;"/><polygon points="668.37 606.63 668.37 555.74 660.95 555.74 660.95 545.56 686.94 545.56 686.94 555.74 679.45 555.74 679.45 606.63 668.37 606.63" style="fill:#fff9f5;"/><path d="M710.28,606.63l-.66-3.61c-2.45,3.02-5.97,4.57-9.22,4.57-5.5,0-10.61-4.28-10.61-13.2v-48.83h11.07v47.65c0,2.58,1.66,4.5,4.38,4.5s4.24-1.7,4.38-4.06v-48.09h11.07v61.07h-10.41Z" style="fill:#fff9f5;"/><polygon points="607.09 441.79 607.09 391.35 591.31 391.35 591.31 441.79 571.34 441.79 571.34 325.13 591.31 325.13 591.31 371.91 607.09 371.91 607.09 325.13 627.06 325.13 627.06 441.79 607.09 441.79" style="fill:#fff9f5;"/><path d="M672.99,441.79c-.6-1.41-.84-3.8-1.08-6.62-4.42,5.35-11.24,8.45-16.86,8.45-9.93,0-19.14-8.17-19.14-25.22v-27.33c0-22.54,18.42-19.3,35.76-22.4v-18.03c0-4.93-2.87-8.45-7.89-8.45s-7.89,3.66-7.89,8.59v13.11h-19.97v-17.05c0-15.08,10.88-24.09,27.86-24.09s27.86,9.02,27.86,24.09v82.99c0,5.07.36,9.72,1.08,11.98h-19.73ZM671.67,388.11c-8.25,1.55-15.79,1.69-15.79,10.43v17.61c0,4.93,2.99,8.59,7.89,8.59s7.53-2.96,7.89-7.33v-29.31Z" style="fill:#fff9f5;"/><rect x="701.45" y="325.13" width="19.97" height="116.66" style="fill:#fff9f5;"/><polygon points="577.42 765.92 538.1 765.92 538.1 772.19 530.24 772.19 530.24 750.26 538.1 750.26 538.1 756.58 577.42 756.58 577.42 765.92" style="fill:#fff9f5;"/><path d="M577.42,731.08c-.57.28-1.54.39-2.68.5,2.17,2.07,3.42,5.26,3.42,7.89,0,4.64-3.3,8.95-10.2,8.95h-11.05c-9.12,0-7.81-8.61-9.06-16.72h-7.29c-1.99,0-3.42,1.34-3.42,3.69s1.48,3.69,3.48,3.69h5.3v9.34h-6.9c-6.1,0-9.74-5.09-9.74-13.03s3.65-13.03,9.74-13.03h33.56c2.05,0,3.93-.17,4.84-.5v9.23ZM555.71,731.7c.63,3.86.68,7.38,4.22,7.38h7.12c1.99,0,3.48-1.4,3.48-3.69s-1.2-3.52-2.96-3.69h-11.85Z" style="fill:#fff9f5;"/><polygon points="577.42 717.77 530.24 717.77 530.24 708.43 569.56 708.43 569.56 698.37 577.42 698.37 577.42 717.77" style="fill:#fff9f5;"/><path d="M539.01,696.36c-6.1,0-9.74-5.03-9.74-12.98s3.65-13.09,9.74-13.09h30.26c6.1,0,9.12,5.03,9.12,13.03s-3.02,13.03-9.12,13.03h-30.26ZM540.61,679.63c-1.99,0-3.48,1.4-3.48,3.75s1.42,3.63,3.42,3.63h26.5c1.99,0,3.47-1.4,3.47-3.69s-1.42-3.69-3.42-3.69h-26.5Z" style="fill:#fff9f5;"/><polygon points="577.42 665.82 530.24 665.82 530.24 647.09 538.1 647.09 538.1 656.48 549.16 656.48 549.16 647.42 557.02 647.42 557.02 656.48 577.42 656.48 577.42 665.82" style="fill:#fff9f5;"/><path d="M577.42,626.84c-.57.28-1.54.39-2.68.5,2.17,2.07,3.42,5.26,3.42,7.89,0,4.64-3.3,8.95-10.2,8.95h-11.05c-9.12,0-7.81-8.61-9.06-16.72h-7.29c-1.99,0-3.42,1.34-3.42,3.69s1.48,3.69,3.48,3.69h5.3v9.34h-6.9c-6.1,0-9.74-5.09-9.74-13.03s3.65-13.03,9.74-13.03h33.56c2.05,0,3.93-.17,4.84-.5v9.23ZM555.71,627.46c.63,3.86.68,7.38,4.22,7.38h7.12c1.99,0,3.48-1.4,3.48-3.69s-1.2-3.52-2.96-3.69h-11.85Z" style="fill:#fff9f5;"/><polygon points="264.51 913.35 264.51 809.76 254.53 913.35 226.55 913.35 216.57 809.76 216.57 913.35 196.87 913.35 196.87 781.19 231.28 781.19 240.48 879.19 249.8 781.19 284.08 781.19 284.08 913.35 264.51 913.35" style="fill:#fff9f5;"/><path d="M334.53,913.35c-.66-1.6-.92-4.31-1.18-7.5-4.86,6.06-12.35,9.58-18.52,9.58-10.9,0-21.02-9.26-21.02-28.57v-30.96c0-25.54,20.23-21.87,39.27-25.38v-20.43c0-5.58-3.15-9.58-8.67-9.58s-8.67,4.15-8.67,9.74v14.85h-21.94v-19.31c0-17.08,11.95-27.3,30.6-27.3s30.6,10.21,30.6,27.3v94.01c0,5.75.4,11.01,1.18,13.57h-21.67ZM333.08,852.53c-9.06,1.76-17.34,1.92-17.34,11.81v19.95c0,5.58,3.28,9.74,8.67,9.74s8.27-3.35,8.67-8.3v-33.2Z" style="fill:#fff9f5;"/><polygon points="365.66 913.35 365.66 781.19 387.6 781.19 387.6 891.32 411.24 891.32 411.24 913.35 365.66 913.35" style="fill:#fff9f5;"/><path d="M415.97,805.77c0-17.08,11.82-27.3,30.47-27.3s30.73,10.21,30.73,27.3v84.75c0,17.08-11.82,25.54-30.6,25.54s-30.6-8.46-30.6-25.54v-84.75ZM455.24,810.24c0-5.58-3.29-9.74-8.8-9.74s-8.54,3.99-8.54,9.58v74.22c0,5.58,3.28,9.74,8.67,9.74s8.67-3.99,8.67-9.58v-74.22Z" style="fill:#fff9f5;"/><polygon points="518.02 868.8 508.16 799.42 508.16 868.8 489.68 868.8 489.68 780.29 520.61 780.29 529.97 846.03 529.97 780.29 548.46 780.29 548.46 868.8 518.02 868.8" style="fill:#fff9f5;"/><rect x="559.06" y="780.29" width="20.58" height="88.51" style="fill:#fff9f5;"/><polygon points="386.83 536.52 386.83 474.28 381.28 536.52 365.71 536.52 360.16 474.28 360.16 536.52 349.19 536.52 349.19 457.11 368.34 457.11 373.46 515.99 378.65 457.11 397.72 457.11 397.72 536.52 386.83 536.52" style="fill:#fff9f5;"/><path d="M425.78,536.52c-.37-.96-.51-2.59-.66-4.51-2.71,3.64-6.87,5.75-10.3,5.75-6.07,0-11.69-5.56-11.69-17.17v-18.61c0-15.34,11.26-13.14,21.85-15.25v-12.28c0-3.36-1.75-5.76-4.82-5.76s-4.82,2.49-4.82,5.85v8.92h-12.2v-11.61c0-10.26,6.65-16.4,17.03-16.4s17.03,6.14,17.03,16.4v56.49c0,3.45.22,6.62.66,8.15h-12.06ZM424.97,499.98c-5.04,1.05-9.65,1.15-9.65,7.1v11.99c0,3.36,1.83,5.85,4.82,5.85s4.6-2.01,4.82-4.99v-19.95Z" style="fill:#fff9f5;"/><polygon points="443.09 536.52 443.09 457.11 455.3 457.11 455.3 523.29 468.45 523.29 468.45 536.52 443.09 536.52" style="fill:#fff9f5;"/><path d="M471.08,471.88c0-10.26,6.58-16.4,16.96-16.4s17.1,6.14,17.1,16.4v50.93c0,10.26-6.58,15.34-17.03,15.34s-17.03-5.08-17.03-15.34v-50.93ZM492.93,474.56c0-3.36-1.83-5.85-4.9-5.85s-4.75,2.4-4.75,5.76v44.59c0,3.36,1.83,5.85,4.82,5.85s4.82-2.4,4.82-5.75v-44.6Z" style="fill:#fff9f5;"/><path d="M556.43,522.81c0,10.26-6.58,15.34-17.03,15.34s-17.03-5.08-17.03-15.34v-50.93c0-10.26,6.58-16.4,16.95-16.4s17.1,6.14,17.1,16.4v30.31h-21.85v16.88c0,3.36,1.83,5.85,4.82,5.85s4.82-2.4,4.82-5.75v-11.51h12.21v15.15ZM544.23,474.56c0-3.36-1.83-5.85-4.9-5.85s-4.75,2.4-4.75,5.76v14.48h9.65v-14.39Z" style="fill:#fff9f5;"/><polygon points="573.89 536.52 573.89 457.11 586.1 457.11 586.1 523.29 599.25 523.29 599.25 536.52 573.89 536.52" style="fill:#fff9f5;"/><path d="M635.93,522.81c0,10.26-6.58,15.34-17.03,15.34s-17.03-5.08-17.03-15.34v-50.93c0-10.26,6.58-16.4,16.95-16.4s17.1,6.14,17.1,16.4v30.31h-21.85v16.88c0,3.36,1.83,5.85,4.82,5.85s4.82-2.4,4.82-5.75v-11.51h12.21v15.15ZM623.73,474.56c0-3.36-1.83-5.85-4.9-5.85s-4.75,2.4-4.75,5.76v14.48h9.65v-14.39Z" style="fill:#fff9f5;"/><polygon points="641.55 536.52 641.55 457.11 653.76 457.11 653.76 523.29 666.91 523.29 666.91 536.52 641.55 536.52" style="fill:#fff9f5;"/><path d="M703.6,522.81c0,10.26-6.58,15.34-17.03,15.34s-17.03-5.08-17.03-15.34v-50.93c0-10.26,6.58-16.4,16.95-16.4s17.1,6.14,17.1,16.4v30.31h-21.85v16.88c0,3.36,1.83,5.85,4.82,5.85s4.82-2.4,4.82-5.75v-11.51h12.21v15.15ZM691.39,474.56c0-3.36-1.83-5.85-4.9-5.85s-4.75,2.4-4.75,5.76v14.48h9.65v-14.39Z" style="fill:#fff9f5;"/><rect x="709.22" y="457.11" width="12.21" height="79.41" style="fill:#fff9f5;"/><polygon points="718.16 882.5 672.36 898.97 718.16 898.97 718.16 916.06 594.63 916.06 594.63 898.97 640.14 898.97 594.63 885.57 594.63 868.48 656.4 887.31 718.16 865.41 718.16 882.5" style="fill:#fff9f5;"/><rect x="594.63" y="846.38" width="123.53" height="17.09" style="fill:#fff9f5;"/><path d="M718.16,807.09c-1.49.51-4.03.72-7.01.92,5.67,3.79,8.95,9.62,8.95,14.43,0,8.49-8.65,16.37-26.7,16.37h-28.94c-23.87,0-20.44-15.76-23.72-30.59h-19.1c-5.22,0-8.95,2.46-8.95,6.75s3.88,6.75,9.1,6.75h13.87v17.09h-18.05c-15.96,0-25.51-9.31-25.51-23.84s9.55-23.84,25.51-23.84h87.87c5.37,0,10.3-.31,12.68-.92v16.88ZM661.32,808.22c1.64,7.06,1.79,13.51,11.04,13.51h18.65c5.22,0,9.1-2.56,9.1-6.75s-3.14-6.45-7.76-6.75h-31.03Z" style="fill:#fff9f5;"/><path d="M617.61,776c-15.96,0-25.51-9.21-25.51-23.74s9.55-23.94,25.51-23.94h79.22c15.96,0,23.87,9.21,23.87,23.84s-7.9,23.84-23.87,23.84h-79.22ZM621.79,745.41c-5.22,0-9.1,2.56-9.1,6.86s3.73,6.65,8.95,6.65h69.37c5.22,0,9.1-2.56,9.1-6.75s-3.73-6.75-8.95-6.75h-69.37Z" style="fill:#fff9f5;"/><path d="M718.16,688.42c-3.88,1.12-14.62,1.12-22.53,1.12h-19.99c-6.86,0-10.89,1.33-10.89,5.63v7.88h53.41v17.09h-123.52v-33.25c0-14.12,14.62-14.43,27.45-14.43h3.58c12.23,0,27.3.3,29.24,14.33,1.64-14.02,15.22-14.33,27.3-14.33h18.5c6.86,0,14.32-.1,17.45-.92v16.88ZM625.97,689.54c-6.86,0-10.74,1.33-10.74,5.63v7.88h28.94v-7.88c0-4.3-3.88-5.63-10.74-5.63h-7.46Z" style="fill:#fff9f5;"/><path d="M718.16,634.5c-1.49.51-4.03.72-7.01.92,5.67,3.79,8.95,9.62,8.95,14.43,0,8.49-8.65,16.37-26.7,16.37h-28.94c-23.87,0-20.44-15.76-23.72-30.59h-19.1c-5.22,0-8.95,2.46-8.95,6.75s3.88,6.75,9.1,6.75h13.87v17.09h-18.05c-15.96,0-25.51-9.31-25.51-23.84s9.55-23.84,25.51-23.84h87.87c5.37,0,10.3-.31,12.68-.92v16.88ZM661.32,635.63c1.64,7.06,1.79,13.51,11.04,13.51h18.65c5.22,0,9.1-2.56,9.1-6.75s-3.14-6.45-7.76-6.75h-31.03Z" style="fill:#fff9f5;"/><path d="M333.9,498.48l-27.32,2.34v14.9l27.32,2.22v18.57l-134.66-12.12v-32.25l134.66-12.12v18.46ZM217.79,508.27l66.35,5.56v-11.12l-66.35,5.56Z" style="fill:#fff9f5;"/><polygon points="333.9 475.12 199.24 475.12 199.24 456.55 311.46 456.55 311.46 436.53 333.9 436.53 333.9 475.12" style="fill:#fff9f5;"/><path d="M224.29,432.52c-17.4,0-27.81-10.01-27.81-25.8s10.41-26.03,27.81-26.03h86.36c17.4,0,26.02,10.01,26.02,25.91s-8.62,25.91-26.02,25.91h-86.36ZM228.84,399.26c-5.69,0-9.92,2.78-9.92,7.45s4.07,7.23,9.76,7.23h75.62c5.69,0,9.92-2.78,9.92-7.34s-4.07-7.34-9.76-7.34h-75.62Z" style="fill:#fff9f5;"/><polygon points="333.9 338.53 275.68 338.53 275.68 353.21 333.9 353.21 333.9 371.78 199.24 371.78 199.24 353.21 253.24 353.21 253.24 338.53 199.24 338.53 199.24 319.96 333.9 319.96 333.9 338.53" style="fill:#fff9f5;"/><path d="M333.9,277.24c-1.62.56-4.39.78-7.64,1,6.18,4.12,9.76,10.46,9.76,15.68,0,9.23-9.43,17.79-29.11,17.79h-31.55c-26.02,0-22.28-17.13-25.86-33.25h-20.82c-5.69,0-9.76,2.67-9.76,7.34s4.23,7.34,9.92,7.34h15.12v18.57h-19.68c-17.4,0-27.81-10.12-27.81-25.91s10.41-25.91,27.81-25.91h95.79c5.86,0,11.22-.33,13.82-1v18.35ZM271.94,278.47c1.79,7.67,1.95,14.68,12.03,14.68h20.33c5.69,0,9.92-2.78,9.92-7.34s-3.42-7.01-8.46-7.34h-33.82Z" style="fill:#fff9f5;"/><polygon points="516.82 443.63 474.3 443.63 495.56 360.28 516.82 443.63" style="fill:#fff9f5;"/><polygon points="559.34 443.63 516.82 443.63 538.08 360.28 559.34 443.63" style="fill:#fff9f5;"/><polygon points="474.3 443.63 431.77 443.63 453.04 360.28 474.3 443.63" style="fill:#fff9f5;"/><polygon points="431.77 443.63 389.25 443.63 410.51 360.28 431.77 443.63" style="fill:#fff9f5;"/><polygon points="367.99 360.28 389.25 443.63 346.73 443.63 367.99 360.28" style="fill:#fff9f5;"/><path d="M240.68,652.87s-.02,0-.03,0c0,0-.02,0-.02,0-.25-8.95-4.39-18.54-12.17-26.16-8.7-8.53-19.91-12.61-29.92-11.87-.75,9.81,3.41,20.79,12.11,29.32,7.78,7.62,17.56,11.68,26.7,11.93,0,0,0,.02,0,.02,0,0,0,.02,0,.02-9.14.25-18.92,4.3-26.7,11.93-8.7,8.53-12.86,19.51-12.11,29.32,10.01.74,21.21-3.34,29.92-11.87,7.78-7.62,11.92-17.21,12.17-26.16,0,0,.02,0,.02,0,0,0,.02,0,.03,0,.25,8.95,4.39,18.54,12.17,26.16,8.7,8.53,19.91,12.61,29.92,11.87.75-9.81-3.41-20.79-12.11-29.32-7.78-7.62-17.56-11.68-26.7-11.93,0,0,0-.01,0-.02,0,0,0-.02,0-.02,9.14-.25,18.91-4.3,26.7-11.93,8.7-8.53,12.86-19.51,12.11-29.32-10.01-.74-21.21,3.34-29.92,11.87-7.78,7.62-11.92,17.21-12.17,26.16" style="fill:#fff9f5;"/><polygon points="468.45 697.48 517.79 697.48 517.79 656.12 468.45 697.48" style="fill:#fff9f5;"/><polygon points="468.45 656.12 517.79 656.12 517.79 614.76 468.45 656.12" style="fill:#fff9f5;"/><polygon points="489.68 916.06 508.01 895.84 489.68 875.61 489.68 916.06" style="fill:#fff9f5;"/><polygon points="508.01 895.84 508.01 916.06 526.34 895.84 508.01 875.61 508.01 895.84" style="fill:#fff9f5;"/><polygon points="526.34 895.84 526.34 916.06 544.67 895.84 526.34 875.61 526.34 895.84" style="fill:#fff9f5;"/><polygon points="563 895.84 544.67 875.61 544.67 895.84 544.67 916.06 563 895.84" style="fill:#fff9f5;"/><polygon points="581.33 895.84 563 875.61 563 895.84 563 916.06 581.33 895.84" style="fill:#fff9f5;"/></g></svg>