<?xml version="1.0" encoding="UTF-8"?><svg id="Layer_1" xmlns="http://www.w3.org/2000/svg" xmlns:xlink="http://www.w3.org/1999/xlink" viewBox="0 0 918.04 1080"><defs><clipPath id="clippath"><rect x="-1001.96" width="1920" height="1080" style="fill:none;"/></clipPath></defs><g style="clip-path:url(#clippath);"><rect x="-.2" width="918.24" height="1080" style="fill:#ffae00;"/><polygon points="639.85 843.15 674.67 703.86 605.02 703.86 639.85 843.15" style="fill:#f7e8d7;"/><polygon points="570.2 843.15 605.02 703.86 535.38 703.86 570.2 843.15" style="fill:#f7e8d7;"/><polygon points="368.73 843.15 134.71 819.93 335.89 796.72 134.71 773.51 335.89 750.29 134.71 727.08 368.73 703.86 90.16 703.86 90.16 843.15 368.73 843.15" style="fill:#f7e8d7;"/><polygon points="521.7 843.15 521.7 773.51 452.06 773.51 521.7 843.15" style="fill:#f7e8d7;"/><polygon points="382.42 843.15 452.06 843.15 452.06 773.51 382.42 843.15" style="fill:#f7e8d7;"/><polygon points="382.42 703.86 382.42 773.51 452.06 773.51 382.42 703.86" style="fill:#f7e8d7;"/><polygon points="521.7 703.86 452.06 703.86 452.06 773.51 521.7 703.86" style="fill:#f7e8d7;"/><path d="M605.03,306.49c0,38.46,31.18,69.64,69.64,69.64v-69.64h-69.64Z" style="fill:#f7e8d7;"/><path d="M605.03,306.49c-38.46,0-69.64,31.18-69.64,69.64h69.64v-69.64Z" style="fill:#f7e8d7;"/><path d="M605.03,306.49c0-38.46-31.18-69.64-69.64-69.64v69.64h69.64Z" style="fill:#f7e8d7;"/><path d="M605.03,306.49c38.46,0,69.64-31.18,69.64-69.64h-69.64v69.64Z" style="fill:#f7e8d7;"/><polygon points="368.73 236.85 299.09 306.49 368.73 376.14 368.73 236.85" style="fill:#f7e8d7;"/><polygon points="299.09 306.49 299.09 236.85 229.45 306.49 299.09 376.14 299.09 306.49" style="fill:#f7e8d7;"/><polygon points="229.45 306.49 229.45 236.85 159.81 306.49 229.45 376.14 229.45 306.49" style="fill:#f7e8d7;"/><polygon points="90.16 306.49 159.81 376.13 159.81 306.49 159.81 236.85 90.16 306.49" style="fill:#f7e8d7;"/><path d="M428.31,318.33c-6.31,4.28-12.6,9.47-18.59,15.46-13.69,13.69-23.16,28.93-27.3,42.34,13.41-4.14,28.65-13.61,42.34-27.3,5.99-5.99,11.18-12.29,15.46-18.59,1.99,17.78,6.16,33.6,11.84,45.89,5.67-12.3,9.85-28.11,11.84-45.89,4.28,6.31,9.47,12.6,15.46,18.59,13.69,13.69,28.93,23.16,42.34,27.3-4.14-13.41-13.61-28.65-27.3-42.34-6-5.99-12.29-11.18-18.59-15.46,17.78-1.99,33.6-6.16,45.89-11.84-12.3-5.67-28.11-9.85-45.89-11.84,6.31-4.28,12.6-9.47,18.59-15.46,13.69-13.69,23.16-28.93,27.3-42.34-13.41,4.14-28.65,13.61-42.34,27.3-5.99,5.99-11.18,12.29-15.46,18.59-1.99-17.78-6.16-33.6-11.84-45.89-5.67,12.3-9.85,28.11-11.84,45.89-4.28-6.31-9.47-12.6-15.46-18.59-13.69-13.69-28.93-23.16-42.34-27.3,4.14,13.41,13.61,28.65,27.3,42.34,5.99,5.99,12.29,11.18,18.59,15.46-17.78,1.99-33.6,6.16-45.89,11.84,12.3,5.67,28.11,9.85,45.89,11.84" style="fill:#f7e8d7;"/><polygon points="243.17 550.9 243.17 620.54 312.81 620.54 243.17 550.9" style="fill:#f7e8d7;"/><polygon points="312.81 550.9 312.81 620.54 382.46 620.54 312.81 550.9" style="fill:#f7e8d7;"/><polygon points="243.17 620.54 243.17 690.18 312.81 690.18 243.17 620.54" style="fill:#f7e8d7;"/><polygon points="312.81 620.54 312.81 690.18 382.45 690.18 312.81 620.54" style="fill:#f7e8d7;"/><polygon points="549.1 690.18 618.75 690.18 583.93 550.9 549.1 690.18" style="fill:#f7e8d7;"/><polygon points="618.75 690.18 688.39 690.18 653.57 550.9 618.75 690.18" style="fill:#f7e8d7;"/><polygon points="688.39 690.18 758.03 690.18 723.21 550.9 688.39 690.18" style="fill:#f7e8d7;"/><polygon points="792.85 550.9 758.03 690.18 827.67 690.18 792.85 550.9" style="fill:#f7e8d7;"/><path d="M318.27,467.61s0-.03,0-.04,0-.03,0-.04c15.08-.42,31.21-7.25,44.05-20.09,14.36-14.36,21.23-32.86,19.98-49.37-16.51-1.24-35.01,5.62-49.37,19.98-12.84,12.84-19.67,28.98-20.09,44.05-.01,0-.03,0-.04,0s-.03,0-.04,0c-.42-15.08-7.25-31.21-20.09-44.05-14.36-14.36-32.86-21.23-49.37-19.98-1.24,16.51,5.62,35.01,19.98,49.37,12.84,12.84,28.98,19.67,44.05,20.09,0,.01,0,.03,0,.04,0,.01,0,.03,0,.04-15.08.42-31.21,7.25-44.05,20.09-14.36,14.36-21.23,32.86-19.98,49.37,16.51,1.24,35.01-5.62,49.37-19.98,12.84-12.84,19.67-28.98,20.09-44.05.01,0,.03,0,.04,0s.03,0,.04,0c.42,15.08,7.25,31.21,20.09,44.05,14.36,14.36,32.86,21.23,49.37,19.98,1.24-16.51-5.62-35.01-19.98-49.37-12.84-12.84-28.98-19.67-44.05-20.09" style="fill:#f7e8d7;"/><path d="M826.65,465.07l-18.05-18.44-.28-25.8c-.02-1.95-1.59-3.52-3.54-3.54l-25.8-.28-18.44-18.05c-1.39-1.36-3.62-1.36-5.01,0l-18.44,18.05-25.8.28c-1.95.02-3.52,1.59-3.54,3.54l-.28,25.8-18.05,18.44c-1.36,1.39-1.36,3.62,0,5.01l18.05,18.44.28,25.8c.02,1.95,1.59,3.52,3.54,3.54l25.8.28,18.44,18.05c1.39,1.36,3.62,1.36,5.01,0l18.44-18.05,25.8-.28c1.95-.02,3.52-1.59,3.54-3.54l.28-25.8,18.05-18.44c1.36-1.39,1.36-3.62,0-5.01" style="fill:#f7e8d7;"/><polygon points="194.63 537.21 229.45 397.93 159.81 397.93 194.63 537.21" style="fill:#f7e8d7;"/><polygon points="124.99 537.21 159.81 397.93 90.16 397.93 124.99 537.21" style="fill:#f7e8d7;"/><path d="M689.41,776.01l18.05,18.44.28,25.8c.02,1.95,1.59,3.52,3.54,3.54l25.8.28,18.44,18.05c1.39,1.36,3.62,1.36,5.01,0l18.44-18.05,25.8-.28c1.95-.02,3.52-1.59,3.54-3.54l.28-25.8,18.05-18.44c1.36-1.39,1.36-3.62,0-5.01l-18.05-18.44-.28-25.8c-.02-1.95-1.59-3.52-3.54-3.54l-25.8-.28-18.44-18.05c-1.39-1.36-3.62-1.36-5.01,0l-18.44,18.05-25.8.28c-1.95.02-3.52,1.59-3.54,3.54l-.28,25.8-18.05,18.44c-1.36,1.39-1.36,3.62,0,5.01" style="fill:#f7e8d7;"/><path d="M183.55,608.7c6.31-4.28,12.6-9.47,18.59-15.46,13.69-13.69,23.16-28.93,27.3-42.34-13.41,4.14-28.65,13.61-42.34,27.3-5.99,5.99-11.18,12.29-15.46,18.59-1.99-17.78-6.16-33.6-11.84-45.89-5.68,12.3-9.85,28.11-11.84,45.89-4.28-6.31-9.47-12.6-15.46-18.59-13.69-13.69-28.93-23.16-42.34-27.3,4.14,13.41,13.61,28.65,27.3,42.34,5.99,5.99,12.29,11.18,18.59,15.46-17.78,1.99-33.6,6.16-45.89,11.84,12.3,5.67,28.11,9.85,45.89,11.84-6.31,4.28-12.6,9.47-18.59,15.46-13.69,13.69-23.16,28.93-27.3,42.34,13.41-4.14,28.65-13.61,42.34-27.3,5.99-6,11.18-12.29,15.46-18.59,1.99,17.78,6.16,33.6,11.84,45.89,5.67-12.3,9.85-28.11,11.84-45.89,4.28,6.31,9.47,12.6,15.46,18.59,13.69,13.69,28.93,23.16,42.34,27.3-4.14-13.41-13.61-28.65-27.3-42.34-5.99-5.99-12.29-11.18-18.59-15.46,17.78-1.99,33.6-6.16,45.89-11.84-12.3-5.67-28.11-9.85-45.89-11.84" style="fill:#f7e8d7;"/><path d="M823.63,306.49l3.61-12.6c1.14-3.96,0-8.23-2.97-11.09l-9.43-9.11-3.17-12.72c-1-4-4.12-7.12-8.12-8.12l-12.72-3.17-9.11-9.43c-2.86-2.96-7.13-4.11-11.09-2.97l-12.6,3.61-12.6-3.61c-3.96-1.14-8.23,0-11.09,2.97l-9.11,9.43-12.72,3.17c-4,1-7.12,4.12-8.12,8.12l-3.17,12.72-9.43,9.11c-2.96,2.86-4.11,7.13-2.97,11.09l3.61,12.6-3.61,12.6c-1.14,3.96,0,8.23,2.97,11.09l9.43,9.11,3.17,12.72c1,4,4.12,7.12,8.12,8.12l12.72,3.17,9.11,9.43c2.86,2.96,7.13,4.11,11.09,2.97l12.6-3.61,12.6,3.61c3.96,1.14,8.23,0,11.09-2.97l9.11-9.43,12.72-3.17c4-1,7.12-4.12,8.12-8.12l3.17-12.72,9.43-9.11c2.96-2.86,4.11-7.13,2.97-11.09l-3.61-12.6ZM734.17,310.32l-5.57-2.4c-1.25-.54-1.25-2.32,0-2.86l5.57-2.4c.39-.17.84-.17,1.23,0l5.57,2.4c1.25.54,1.25,2.32,0,2.86l-5.57,2.4c-.39.17-.84.17-1.23,0M747.91,318.63l-2.24,5.64c-.16.4-.47.71-.87.87l-5.64,2.24c-1.27.51-2.52-.75-2.02-2.02l2.24-5.64c.16-.4.47-.71.87-.87l5.64-2.24c1.27-.51,2.53.75,2.02,2.02M745.89,296.37l-5.64-2.24c-.4-.16-.71-.47-.87-.87l-2.24-5.64c-.5-1.27.75-2.52,2.02-2.02l5.64,2.24c.4.16.71.47.87.87l2.24,5.64c.5,1.27-.75,2.52-2.02,2.02M761.86,330.35l-2.4,5.57c-.54,1.25-2.32,1.25-2.86,0l-2.4-5.57c-.17-.39-.17-.84,0-1.23l2.4-5.57c.54-1.25,2.31-1.25,2.86,0l2.4,5.57c.17.39.17.84,0,1.23M761.86,283.86l-2.4,5.57c-.54,1.25-2.32,1.25-2.86,0l-2.4-5.57c-.17-.39-.17-.84,0-1.23l2.4-5.57c.54-1.25,2.32-1.25,2.86,0l2.4,5.57c.17.39.17.84,0,1.23M768.15,294.35l2.24-5.64c.16-.4.47-.71.87-.87l5.64-2.24c1.27-.5,2.52.75,2.02,2.02l-2.24,5.64c-.16.4-.47.71-.87.87l-5.64,2.24c-1.27.5-2.53-.75-2.02-2.02M777.91,327.39l-5.64-2.24c-.4-.16-.71-.47-.87-.87l-2.24-5.64c-.51-1.27.75-2.52,2.02-2.02l5.64,2.24c.4.16.71.47.87.87l2.24,5.64c.5,1.27-.75,2.53-2.02,2.02M787.46,307.92l-5.57,2.4c-.39.17-.84.17-1.23,0l-5.57-2.4c-1.25-.54-1.25-2.32,0-2.86l5.57-2.4c.39-.17.84-.17,1.23,0l5.57,2.4c1.25.54,1.25,2.32,0,2.86" style="fill:#f7e8d7;"/><path d="M531.38,620.54l3.61-12.6c1.14-3.96,0-8.23-2.97-11.09l-9.43-9.11-3.17-12.72c-1-4-4.12-7.12-8.12-8.12l-12.72-3.17-9.11-9.43c-2.86-2.97-7.13-4.11-11.09-2.97l-12.6,3.61-12.6-3.61c-3.96-1.14-8.23,0-11.09,2.97l-9.11,9.43-12.72,3.17c-4,1-7.12,4.12-8.12,8.12l-3.17,12.72-9.43,9.11c-2.96,2.86-4.11,7.13-2.97,11.09l3.61,12.6-3.61,12.6c-1.14,3.96,0,8.23,2.97,11.09l9.43,9.11,3.17,12.72c1,4,4.12,7.12,8.12,8.12l12.72,3.17,9.11,9.43c2.86,2.96,7.13,4.11,11.09,2.97l12.6-3.61,12.6,3.61c3.96,1.14,8.23,0,11.09-2.97l9.11-9.43,12.72-3.17c4-1,7.12-4.12,8.12-8.12l3.17-12.72,9.43-9.11c2.97-2.86,4.11-7.13,2.97-11.09l-3.61-12.6ZM441.92,624.37l-5.57-2.4c-1.25-.54-1.25-2.32,0-2.86l5.57-2.4c.39-.17.84-.17,1.23,0l5.57,2.4c1.25.54,1.25,2.32,0,2.86l-5.57,2.4c-.39.17-.84.17-1.23,0M455.66,632.68l-2.24,5.64c-.16.4-.47.71-.87.87l-5.64,2.24c-1.27.51-2.52-.75-2.02-2.02l2.24-5.64c.16-.4.47-.71.87-.87l5.64-2.24c1.27-.5,2.52.75,2.02,2.02M453.64,610.42l-5.64-2.24c-.4-.16-.71-.47-.87-.87l-2.24-5.64c-.51-1.27.75-2.52,2.02-2.02l5.64,2.24c.4.16.71.47.87.87l2.24,5.64c.5,1.27-.75,2.52-2.02,2.02M469.61,644.4l-2.4,5.57c-.54,1.25-2.32,1.25-2.86,0l-2.4-5.57c-.17-.39-.17-.84,0-1.23l2.4-5.57c.54-1.25,2.32-1.25,2.86,0l2.4,5.57c.17.39.17.84,0,1.23M469.61,597.91l-2.4,5.57c-.54,1.25-2.32,1.25-2.86,0l-2.4-5.57c-.17-.39-.17-.84,0-1.23l2.4-5.57c.54-1.25,2.32-1.25,2.86,0l2.4,5.57c.17.39.17.84,0,1.23M475.9,608.4l2.24-5.64c.16-.4.47-.71.87-.87l5.64-2.24c1.27-.5,2.52.75,2.02,2.02l-2.24,5.64c-.16.4-.47.71-.87.87l-5.64,2.24c-1.27.5-2.52-.75-2.02-2.02M485.65,641.43l-5.64-2.24c-.4-.16-.71-.47-.87-.87l-2.24-5.64c-.5-1.27.75-2.52,2.02-2.02l5.64,2.24c.4.16.71.47.87.87l2.24,5.64c.51,1.27-.75,2.52-2.02,2.02M495.21,621.97l-5.57,2.4c-.39.17-.84.17-1.23,0l-5.57-2.4c-1.25-.54-1.25-2.32,0-2.86l5.57-2.4c.39-.17.84-.17,1.23,0l5.57,2.4c1.25.54,1.25,2.32,0,2.86" style="fill:#f7e8d7;"/><polygon points="568.08 430.18 568.08 505.19 605.59 467.69 568.08 430.18" style="fill:#f7e8d7;"/><polygon points="643.09 505.19 643.09 430.18 605.59 467.69 643.09 505.19" style="fill:#f7e8d7;"/><polygon points="643.09 430.18 675.34 397.93 674.93 397.93 536.24 397.93 535.83 397.93 568.08 430.18 643.09 430.18" style="fill:#f7e8d7;"/><polygon points="643.09 505.19 643.09 505.19 568.08 505.19 535.83 537.44 536.24 537.44 674.93 537.44 675.34 537.44 643.09 505.19" style="fill:#f7e8d7;"/><polygon points="503.58 430.18 428.57 430.18 466.08 467.69 503.58 430.18" style="fill:#f7e8d7;"/><polygon points="428.57 505.19 503.58 505.19 466.08 467.69 428.57 505.19" style="fill:#f7e8d7;"/><polygon points="503.58 505.19 535.83 537.44 535.83 537.03 535.83 398.34 535.83 397.93 503.58 430.18 503.58 505.19" style="fill:#f7e8d7;"/><polygon points="428.57 505.19 428.57 430.18 428.57 430.18 396.32 397.93 396.32 398.34 396.32 537.03 396.32 537.44 428.57 505.19" style="fill:#f7e8d7;"/></g></svg>