<?xml version="1.0" encoding="UTF-8"?><svg xmlns="http://www.w3.org/2000/svg" viewBox="0 0 427 427"><rect width="427" height="427" style="fill:#fff;"/><g id="Layer_1"><path d="M213.5,11.46S45.51,74.04,45.51,293.79c1.37,1.26,2.76,2.48,4.18,3.69.19.16.37.32.56.48,1.35,1.14,2.73,2.26,4.13,3.36.26.2.51.4.77.6,1.39,1.08,2.8,2.14,4.23,3.18.25.18.49.36.74.54,1.47,1.06,2.96,2.11,4.47,3.12.14.09.28.19.42.28,1.49,1,3.01,1.99,4.53,2.95.16.1.31.2.46.3,1.54.97,3.1,1.91,4.67,2.83.28.16.55.33.83.49,1.53.89,3.07,1.76,4.62,2.62.31.17.62.34.92.51,1.56.85,3.14,1.69,4.72,2.51.25.13.5.26.75.38,1.62.83,3.25,1.64,4.88,2.43.08.04.16.08.23.11,1.66.8,3.33,1.58,5,2.34.27.13.55.25.82.37,1.61.73,3.22,1.43,4.83,2.12.34.15.67.29,1.01.43,1.6.68,3.2,1.34,4.81,1.99.32.13.64.25.95.38,1.65.66,3.3,1.3,4.95,1.93.19.07.37.14.56.21,1.6.6,3.21,1.19,4.81,1.77.22.08.43.16.64.23,1.64.58,3.27,1.15,4.9,1.7.32.11.64.22.97.33,1.59.54,3.18,1.05,4.76,1.56.33.1.66.21.99.31,1.6.5,3.19,1,4.77,1.47.25.08.5.15.76.22,1.61.48,3.21.95,4.8,1.4.08.02.16.05.24.07,1.64.46,3.27.91,4.88,1.34.24.07.49.13.74.2,1.56.41,3.09.81,4.62,1.2.27.07.55.14.83.21,1.52.38,3.03.75,4.52,1.1.23.06.46.11.69.16,1.55.37,3.08.72,4.59,1.05.07.01.14.03.2.04,1.54.34,3.06.67,4.55.98.1.02.21.04.31.07,1.48.31,2.94.6,4.37.88.17.03.34.07.52.1,1.41.28,2.79.54,4.15.79.16.03.31.06.46.09,1.39.25,2.76.5,4.09.72.05,0,.09.02.14.02,2.81.48,5.49.9,8.01,1.27.02,0,.04,0,.06,0,1.26.18,2.47.35,3.64.51.04,0,.07,0,.11.01,3.58.48,6.78.84,9.53,1.09v59.55c0,.63.8,1.13,1.78,1.13h16.98c.99,0,1.78-.51,1.78-1.13v-59.55c1.84-.17,3.89-.39,6.1-.65,0,0,.01,0,.02,0,1.08-.13,2.21-.27,3.37-.43.06,0,.12-.02.19-.02,1.15-.15,2.34-.32,3.57-.5.05,0,.1-.01.16-.02,2.49-.37,5.12-.78,7.89-1.25.08-.01.15-.02.23-.04,1.31-.22,2.65-.46,4.01-.71.18-.03.37-.07.55-.1,1.34-.25,2.7-.5,4.08-.77.2-.04.4-.08.6-.12,1.41-.28,2.84-.56,4.3-.87.13-.03.27-.06.4-.09,1.45-.3,2.93-.62,4.42-.95.1-.02.19-.04.29-.06,1.49-.33,3-.68,4.53-1.04.25-.06.5-.12.75-.18,1.47-.35,2.96-.71,4.47-1.09.3-.08.6-.15.9-.23,1.51-.38,3.03-.77,4.56-1.18.27-.07.53-.14.8-.21,1.6-.43,3.21-.87,4.83-1.33.1-.03.2-.06.31-.09,1.56-.44,3.14-.9,4.73-1.38.26-.08.53-.16.79-.23,1.57-.47,3.16-.96,4.75-1.47.34-.11.67-.21,1.01-.32,1.58-.5,3.16-1.02,4.75-1.55.33-.11.65-.22.98-.33,1.62-.55,3.25-1.11,4.88-1.69.22-.08.45-.16.67-.24,1.59-.57,3.19-1.16,4.78-1.76.19-.07.38-.14.57-.21,1.65-.63,3.3-1.27,4.94-1.93.32-.13.64-.25.96-.38,1.6-.65,3.2-1.31,4.8-1.99.34-.14.68-.29,1.01-.43,1.61-.69,3.22-1.4,4.82-2.12.28-.12.55-.25.83-.38,1.68-.76,3.35-1.54,5.01-2.34.07-.03.14-.07.21-.1,1.64-.79,3.27-1.61,4.89-2.44.25-.13.5-.25.75-.38,1.59-.82,3.16-1.66,4.72-2.51.31-.17.62-.34.92-.5,1.55-.86,3.09-1.73,4.62-2.62.28-.16.56-.33.84-.49,1.57-.93,3.13-1.87,4.67-2.84.15-.09.3-.19.46-.29,1.53-.97,3.05-1.95,4.55-2.96.14-.09.28-.18.41-.27,1.51-1.02,3-2.06,4.47-3.13.25-.18.49-.35.74-.53,1.43-1.04,2.84-2.1,4.23-3.18.26-.2.51-.4.76-.6,1.4-1.1,2.77-2.22,4.13-3.36.19-.16.37-.32.56-.48,1.42-1.21,2.82-2.44,4.18-3.69C381.49,74.04,213.5,11.46,213.5,11.46M282.81,72.61l-23.26,38.89c-5.16-6.08-10.23-11.34-15.01-15.86l38.27-23.03ZM182.46,95.64c-4.78,4.52-9.84,9.77-15.01,15.86l-23.26-38.89,38.27,23.03ZM106.62,295.55l-47.46-13.59,48.59-10.41c-.59,7.72-.98,15.72-1.14,24M110.56,246.31l-45.24-20.88,49.53-2.85c-1.66,7.55-3.09,15.47-4.29,23.73M121.21,198.31l-40.15-28.34,48.03,6.02c-2.82,7.01-5.46,14.44-7.88,22.32M139.84,152.7l-32.41-34.61,43.95,14.97c-3.94,6.01-7.82,12.55-11.54,19.64M203.23,318.76h0v14.67c-4.01-.42-9.1-1.08-15.01-2.04h0c-2.95-.48-6.1-1.03-9.42-1.66,0,0-.01,0-.02,0-2.21-.42-4.49-.88-6.84-1.37-.02,0-.04,0-.05,0-3.5-.74-7.14-1.56-10.89-2.46-.07-.02-.15-.03-.22-.05-2.5-.61-5.05-1.25-7.63-1.94,0,0,0,0,0,0-.79-.69-1.56-1.4-2.3-2.13,0-69.72,39.57-117.76,55.83-134.56-1.85,30.26-3.37,72.88-3.42,131.56M202.19,79.51l11.31-45.25,11.31,45.25c-6.95-4.81-11.31-6.91-11.31-6.91,0,0-4.36,2.09-11.31,6.91M273.88,323.9c-2.6.69-5.16,1.34-7.67,1.95-.05.01-.11.03-.16.04-3.77.92-7.43,1.74-10.95,2.48t0,0c-5.9,1.24-11.39,2.24-16.31,3.04h0c-5.91.96-11,1.62-15.01,2.04v-14.67h0c-.05-58.68-1.56-101.29-3.42-131.56,16.26,16.8,55.83,64.84,55.83,134.56-.74.73-1.52,1.44-2.3,2.13M287.16,152.7c-3.72-7.09-7.6-13.63-11.54-19.64l43.95-14.97-32.41,34.61ZM305.79,198.31c-2.42-7.87-5.06-15.31-7.88-22.32l48.03-6.02-40.15,28.34ZM316.44,246.31c-1.2-8.26-2.64-16.18-4.29-23.73l49.53,2.85-45.24,20.88ZM320.38,295.55c-.16-8.28-.55-16.28-1.14-24l48.59,10.41-47.46,13.59Z" style="fill:#0094a2;"/></g></svg>